{
	"asset":{
		"generator":"Khronos glTF Blender I/O v3.5.30",
		"version":"2.0"
	},
	"scene":0,
	"scenes":[
		{
			"name":"Scene",
			"nodes":[
				0,
				1,
				2,
				3,
				4,
				5,
				6,
				7,
				8,
				9,
				10,
				11,
				12,
				13,
				14,
				15
			]
		}
	],
	"nodes":[
		{
			"mesh":0,
			"name":"track",
			"translation":[
				-2.93056583404541,
				0.02348613739013672,
				-12.97486400604248
			]
		},
		{
			"mesh":1,
			"name":"sector 1",
			"translation":[
				-2.93056583404541,
				0.1597597599029541,
				-12.97486400604248
			]
		},
		{
			"mesh":2,
			"name":"sector 3",
			"translation":[
				-2.93056583404541,
				0.1597597599029541,
				-12.97486400604248
			]
		},
		{
			"mesh":3,
			"name":"sector 2",
			"translation":[
				-2.93056583404541,
				0.1597597599029541,
				-12.97486400604248
			]
		},
		{
			"mesh":4,
			"name":"DRS1",
			"translation":[
				-6.062163352966309,
				0,
				3.700862407684326
			]
		},
		{
			"mesh":5,
			"name":"DRS3",
			"translation":[
				6.895339012145996,
				0,
				3.700862407684326
			]
		},
		{
			"mesh":6,
			"name":"DRS2",
			"rotation":[
				0,
				-0.12209657579660416,
				0,
				0.9925183057785034
			],
			"translation":[
				17.409130096435547,
				0,
				-55.65693283081055
			]
		},
		{
			"mesh":7,
			"name":"DrsDetect1",
			"rotation":[
				0,
				-0.02256208471953869,
				0,
				0.9997455477714539
			],
			"scale":[
				2.014714241027832,
				2.014714241027832,
				2.014714241027832
			],
			"translation":[
				-0.3642607033252716,
				0.7244482040405273,
				-52.688209533691406
			]
		},
		{
			"mesh":8,
			"name":"DrsDetect2",
			"rotation":[
				0,
				-0.04847036674618721,
				0,
				0.9988247156143188
			],
			"scale":[
				1.893182635307312,
				1.893182635307312,
				1.893182635307312
			],
			"translation":[
				18.396469116210938,
				0.4120292663574219,
				-36.72758483886719
			]
		},
		{
			"mesh":9,
			"name":"DrsDetect3",
			"rotation":[
				0,
				-0.5095113515853882,
				0,
				0.8604640364646912
			],
			"scale":[
				1.9039809703826904,
				1.9039808511734009,
				1.9039809703826904
			],
			"translation":[
				0.5877746939659119,
				0.7658901214599609,
				22.764402389526367
			]
		},
		{
			"mesh":10,
			"name":"Sector 1 text",
			"rotation":[
				0.7035290598869324,
				-0.07104117423295975,
				0.07104117423295975,
				0.7035291194915771
			],
			"scale":[
				5.210110187530518,
				5.210110187530518,
				5.210110187530518
			],
			"translation":[
				19.333877563476562,
				4.606136322021484,
				-56.022315979003906
			]
		},
		{
			"mesh":11,
			"name":"sector 2 text",
			"rotation":[
				0.7035290598869324,
				-0.07104117423295975,
				0.07104117423295975,
				0.7035291194915771
			],
			"scale":[
				5.210110187530518,
				5.210110187530518,
				5.210110187530518
			],
			"translation":[
				17.62354278564453,
				4.606136322021484,
				-10.59945011138916
			]
		},
		{
			"mesh":12,
			"name":"sector 3 text",
			"rotation":[
				0.7035290598869324,
				-0.07104117423295975,
				0.07104117423295975,
				0.7035291194915771
			],
			"scale":[
				5.210110187530518,
				5.210110187530518,
				5.210110187530518
			],
			"translation":[
				-1.084861397743225,
				4.606136322021484,
				13.300464630126953
			]
		},
		{
			"mesh":13,
			"name":"drs Detect 1 Text",
			"rotation":[
				0.7070556879043579,
				-0.008503751829266548,
				0.008503752760589123,
				0.7070556879043579
			],
			"scale":[
				3.857818365097046,
				3.857818365097046,
				3.8578178882598877
			],
			"translation":[
				-14.34051513671875,
				4.606136322021484,
				-52.36027526855469
			]
		},
		{
			"mesh":14,
			"name":"drs Detect 2 Text",
			"rotation":[
				0.7070556879043579,
				-0.008503751829266548,
				0.008503752760589123,
				0.7070556879043579
			],
			"scale":[
				3.857818365097046,
				3.857818365097046,
				3.8578178882598877
			],
			"translation":[
				22.379688262939453,
				2.7637996673583984,
				-36.141700744628906
			]
		},
		{
			"mesh":15,
			"name":"drs Detect 2 Text.001",
			"rotation":[
				0.7070556879043579,
				-0.008503751829266548,
				0.008503752760589123,
				0.7070556879043579
			],
			"scale":[
				3.857818365097046,
				3.857818365097046,
				3.8578178882598877
			],
			"translation":[
				3.2589657306671143,
				2.7637996673583984,
				26.760818481445312
			]
		}
	],
	"materials":[
		{
			"doubleSided":true,
			"name":"track",
			"pbrMetallicRoughness":{
				"baseColorFactor":[
					0.005243353080004454,
					0.005243353080004454,
					0.005243353080004454,
					0.24890828132629395
				],
				"metallicFactor":0,
				"roughnessFactor":0.5
			}
		},
		{
			"doubleSided":true,
			"name":"red",
			"pbrMetallicRoughness":{
				"baseColorFactor":[
					1,
					0.00975839700549841,
					0,
					0.24890828132629395
				],
				"metallicFactor":0,
				"roughnessFactor":0.5
			}
		},
		{
			"doubleSided":true,
			"name":"yellow",
			"pbrMetallicRoughness":{
				"baseColorFactor":[
					1,
					0.9022322297096252,
					0,
					0.24890828132629395
				],
				"metallicFactor":0,
				"roughnessFactor":0.5
			}
		},
		{
			"doubleSided":true,
			"name":"blue",
			"pbrMetallicRoughness":{
				"baseColorFactor":[
					0.010664258152246475,
					0.6164311766624451,
					1,
					0.24890828132629395
				],
				"metallicFactor":0,
				"roughnessFactor":0.5
			}
		},
		{
			"alphaMode":"BLEND",
			"doubleSided":true,
			"name":"greenTransparent",
			"pbrMetallicRoughness":{
				"baseColorFactor":[
					0,
					0.8000000715255737,
					0.01090156752616167,
					0.22272729873657227
				],
				"metallicFactor":0,
				"roughnessFactor":0.5
			}
		},
		{
			"doubleSided":true,
			"name":"green",
			"pbrMetallicRoughness":{
				"baseColorFactor":[
					0,
					0.8000000715255737,
					0.01090156752616167,
					1
				],
				"metallicFactor":0,
				"roughnessFactor":0.5
			}
		}
	],
	"meshes":[
		{
			"name":"Plane.013",
			"primitives":[
				{
					"attributes":{
						"POSITION":0,
						"TEXCOORD_0":1,
						"NORMAL":2
					},
					"indices":3,
					"material":0
				}
			]
		},
		{
			"name":"Plane.016",
			"primitives":[
				{
					"attributes":{
						"POSITION":4,
						"TEXCOORD_0":5,
						"NORMAL":6
					},
					"indices":7,
					"material":1
				}
			]
		},
		{
			"name":"Plane.017",
			"primitives":[
				{
					"attributes":{
						"POSITION":8,
						"TEXCOORD_0":9,
						"NORMAL":10
					},
					"indices":11,
					"material":2
				}
			]
		},
		{
			"name":"Plane.018",
			"primitives":[
				{
					"attributes":{
						"POSITION":12,
						"TEXCOORD_0":13,
						"NORMAL":14
					},
					"indices":15,
					"material":3
				}
			]
		},
		{
			"name":"Plane.019",
			"primitives":[
				{
					"attributes":{
						"POSITION":16,
						"TEXCOORD_0":17,
						"NORMAL":18
					},
					"indices":19,
					"material":4
				}
			]
		},
		{
			"name":"Plane.020",
			"primitives":[
				{
					"attributes":{
						"POSITION":20,
						"TEXCOORD_0":21,
						"NORMAL":22
					},
					"indices":23,
					"material":4
				}
			]
		},
		{
			"name":"Plane.021",
			"primitives":[
				{
					"attributes":{
						"POSITION":24,
						"TEXCOORD_0":25,
						"NORMAL":26
					},
					"indices":19,
					"material":4
				}
			]
		},
		{
			"name":"Circle.009",
			"primitives":[
				{
					"attributes":{
						"POSITION":27,
						"TEXCOORD_0":28,
						"NORMAL":29
					},
					"indices":30,
					"material":4
				}
			]
		},
		{
			"name":"Circle.010",
			"primitives":[
				{
					"attributes":{
						"POSITION":31,
						"TEXCOORD_0":32,
						"NORMAL":33
					},
					"indices":30,
					"material":4
				}
			]
		},
		{
			"name":"Circle.011",
			"primitives":[
				{
					"attributes":{
						"POSITION":34,
						"TEXCOORD_0":35,
						"NORMAL":36
					},
					"indices":30,
					"material":4
				}
			]
		},
		{
			"name":"Sector 1",
			"primitives":[
				{
					"attributes":{
						"POSITION":37,
						"TEXCOORD_0":38,
						"NORMAL":39
					},
					"indices":40,
					"material":1
				}
			]
		},
		{
			"name":"Sector 1.001",
			"primitives":[
				{
					"attributes":{
						"POSITION":41,
						"TEXCOORD_0":42,
						"NORMAL":43
					},
					"indices":44,
					"material":3
				}
			]
		},
		{
			"name":"Sector 1.002",
			"primitives":[
				{
					"attributes":{
						"POSITION":45,
						"TEXCOORD_0":46,
						"NORMAL":47
					},
					"indices":48,
					"material":2
				}
			]
		},
		{
			"name":"Sector 1.003",
			"primitives":[
				{
					"attributes":{
						"POSITION":49,
						"TEXCOORD_0":50,
						"NORMAL":51
					},
					"indices":52,
					"material":5
				}
			]
		},
		{
			"name":"Sector 1.004",
			"primitives":[
				{
					"attributes":{
						"POSITION":53,
						"TEXCOORD_0":54,
						"NORMAL":55
					},
					"indices":56,
					"material":5
				}
			]
		},
		{
			"name":"Sector 1.005",
			"primitives":[
				{
					"attributes":{
						"POSITION":57,
						"TEXCOORD_0":58,
						"NORMAL":59
					},
					"indices":60,
					"material":5
				}
			]
		}
	],
	"accessors":[
		{
			"bufferView":0,
			"componentType":5126,
			"count":15200,
			"max":[
				55.7393913269043,
				-0.025466181337833405,
				37.85338592529297
			],
			"min":[
				-2.7267770767211914,
				-0.5857222676277161,
				-44.648719787597656
			],
			"type":"VEC3"
		},
		{
			"bufferView":1,
			"componentType":5126,
			"count":15200,
			"type":"VEC2"
		},
		{
			"bufferView":2,
			"componentType":5126,
			"count":15200,
			"type":"VEC3"
		},
		{
			"bufferView":3,
			"componentType":5123,
			"count":22800,
			"type":"SCALAR"
		},
		{
			"bufferView":4,
			"componentType":5126,
			"count":66996,
			"max":[
				54.49089431762695,
				0,
				6.422802925109863
			],
			"min":[
				-0.4930674731731415,
				0,
				-43.676795959472656
			],
			"type":"VEC3"
		},
		{
			"bufferView":5,
			"componentType":5126,
			"count":66996,
			"type":"VEC2"
		},
		{
			"bufferView":6,
			"componentType":5126,
			"count":66996,
			"type":"VEC3"
		},
		{
			"bufferView":7,
			"componentType":5125,
			"count":393216,
			"type":"SCALAR"
		},
		{
			"bufferView":8,
			"componentType":5126,
			"count":71125,
			"max":[
				47.404029846191406,
				0,
				37.054954528808594
			],
			"min":[
				-1.9498467445373535,
				0,
				3.107395648956299
			],
			"type":"VEC3"
		},
		{
			"bufferView":9,
			"componentType":5126,
			"count":71125,
			"type":"VEC2"
		},
		{
			"bufferView":10,
			"componentType":5126,
			"count":71125,
			"type":"VEC3"
		},
		{
			"bufferView":11,
			"componentType":5125,
			"count":417792,
			"type":"SCALAR"
		},
		{
			"bufferView":12,
			"componentType":5126,
			"count":146493,
			"max":[
				43.631126403808594,
				0,
				17.61882209777832
			],
			"min":[
				12.055619239807129,
				0,
				-31.896480560302734
			],
			"type":"VEC3"
		},
		{
			"bufferView":13,
			"componentType":5126,
			"count":146493,
			"type":"VEC2"
		},
		{
			"bufferView":14,
			"componentType":5126,
			"count":146493,
			"type":"VEC3"
		},
		{
			"bufferView":15,
			"componentType":5125,
			"count":860160,
			"type":"SCALAR"
		},
		{
			"bufferView":16,
			"componentType":5126,
			"count":4,
			"max":[
				3.8339383602142334,
				0,
				1.5177979469299316
			],
			"min":[
				-0.7098264694213867,
				0,
				-59.20175552368164
			],
			"type":"VEC3"
		},
		{
			"bufferView":17,
			"componentType":5126,
			"count":4,
			"type":"VEC2"
		},
		{
			"bufferView":18,
			"componentType":5126,
			"count":4,
			"type":"VEC3"
		},
		{
			"bufferView":19,
			"componentType":5123,
			"count":6,
			"type":"SCALAR"
		},
		{
			"bufferView":20,
			"componentType":5126,
			"count":27,
			"max":[
				4.054018497467041,
				0,
				-2.1659867763519287
			],
			"min":[
				-0.3741130828857422,
				0,
				-47.174556732177734
			],
			"type":"VEC3"
		},
		{
			"bufferView":21,
			"componentType":5126,
			"count":27,
			"type":"VEC2"
		},
		{
			"bufferView":22,
			"componentType":5126,
			"count":27,
			"type":"VEC3"
		},
		{
			"bufferView":23,
			"componentType":5123,
			"count":96,
			"type":"SCALAR"
		},
		{
			"bufferView":24,
			"componentType":5126,
			"count":4,
			"max":[
				33.04816818237305,
				0,
				0.350510835647583
			],
			"min":[
				-1.215200662612915,
				0,
				-1.9342679977416992
			],
			"type":"VEC3"
		},
		{
			"bufferView":25,
			"componentType":5126,
			"count":4,
			"type":"VEC2"
		},
		{
			"bufferView":26,
			"componentType":5126,
			"count":4,
			"type":"VEC3"
		},
		{
			"bufferView":27,
			"componentType":5126,
			"count":192,
			"max":[
				0.9999999403953552,
				0.9999997615814209,
				0.0888528823852539
			],
			"min":[
				-0.9999999403953552,
				-1.000000238418579,
				-0.08884525299072266
			],
			"type":"VEC3"
		},
		{
			"bufferView":28,
			"componentType":5126,
			"count":192,
			"type":"VEC2"
		},
		{
			"bufferView":29,
			"componentType":5126,
			"count":192,
			"type":"VEC3"
		},
		{
			"bufferView":30,
			"componentType":5123,
			"count":372,
			"type":"SCALAR"
		},
		{
			"bufferView":31,
			"componentType":5126,
			"count":192,
			"max":[
				0.9999999403953552,
				0.9999997615814209,
				0.0888528823852539
			],
			"min":[
				-0.9999999403953552,
				-1.000000238418579,
				-0.08884525299072266
			],
			"type":"VEC3"
		},
		{
			"bufferView":32,
			"componentType":5126,
			"count":192,
			"type":"VEC2"
		},
		{
			"bufferView":33,
			"componentType":5126,
			"count":192,
			"type":"VEC3"
		},
		{
			"bufferView":34,
			"componentType":5126,
			"count":192,
			"max":[
				0.9999999403953552,
				0.9999997615814209,
				0.0888528823852539
			],
			"min":[
				-0.9999999403953552,
				-1.000000238418579,
				-0.08884525299072266
			],
			"type":"VEC3"
		},
		{
			"bufferView":35,
			"componentType":5126,
			"count":192,
			"type":"VEC2"
		},
		{
			"bufferView":36,
			"componentType":5126,
			"count":192,
			"type":"VEC3"
		},
		{
			"bufferView":37,
			"componentType":5126,
			"count":1601,
			"max":[
				1.9024293422698975,
				0,
				0.005877743009477854
			],
			"min":[
				0.019984325394034386,
				0,
				-0.2880094051361084
			],
			"type":"VEC3"
		},
		{
			"bufferView":38,
			"componentType":5126,
			"count":1601,
			"type":"VEC2"
		},
		{
			"bufferView":39,
			"componentType":5126,
			"count":1601,
			"type":"VEC3"
		},
		{
			"bufferView":40,
			"componentType":5123,
			"count":4773,
			"type":"SCALAR"
		},
		{
			"bufferView":41,
			"componentType":5126,
			"count":1722,
			"max":[
				1.9126173257827759,
				0,
				0.005877743009477854
			],
			"min":[
				0.019984325394034386,
				0,
				-0.2880094051361084
			],
			"type":"VEC3"
		},
		{
			"bufferView":42,
			"componentType":5126,
			"count":1722,
			"type":"VEC2"
		},
		{
			"bufferView":43,
			"componentType":5126,
			"count":1722,
			"type":"VEC3"
		},
		{
			"bufferView":44,
			"componentType":5123,
			"count":5136,
			"type":"SCALAR"
		},
		{
			"bufferView":45,
			"componentType":5126,
			"count":1772,
			"max":[
				1.9153603315353394,
				0,
				0.005877743009477854
			],
			"min":[
				0.019984325394034386,
				0,
				-0.2880094051361084
			],
			"type":"VEC3"
		},
		{
			"bufferView":46,
			"componentType":5126,
			"count":1772,
			"type":"VEC2"
		},
		{
			"bufferView":47,
			"componentType":5126,
			"count":1772,
			"type":"VEC3"
		},
		{
			"bufferView":48,
			"componentType":5123,
			"count":5286,
			"type":"SCALAR"
		},
		{
			"bufferView":49,
			"componentType":5126,
			"count":3569,
			"max":[
				2.358934164047241,
				0,
				0.6058778166770935
			],
			"min":[
				0.018025077879428864,
				0,
				-0.2821316421031952
			],
			"type":"VEC3"
		},
		{
			"bufferView":50,
			"componentType":5126,
			"count":3569,
			"type":"VEC2"
		},
		{
			"bufferView":51,
			"componentType":5126,
			"count":3569,
			"type":"VEC3"
		},
		{
			"bufferView":52,
			"componentType":5123,
			"count":10635,
			"type":"SCALAR"
		},
		{
			"bufferView":53,
			"componentType":5126,
			"count":3690,
			"max":[
				2.358934164047241,
				0,
				0.6058778166770935
			],
			"min":[
				0.018025077879428864,
				0,
				-0.2821316421031952
			],
			"type":"VEC3"
		},
		{
			"bufferView":54,
			"componentType":5126,
			"count":3690,
			"type":"VEC2"
		},
		{
			"bufferView":55,
			"componentType":5126,
			"count":3690,
			"type":"VEC3"
		},
		{
			"bufferView":56,
			"componentType":5123,
			"count":10998,
			"type":"SCALAR"
		},
		{
			"bufferView":57,
			"componentType":5126,
			"count":3740,
			"max":[
				2.358934164047241,
				0,
				0.6058778166770935
			],
			"min":[
				0.018025077879428864,
				0,
				-0.2821316421031952
			],
			"type":"VEC3"
		},
		{
			"bufferView":58,
			"componentType":5126,
			"count":3740,
			"type":"VEC2"
		},
		{
			"bufferView":59,
			"componentType":5126,
			"count":3740,
			"type":"VEC3"
		},
		{
			"bufferView":60,
			"componentType":5123,
			"count":11148,
			"type":"SCALAR"
		}
	],
	"bufferViews":[
		{
			"buffer":0,
			"byteLength":182400,
			"byteOffset":0,
			"target":34962
		},
		{
			"buffer":0,
			"byteLength":121600,
			"byteOffset":182400,
			"target":34962
		},
		{
			"buffer":0,
			"byteLength":182400,
			"byteOffset":304000,
			"target":34962
		},
		{
			"buffer":0,
			"byteLength":45600,
			"byteOffset":486400,
			"target":34963
		},
		{
			"buffer":0,
			"byteLength":803952,
			"byteOffset":532000,
			"target":34962
		},
		{
			"buffer":0,
			"byteLength":535968,
			"byteOffset":1335952,
			"target":34962
		},
		{
			"buffer":0,
			"byteLength":803952,
			"byteOffset":1871920,
			"target":34962
		},
		{
			"buffer":0,
			"byteLength":1572864,
			"byteOffset":2675872,
			"target":34963
		},
		{
			"buffer":0,
			"byteLength":853500,
			"byteOffset":4248736,
			"target":34962
		},
		{
			"buffer":0,
			"byteLength":569000,
			"byteOffset":5102236,
			"target":34962
		},
		{
			"buffer":0,
			"byteLength":853500,
			"byteOffset":5671236,
			"target":34962
		},
		{
			"buffer":0,
			"byteLength":1671168,
			"byteOffset":6524736,
			"target":34963
		},
		{
			"buffer":0,
			"byteLength":1757916,
			"byteOffset":8195904,
			"target":34962
		},
		{
			"buffer":0,
			"byteLength":1171944,
			"byteOffset":9953820,
			"target":34962
		},
		{
			"buffer":0,
			"byteLength":1757916,
			"byteOffset":11125764,
			"target":34962
		},
		{
			"buffer":0,
			"byteLength":3440640,
			"byteOffset":12883680,
			"target":34963
		},
		{
			"buffer":0,
			"byteLength":48,
			"byteOffset":16324320,
			"target":34962
		},
		{
			"buffer":0,
			"byteLength":32,
			"byteOffset":16324368,
			"target":34962
		},
		{
			"buffer":0,
			"byteLength":48,
			"byteOffset":16324400,
			"target":34962
		},
		{
			"buffer":0,
			"byteLength":12,
			"byteOffset":16324448,
			"target":34963
		},
		{
			"buffer":0,
			"byteLength":324,
			"byteOffset":16324460,
			"target":34962
		},
		{
			"buffer":0,
			"byteLength":216,
			"byteOffset":16324784,
			"target":34962
		},
		{
			"buffer":0,
			"byteLength":324,
			"byteOffset":16325000,
			"target":34962
		},
		{
			"buffer":0,
			"byteLength":192,
			"byteOffset":16325324,
			"target":34963
		},
		{
			"buffer":0,
			"byteLength":48,
			"byteOffset":16325516,
			"target":34962
		},
		{
			"buffer":0,
			"byteLength":32,
			"byteOffset":16325564,
			"target":34962
		},
		{
			"buffer":0,
			"byteLength":48,
			"byteOffset":16325596,
			"target":34962
		},
		{
			"buffer":0,
			"byteLength":2304,
			"byteOffset":16325644,
			"target":34962
		},
		{
			"buffer":0,
			"byteLength":1536,
			"byteOffset":16327948,
			"target":34962
		},
		{
			"buffer":0,
			"byteLength":2304,
			"byteOffset":16329484,
			"target":34962
		},
		{
			"buffer":0,
			"byteLength":744,
			"byteOffset":16331788,
			"target":34963
		},
		{
			"buffer":0,
			"byteLength":2304,
			"byteOffset":16332532,
			"target":34962
		},
		{
			"buffer":0,
			"byteLength":1536,
			"byteOffset":16334836,
			"target":34962
		},
		{
			"buffer":0,
			"byteLength":2304,
			"byteOffset":16336372,
			"target":34962
		},
		{
			"buffer":0,
			"byteLength":2304,
			"byteOffset":16338676,
			"target":34962
		},
		{
			"buffer":0,
			"byteLength":1536,
			"byteOffset":16340980,
			"target":34962
		},
		{
			"buffer":0,
			"byteLength":2304,
			"byteOffset":16342516,
			"target":34962
		},
		{
			"buffer":0,
			"byteLength":19212,
			"byteOffset":16344820,
			"target":34962
		},
		{
			"buffer":0,
			"byteLength":12808,
			"byteOffset":16364032,
			"target":34962
		},
		{
			"buffer":0,
			"byteLength":19212,
			"byteOffset":16376840,
			"target":34962
		},
		{
			"buffer":0,
			"byteLength":9546,
			"byteOffset":16396052,
			"target":34963
		},
		{
			"buffer":0,
			"byteLength":20664,
			"byteOffset":16405600,
			"target":34962
		},
		{
			"buffer":0,
			"byteLength":13776,
			"byteOffset":16426264,
			"target":34962
		},
		{
			"buffer":0,
			"byteLength":20664,
			"byteOffset":16440040,
			"target":34962
		},
		{
			"buffer":0,
			"byteLength":10272,
			"byteOffset":16460704,
			"target":34963
		},
		{
			"buffer":0,
			"byteLength":21264,
			"byteOffset":16470976,
			"target":34962
		},
		{
			"buffer":0,
			"byteLength":14176,
			"byteOffset":16492240,
			"target":34962
		},
		{
			"buffer":0,
			"byteLength":21264,
			"byteOffset":16506416,
			"target":34962
		},
		{
			"buffer":0,
			"byteLength":10572,
			"byteOffset":16527680,
			"target":34963
		},
		{
			"buffer":0,
			"byteLength":42828,
			"byteOffset":16538252,
			"target":34962
		},
		{
			"buffer":0,
			"byteLength":28552,
			"byteOffset":16581080,
			"target":34962
		},
		{
			"buffer":0,
			"byteLength":42828,
			"byteOffset":16609632,
			"target":34962
		},
		{
			"buffer":0,
			"byteLength":21270,
			"byteOffset":16652460,
			"target":34963
		},
		{
			"buffer":0,
			"byteLength":44280,
			"byteOffset":16673732,
			"target":34962
		},
		{
			"buffer":0,
			"byteLength":29520,
			"byteOffset":16718012,
			"target":34962
		},
		{
			"buffer":0,
			"byteLength":44280,
			"byteOffset":16747532,
			"target":34962
		},
		{
			"buffer":0,
			"byteLength":21996,
			"byteOffset":16791812,
			"target":34963
		},
		{
			"buffer":0,
			"byteLength":44880,
			"byteOffset":16813808,
			"target":34962
		},
		{
			"buffer":0,
			"byteLength":29920,
			"byteOffset":16858688,
			"target":34962
		},
		{
			"buffer":0,
			"byteLength":44880,
			"byteOffset":16888608,
			"target":34962
		},
		{
			"buffer":0,
			"byteLength":22296,
			"byteOffset":16933488,
			"target":34963
		}
	],
	"buffers":[
		{
			"byteLength":16955784,
			"uri":"maptest9.bin"
		}
	]
}
