<svg id="Layer_1" xmlns="http://www.w3.org/2000/svg" version="1.1" viewBox="0 0 160.3 237.1">
  
  <defs>
    <style>
      .st0 {
        fill: none;
        stroke: currentColor;
        stroke-miterlimit: 10;
      }
    </style>
  </defs>
  <path class="st0" d="M159.2,93.7l-.4,1.2c-.2-.2-.3-.2-.4-.2,0,0-.2,0-.2.4,0,1.1-1.5,3.8-2.6,4.2-2,1.2-3.4,3-4.1,5.2-.4,1-.8,1.9-1.1,1.9s-.3-.1-.5-.5c-1-2.8-1-5.9,0-8.7l.2-.7c1.1-2.9,2.8-5.5,4.9-7.8l.7-.9c1-2.1,1.4-4.3,1.2-6.6h-.2c-.1.2-.2.3-.2.4-1.9,3.4-4.5,6.4-7.7,8.6-1.1,1.1-2.1,2.3-3,3.6-.4.6-.9,1.2-1.4,1.8-.9-3.9-.2-8.1,2-11.5l.5-.9c1.6-3.7,4.1-7,7.2-9.6v-.4c-.2-.2-.5,0-1.1.2l-.3.2c-4.5,2-8.1,5.5-10.5,9.8-2.1,4.2-3.2,8.8-3.3,13.5,0,1.6.2,3.2.6,4.7,1.5,4.5,2.8,9.1,3.8,13.8.4,4.1.5,8.2.5,12.3v3.4l-1,3.3c-.9,2.7-2.5,5-4.7,6.9-2.5,2.6-5.5,4.5-8.9,5.7-1.2.2-2.5.2-3.6-.2,0-4.9-8.4-16.3-12.7-20.1-4.3-3.9-8.9-7.3-13.8-10.2-6.1-3.7-12.8-19.2-12.8-19.3l-.6-2.1s-.3-4.2-.4-5.3c.2,0,.5.3.5.3l2.1,1.2,2.4.9,3.1.6,1.7.9,1.6,1,2.5,1.8,2.5,1.3,3.1.2c0,0-3.5-1.8-3.5-1.8l-1.2-2.2-1.5-2.1-1.8-1.1-2.2-.3-.7-.6.6-.3,2.4.3,2.1,1.5,2.3,1.8,2.2.9h.3c0,0-.9-2.4-.9-2.4l-1.8-1.7-2.6-2.3-2.1-1.1-2.2-.8-2.2-1.5v-.3l3.2,1.3,2.8.8,2.3.9,3.4,1.6,2.8.6,3.4-.6,3.3-2.3.6-1.4v-.3c0,0-.9.4-.9.4l-2.9,1.5-2,.4-2.3-.5-1.8-1.8-2.6-2.6-2.4-1.2-2.8-.5-1.7-.9v-.9l3.5.3,3.8-.3,2.2.4,2.2.9,2.2.3h.4l-2.5-2.3-2.5-1.8-2.1-.8-3.5-.3v-.9l1.6-.3,2.6.6,2.5,1.5,2.7.9,3.9-.6h.2l-1.1-1.5-2-.6-1.6-1.2-2.3-1.7-1.8-.6-2.8-.5-1.4-1.3c0-.2.1-.4.2-.6l1.5.4,1.9.9,2.7.8-.6-1.2-1-1.1-.9-1.1h.4l2.9,1.4,2.2.8,1.7,1.6,3.3,1.9.3.2-.6-1.6-1.8-2.3-1.5-2.5-2.7-2.7-3.4-1.8-1.3-1.5-2.3-2.4s-.2-.8-.4-1.3l2.3.8,2.6.8,1.9,1.2,1.6,1.9,2.5,1.1,6.4.8h.4l-1.7-1.8-3.4-1.5-2-1.5-1.1-2.1-1.2-2.1-1.9-1.8-2.4-1.4-2.3-1.9s-.6-1.2-.9-2c.6.6,1.6,1.6,1.6,1.6l3.1,2.7,2.4,1.1,2,1.6,2.4,2.4,3.8.6h.5l-3.7-3.1-.8-2.7-2-1.9-1-1.2-1-3.1-2.1-2.2s-3.4-3.1-3.4-3.2c0,0,0-.5-.2-.8l.6.3,3.1,1.8,3.7,1.1,3.8.9,4.4.7-1-2.1-2.3-1-2-1.2-2.5-1.1-2.2-.9s-1.4-1.9-2.2-2.9l1.9,1.3,2,.2h6l2.4,1.3,2.1,2.2.3.3-.3-2.5-1.3-1.7-3.6-2-3-1-4.3-.8-.8-1-3.1-2.9-1.5-.8-.8-.8h1.6l2.4,1.5,3.3,1.1,4.1.6,1.5,1.8,2.2,1.4,2.5.5h.3l-5.2-6.4-2.5-1.4-2.9-.9-2.6-3-3.3-2-2.3-.6c.1-.2.6-1,.6-1l2.6-1.1,3.8-.7c.2-.3.3-.7.4-1-.5-.4-1.1-.8-1.7-1.2l-1.9-.6c-.4.2-.8.4-1.1.6h-3.2c0,.1-3.8-.8-3.8-.8l-3.9-3.3-1.8-.9-6.5-.8-1.5-2.3-2.1-2.3-2.6-2.4v.2l-1,2-.9,1.3c0,.2,0,1.5,0,1.5l.9,1-.3,1.4h-3.5l-.5-.2c.4-.1,1.7-.8,1.7-.8,0-.6-.2-1.2-.3-1.7l-3.6-4.2-.2-.2v.3l-.4,1.7-1.2,2.7c0,0,2.4,1.3,2.4,1.3,0,0,.6.4,1,.6l-1.8-.8-2.2-.8h-5.2c0,.2-1,1.6-1,1.6v.2c0,0,2.2.3,2.2.3,0,0,.3.2.5.3l-.6.5-3.1-.2-2.2.9h-.2c0,0,1.1.8,1.1.8l4.8.2,3.5.9.7,1s.5.7.6.9l-1.5.8-4.2,1.8-8.8,5-5.8.9-2.3,1.3-1.8,2.5-1,3.1c0,5.2,0,5.4.2,5.4.8.5,1.9.7,2.9.3,1.8-.8,3.7-1.4,5.6-1.8.7,0,1.1.1,1.1.4s0,.7-.7.9h-.3c-2.6.8-5.2,1.6-5.1,2.6l.5.8c1.8.6,3.8.7,5.7,0l1.6-.5c1.4-.5,2.9-.8,4.4-.8.8,0,1.6.4,2.3.8,1.3.7,2.8,1.2,4.3,1.3,1.9,0,3.8.4,5.5,1,.3,1.1.3,2.2,0,3.2l-.2,1c-.9,8.1-9.9,17.3-14.3,21.7-.8.7-1.5,1.5-2.1,2.3l-.5,1.1c-.3,1.1-1.1,2.1-2.2,2.6-1.7,1-3.3,2.1-4.8,3.3-2.4,2.1-5.1,3.9-8.1,5.1-3.7-1.7-7.2-3.8-10.5-6.3-8.1-7.9-11.5-6.3-13.5-5.3h-.3c-2.4,1.2-5,8.1-5.2,9.6l-1,4.2-.8,3.1c-.2,1-1.2,3.6-2.2,6.1l-2,5.4c-.5,1.5-1.1,3-1.7,4.5l-.9,2.1c-.7,5.8-.6,11.6.4,17.3h.2c1,0,3.3-2.4,4.4-3.5l.2-.3c1-1.3,1.7-2.8,1.9-4.4,0-1.3-.3-2.5-.7-3.7-1-3.5-1.3-7.2-.6-10.9v-.9c.5-1.2,1.2-2.2,2.1-3l1.2-1.4c.5-.7,1.2-1.1,2-1.4l1-.6v-.2c1.2-.9,2-2.1,2.5-3.5l1-4.3.2-1.1c0-.2.2-.4.4-.4.5,0,1,.2,1.2.6l7.2,8.4c1.4,1.1,2.7,2.4,3.7,3.9-2.3-.2-4.6-.6-6.9-1.2-6.9-2-10-1.7-12.5,1.4-2.8,3.5-1.9,14.2-1.3,15.3.6,1.2,3,14,3.2,15.8,0,1.9.6,3.7,1.5,5.4l.2.2c1.6,1.4,2.8,3.3,3.5,5.3,1.5,3.8,4.1,7.1,7.5,9.5.3,0,.6,0,.9-.2,1.5-1.1,2.2-6.2,2.2-8.4.1-2-.6-4-1.9-5.5l-.4-.6c-.8-.9-1.8-1.5-3-1.7-.4,0-.9-.2-.9-.3s-.1-4-1.4-4.8c-1.2-1.8-1.9-3.8-2.1-5.9-.2-2.2-.7-4.4-1.4-6.5-.9-2.1-1.3-4.4-1.1-6.6,0-.7.6-1.3,1.4-1.3.8-.2,1.6,0,2.2.6,3.1,2.4,6.5,4.5,10.1,6.1,2,1,3.8,2.3,5.4,3.9,1,.9,2,1.7,3.1,2.3,1.9.5,3.8.6,5.7.5.8,0,1.6,0,2.5.1-.9.4-.8,1.9-.8,2.4.9,6.3,23.7,23.6,25.5,24.5,3.7,2.9,7,6.2,10,9.8.7.9,1.1,1.9,1.2,3-.1,1.4.4,2.9,1.3,3.9.8,1,2.1,1.7,3.4,1.8,1,0,1.7-.9,2.2-1.6h.1c2.1-2.6,3.4-5.6,3.6-8.8.3-4.2,2.2-5.9,2.8-6,.3,0,.5,0,.6.2,0,.2,0,.5-.4.8-1,1.3-1.7,2.8-1.9,4.5l-.2,2c0,1.8-.5,3.6-1.6,4.9-3.3,4.4-5.2,9.8-5.5,15.3.2,6.6,2.2,12.9,5.8,18.4l.3.6,1.1,1.9c1.3,1.7,2.3,3.7,3,5.7-.2,1.5-.9,2.9-2,4-3,3.8-6.2,7.4-9.7,10.8-1-.1-2,.3-2.8,1l-1.2.9c-.8.5-1.5,1.3-1.7,2.2-.1.5-.5,1-.9,1.3l-.5.3s-.4.4-3.2,3.3c-3,2.6-4.6,6.5-4.2,10.5,0,1.1,1.1,1.5,4,1.7,3.9-.8,7.4-2.9,9.8-6v-.6c.3-1.4.8-3.7,1.5-4,1.4-1,2.6-2.2,3.6-3.5l.2-.2c.5-.6.8-1.3.9-2.1,0-.5.3-1.1.6-1.5.3-.3.7-.6,1.1-.8,1.3-.5,2.3-1.6,2.8-3,2.5-3.1,5.6-5.8,9-7.8,1.2-.8,2.4-1.7,3.5-2.7.5-.9.8-1.9.7-2.9,0-1.4-.4-2.8-1.3-3.8-1.3-1.8-2.3-3.8-2.9-6,0-.5,0-1.3-.1-3v-.2c0-4.2,6.3-8.4,9-10.2l1.2-.9c9.9-8.7,11.8-15.3,12.1-17.2l.2-2.2c0-1.5,0-3,1-3.1.5,0,1,.2,1.3.6.3.3.5.8.3,1.3-.4,1.2-.6,13.5-.6,14s1.1,1.3,1.1,1.3l.2.2v-.3c0,0,.6-3.5.6-4.7.4-2.5,1.3-4.9,2.6-7.1.4,1.6.6,3.2.6,4.8,0,1.9-.3,3.7-1.3,5.3-1.4,2-2.6,4.3-3.4,6.6l-.7,1.6c0,.2,0,.5,0,.7,0,1.9.5,3.8,1.3,5.5.1.1.2.1.3.1,0,0,.3-.3.3-1.6.2-3.3,1.7-6.4,4.2-8.6,3.2-3.3,4.9-7.8,4.5-12.3,0-1.9-.2-3.7-.5-5.6,0,0-1.7-2.5-1.8-2.6,0,0,.5-.4.7-.5.2.2,1.8,2.4,1.8,2.4.5.6.8,1.3,1,2,0,1.9.2,3.8.7,5.6v.3c.7,2,1.4,4,2.3,5.9l.2.5v-.5c.2-1.4.2-2.8,0-4.2,0-1.3,0-2.6.3-3.9l.3-3.3c.2-2.1-.3-4.2-1.3-6l-.5-.7c-.2-.2-.3-.4-.4-.7l.4-.2c5.7-1.9,10.3-6.1,12.8-11.5,1.1-3.1,1.7-6.3,1.6-9.5,0-3.9-.3-7.7-1.2-11.5-.5-2.2-.6-4.4-.2-6.6l.2-4c.2-2.5,1.2-4.9,2.9-6.8l1.7-2.6c.8-1.4.9-3.2,0-4.6Z"/>
  <path class="st0" d="M79.1,195.1h0l3.4,1.6c1.1.5,2.5.6,3.7.2,1.2-1,2.2-2.3,2.7-3.8s0-1.2-.3-1.7c-2.1-4-3.6-8.3-4.5-12.7-.2-2.9,0-5.8.4-8.6.2-1.6.3-3.3.3-4.9-.2-.7-1.2-1.3-2.4-2.1l-1.9-1.3c-.8-.8-1.2-2-1.1-3.1l-.2-1.8c-2.8-4.2-6.4-7.8-10.5-10.7-2-.1-2.5,2-2.6,3.3.3,2.4.9,4.8,1.6,7.1l.9,3.6c2.2,7.1,5.4,13.8,9.5,19.9l1.2,2.1c.5,1.2.3,2.2-.6,2.7-4.2.2-8.4-.2-12.5-1.2-1.9-.5-3.7-1.2-5.5-1.9-1.8-.8-3.6-1.4-5.5-1.8-.9,0-1.8,0-2.6.5l-.9.2-.8-.3c-2.6-1.1-5.4-1.7-8.3-1.8-7.7-.7-8.3.8-8.6,1.7-.4,1.1,4.3,6.1,5.2,6.8,2,1.3,4.3,2,6.6,1.8,2.3-.4,4.5-.7,6.8-.8l.8.5.7.5c2.1.3,4.2.5,6.3.6,1.5,0,5.4.9,8.3,1.5l3.2.7c2.5.8,4.9,1.9,7.1,3.2Z"/>
</svg>
