<svg id="Layer_1" xmlns="http://www.w3.org/2000/svg" version="1.1" viewBox="0 0 675.1 260">
  
  <defs>
    <style>
      .st0 {
        fill: none;
        stroke: currentColor;
        stroke-miterlimit: 10;
        stroke-width: 2px;
      }
    </style>
  </defs>
  <path class="st0" d="M269.5,182.2s-3.1,1.7-3.9,5.5c-.2,1.4.2,1.8,1.4,1.9,0,0,4.2,0,5.2-.4,0,0,4.9-.8,3.8-7,0,0-.7-3.5-6.5,0Z"/>
  <path class="st0" d="M286.7,146.6s-6.6-7.9-7.9-10.3c0,0-2.8-3.5-5.8,1.1,0,0-.4,1.4-.9,2.4-1.5,2.9-2.9,5.8-4.4,8.6,0,0-.7,1.2-.7,2.3,0,0,3.1.7,6.1-5.2,0,0,1.1-2.1,2-2,0,0,.5,0,1.2,1.2,0,0,4.3,4.7,5.4,5.6,3,2.3,2.7,8.8,2.6,11.7,0,0,5.4-.9,3.9-11.7,0,0-.1-1.9-1.6-3.6h0Z"/>
  <path class="st0" d="M394.2,143.5c.9,0,2,2,2,2,3.1,5.9,6.1,5.2,6.1,5.2,0-1.1-.7-2.3-.7-2.3-1.5-2.9-2.9-5.8-4.4-8.6-.3-.8-.6-1.6-.9-2.4-3-4.6-5.7-1.1-5.7-1.1-1.2,2.4-7.9,10.3-7.9,10.3-.9,1-1.4,2.3-1.6,3.6-1.5,10.8,3.9,11.7,3.9,11.7-.1-2.9-.4-9.4,2.6-11.7,1.1-.9,5.4-5.6,5.4-5.6.7-1.1,1.2-1.2,1.2-1.2h0Z"/>
  <path class="st0" d="M223.7,91.6c-.9,1.6-1.3,3.2-.4,4.9h0s5.5,6.5,6.2,20.1c0,0,5.2-14.8-1.9-24.7,0,0-1.9-3.4-4-.3h0Z"/>
  <path d="M456.6,51.3c-.8-.2-1.7-.3-2.5-.4h.2c.7,0,1.4.2,2.1.4h.2,0Z"/>
  <path d="M342.5,2c.6.1,1.3.1,1.9.1,38.6,2.4,72.6,21.8,96.1,51.2,3.1-1.1,6.5-1.9,10-2.1h4.1l2.1.3c0,.1.2.1.2.1h.8c0,0,.4,0,.4,0h0c0,.1.4.1.4.1h0c0,0,.4,0,.4,0h0c0,.1.4.1.4.1h0c0,.1.4.1.4.1v.2h.8c0,0,.4.3.4.3l.4.2c.7.3,1.3.6,2,1l.4.2.4.2.4.2.4.2.4.3c7.1,4.9,11.3,7,14.8,8.4,1.6.6,3,1.1,4.6,1.6l.8.3,3.3.8c1.8.3,3.8.8,6,1.5,5.4,1.8,12,5.2,18.3,13.7.5.6.7.8,4.2,1.1,9.1.7,18.9,2.3,29.1,13.8,3.4,3.9,8.3,5.8,16.2,6.4,9.2.7,18.7,2.4,25.8,9.5,6,6,15.9,12.2,21.1,14,3.6,1.3,6.9,1.8,9.7,1.8,5.9,0,9.9-2.3,11.8-5.4.6-1,1-2.1,1.2-3.2.2-.6.2-1.2.2-1.8,0-5.1-3.3-11-9.4-16.3l-.8-.6-3.4-2.8c-7.3-5.7-12.5-10.2-13.8-15.2-.4-1.3-.5-.5-.5-4.3s1-8.2,3.6-11.9c2.3-3.2,6.8-7.2,14.9-8,11.3-1,20.4-7.5,21.7-9.4,1.1-1.5,2.5-2.7,4.1-2.7,1.5,0,3.2,1.1,5,4,.7,2.9,1.1,2.8,1.1,8.4s-1.6,10.6-4.6,14.5c-3.2,4.2-9.8,9.1-22.5,9.1s-.7.2-1,.3c.7.8,2.2,2.4,6.5,4.7,9.3,5.2,18.1,16.2,18.1,31.1s-1.4,7.2-2.5,10.3c-1.2,3.3-3,6.3-5.4,8.8-.3.3-.6.7-1,1-4.8,4.4-12.4,8-24.6,8s-2.7,0-4.1-.1c-1.5-.1-3.1-.2-4.6-.4-.3,7.4-2.4,16.2-5.2,20.6-.8,1.4-1,2.3-1,2.8v.4c0,0,6.5,3.8,6.5,3.8l1,.5.7.3c.1-.1,2.2-.1,2.2-.1h.4c1.6-.2,3.4-.6,5.3-.6,2.9,0,5.8,1,7.4,5.5.7,1.9,1.1,3.6,1.5,5.1.8,3,1.4,5.3,4.1,7.3,0,0,1.3-1.2,2.8-2.5,1.2-1,2.3-2,3.4-3.1.8-.8,1.8-1.1,2.9-1.1s3.3.6,4.8,1.1c2.5.9,5.6,3.1,7.8,4.3,2.2,1.3,3.4,2.8,4,4.7.6,1.8,2.2,3.1,4.5,4.3,2.3,1.3,5.5,5.4,5.5,10.9s0,1.5.3,2.3c.2.5.4,1,.7,1.6l2.8.4c3.1,6.4.6,9.6-1.2,10.9-1.9,1.4-4.7,2.2-7.7,2.2s-2.1,0-3.1-.3v1l-5.9-.8c-.4,0-.9,0-1.3,0-2,0-4.3.5-5.8.9h-.4c-.8.2-1.6.2-2.4.2-3.7,0-7.9-1.7-10.4-5.8-.1-.2-.2-.4-.3-.6-1.5-2.8-4-5.4-5.2-6.1-1.5.4-3.5.9-6,.9s-1.2,0-1.8,0c-3-.3-6.5-1.5-10.1-4.4-.6-.5-1.2-1-1.8-1.6-4.4-4.4-9.8-5.9-14-5.9s-1.7,0-2.5.2l-2.6.5c-2.6.4-5.5,1-8.5,1s-6.5-.6-9.7-2.6c-1.5-.9-3.7-1.9-5.9-2.8-5.6-2.4-11.4-4.9-12.2-10.2,0-.9-1.2-2.6-2-4-.8-1.3-1.6-2.6-2.2-4-.6-1.3-1.1-2.8-1.1-4.3-1.8.5-3.7.6-5.6.6s-1.3-.2-2-.2l-2.4-.4c-3.1-.5-8.7-1.4-12.5-1.4s-2.3.1-2.9.3c-3.9,1.4-13.7,2.3-20.7,2.3s-5.1-.1-6.5-.5c0,0-1.8-.4-3.4-.7-1.5,1.6-3.3,3.2-5.1,4.5.8,0,1.6,0,2.3,0s2,0,2.9,0c1.2,0,2.3,0,3.2.3l4.3,1.1c.8-.2,2.2-.3,3.7-.3,1,0,2.1,0,2.9.1l5,.4,5.8.6c2.8.6,5.7,1.8,5.2,7.2-.2,1.6-1.1,4-2.5,5.4-.7.9-3.7,5.2-4.4,6.6l-.2.4c-1.2,2.5-2.9,4.8-8,4.8h-1.9c-.2.4-.6,1.2-.6,1.2-1.1,2.6-2.8,6.2-5.9,8.3l-.8.6c-1.9,1.3-4.7,3.3-8.6,3.3s-2.9-.2-4.6-.9l-2.2-.8c-5.6-2-14.1-5.1-18.4-7.4l-.6-.3c-3.3-1.8-4.5-2.4-5.5-2.4s-.5,0-.8,0h-.8c-.9.1-2,.3-3.2.3-3,0-6.8-.9-9.6-5.7l-.4-.6c-18.9,25.9-47.3,44.5-80.1,50.6h-.1c-1.1.2-2.3.4-3.4.6h-.4l-1.5.2c-.6.1-1.2.2-1.8.4h-1.1s-1.7.2-1.7.3h-1.2c-.8,0-1.6,0-2.4.2h-.7c-.8,0-1.5.2-2.2.2h-.8c-.8.1-1.7.1-2.5.1h-7.1c-.8,0-1.6-.1-2.4-.1h-1c-.6,0-1.3,0-2-.2h-.9c-.8,0-1.6-.1-2.4-.3h-1.2s-1.6-.2-1.6-.3h-.9c-.9-.1-1.7-.2-2.5-.5h-1l-1.8-.3-.9-.2c-.7-.1-1.4-.3-2.1-.4l-1.5-.3-.8-.2c-1-.3-2.1-.5-3.1-.8h-.3l-1.6-.4-.8-.2c-1-.3-1.9-.5-2.9-.9h-.3c-28.8-8.3-53.3-26.4-69.9-50.4l-2.2,3.3c-2.7,4.6-6.4,5.7-9.4,5.7s-2.5-.2-3.4-.4h-.8c-.2,0-.4,0-.6,0-1.2,0-2.4.6-5.7,2.4l-.6.3c-4.3,2.3-12.8,5.4-18.4,7.4l-2.2.8c-1.7.6-3.2.9-4.6.9-3.9,0-6.6-2-8.5-3.3l-.9-.6c-3.1-2.1-4.7-5.7-5.9-8.3,0,0-.4-.8-.6-1.2h-1.9c-5,0-6.7-2.3-7.9-4.8l-.2-.4c-.7-1.4-3.7-5.7-4.5-6.6-1.4-1.4-2.3-3.7-2.5-5.4-.5-5.4,2.5-6.6,5.2-7.2l5.8-.6,5.1-.4c.8,0,1.8-.1,2.8-.1,1.5,0,2.9,0,3.8.3l4.3-1.1c.9-.2,2-.3,3.2-.3s1.9,0,2.9,0,1.5,0,2.3,0c-1.8-1.4-3.5-2.9-5.1-4.5-1.7.3-3.4.7-3.4.7-1.4.3-3.8.5-6.8.5-7,0-16.6-.9-20.4-2.3-.7-.2-1.7-.3-2.9-.3-3.8,0-9.4.9-12.5,1.4l-2.5.4c-.9.1-1.8.2-2.7.2-1.6,0-3.2-.2-4.8-.6-.1,3.1-1.8,5.9-3.2,8.3-.8,1.3-1.9,3.1-2,4-.8,5.3-6.6,7.8-12.2,10.2-2.2.9-4.4,1.9-5.9,2.8-3.2,2-6.5,2.6-9.8,2.6s-5.9-.5-8.4-1l-2.6-.5c-.7,0-1.5-.1-2.3-.1-4.3,0-9.9,1.5-14.2,5.8-4.9,4.9-9.7,6.1-13.6,6.1s-4.6-.5-6-.9c-1.2.7-3.6,3.3-5.2,6.1-2.5,4.5-6.8,6.4-10.7,6.4s-1.7,0-2.5-.3h-.4c-1.5-.3-3.7-.8-5.7-.8s-.9,0-1.4,0l-5.9.8v-1c-1,.2-2,.3-3,.3-3.1,0-6-.8-7.9-2.2-1.8-1.4-4.3-4.6-1.1-10.9.2-.4.4-.5.5-.5,0,0,.1,0,.2,0,.2,0,.3-.3.3-3.5,0-5.5,3.2-9.6,5.4-10.9,2.3-1.2,3.9-2.4,4.5-4.3.6-1.9,1.8-3.5,4-4.7,2.2-1.2,5.3-3.4,7.8-4.3,1.5-.5,3.2-1.1,4.8-1.1,1.1,0,2.2.3,3,1.1,1.9,1.9,6.2,5.6,6.2,5.6,3.9-3,3.6-6.6,5.6-12.4,1.6-4.4,4.5-5.4,7.4-5.4,1.9,0,3.8.4,5.3.6h2.7c0,0,.7-.2.7-.2l1-.5,6.5-3.8c0,0,0,0,0-.4s0-1.4-1-2.8c-2.8-4.5-4.8-13.2-5.2-20.6-1,0-2,.3-3,.3-1.9.1-3.7.2-5.5.2-12.3,0-20-3.5-24.7-8-2.9-2.6-5.1-6-6.4-9.7-1.1-3.1-2.5-7-2.5-10.3.1-14.9,8.7-26,18.1-31.1,4.3-2.3,5.9-3.9,6.5-4.7-.3-.2-.7-.3-1-.3-12.8,0-19.3-4.9-22.5-9.1-3.1-3.9-4.6-9-4.6-14.5s.4-5.5,1.1-8.4c1.8-2.9,3.5-4,5-4,1.6,0,3,1.2,4.1,2.7,1.4,1.9,10.5,8.4,21.7,9.4,8.2.8,12.6,4.8,14.9,8,2.7,3.7,3.7,8.1,3.7,11.9s-.2,3-.5,4.3c-1.2,5-6.5,9.5-13.8,15.2l-4.2,3.4c-6.1,5.4-9.4,11.3-9.4,16.3s.2,2.5.6,3.6c0,.4.4.9.6,1.3,1.8,3.1,5.9,5.4,11.8,5.4s6.1-.5,9.7-1.8c5.1-1.8,15-8,21.1-14,7.1-7.1,16.6-8.8,25.8-9.5,8-.6,12.9-2.5,16.3-6.4,10.1-11.5,19.9-13.1,29.1-13.8,3.6-.2,3.7-.5,4.2-1.1,5.1-6.8,10.2-10.3,14.9-12.4,3.5-1.6,6.7-2.3,9.4-2.9l3.2-.8.8-.3c5.1-1.6,9-3,19.4-10l.4-.3.4-.3.4-.3.4-.3.4-.2.4-.2.4-.2.4-.2.4-.2.4-.2.4-.2.4-.2.5-.2h.4c0-.1.4-.2.4-.2h.4c0-.1.4-.2.4-.2h.4c0-.1.4-.1.4-.1h10.4c.6.1,1.2.3,1.8.4h.4c.6.3,1.2.4,1.8.6h.3c1.2.4,2.3.8,3.4,1.4h.3l.4.2c22.2-30.1,57.3-50.2,97.2-52,2-.1,3.9-.1,5.9-.1h5.8M42.6,77.6c.2,0,.4,0,.7,0,0,0,7.7,1.1,5,7.2,0,0-3.8,5.2-8.8,7.1,0,0-8.8,3.8-12.8,16.7,0,0-9,22.5,12.8,31.2,4,1.4,8.3,1.9,12.7,1.9s9.5-.6,14-1.4c0,0-1.3,12.5,4.4,23.6,0,0,4.2,6-.2,9.8l-8.7,5s-.8.7-3.5.7-.9,0-1.5,0c0,0-1.5-.4-3.2-.4s-3,.3-3.9,1.4c0,0-1.6,4.6-3.5,8.3,0,0-4,9.1-10.5,12,0,0-5.2,1.2-6.8,5.7,0,0-1.6,3.2-5,3.3,0,0-2.5.8-4.2,6.4,0,0-.9,3.6-.9,6.4,0,0,1.3-.2,2.9-.2,1.3,0,2.9.1,4.2.6,0,0,1.4.5,3.2.5s5-.7,6.7-3.8c0,0,5.1-8.8,9.4-8.8.3,0,.6,0,.9.2,0,0,2,.7,4.7.7s7-.8,10.3-4.2c0,0,7-7.7,17.3-7.7,1.1,0,2.1,0,3.3.3,0,0,5.5,1.1,10.6,1.1s5.7-.4,7.2-1.5c0,0,8.6-4.5,11.8-5.6,0,0,3.9-1.2,4.3-5.5,0,0,2.4-6.1,4.1-8.2h-6.5s-5.9,9.9-15.9,12.9c0,0-2.7,1.1-8.2,1.1s-5-.2-8.2-.7c0,0-1.6-.4-4.3-.4-5.6,0-15.9,1.6-25.3,11.8,0,0-1.3,1.9-3.3,1.9s-.8,0-1.3-.3c0,0,7.6-13,24.4-16.1,0,0,3.2-.6,6.7-.6,1.1,0,2.3,0,3.4.2,0,0,0,0,.2,0,2.1,0,23-.5,32.9-21.6,0,0-1.1-18.9,3.9-23.4,0,0,.1,0,.3,0,.5,0,1.5.3,1.2,3.1,0,0-3.5,19.9,3,23.7,0,0,2.7,2.1,7.7,2.1s1.9,0,3-.2c0,0,6.2-1.5,12.9-1.5,2,0,4.1.1,6.1.5,0,0,8.7,2.1,18.1,2.1s4.3-.1,6.3-.4c0,0-3-4.5-2.4-9.9,0,0,.9-2.2,2.2-2.2.4,0,.9.2,1.3.8,0,0,4.3,14.3,16.2,18.6,0,0,10.6,3.9,10.4,17.3,0,0-1.6,1.8-15.7,6.8,0,0-1.1.3-2.4.3s-3.6-.5-4.5-2.6c0,0-6.6-14.1-12.5-14.1s-.2,0-.2,0l-11.1.9s-3.8,1-1,4c0,0,3.8,5.1,5.3,8.1,0,0,.3,2.1,3.1,2.1s.6,0,.9,0c0,0,.6-.3,1.5-.3,1.7,0,4.4,1,6.2,7,0,0,2.6,4.6,6.9,6.1,0,0,1.2.4,3,.4s3.1-.3,4.8-1.2c0,0,18.3-6.7,21.5-9.1,0,0,2.6-1.5,5.2-1.5.6,0,1.3,0,1.9.3,0,0,.8.2,1.8.2,1.8,0,4.4-.5,5.9-3.2l5.7-8.8s1.3-2.2,1.1-4.9c0,0,.5-2.7-1.8-5.4,0,0-2.2-2.3-2.5-3.9l-4-9.5s-1.6-2.6-3.4-3.6l-5.4.4s3.7,9.5,6.4,13.4c0,0,3.7,5.6,3.5,9.2,0,0-.2,2.6-1.2,3.6,0,0-1.2,2-1.7,3,0,0-1.7,3.5-3,4.3,0,0-2.3,1.4-2.9,1.4,0,0,0,0-.1,0-.2,0-.7-.2-.2-1.5,0,0,3-6.4,2.8-9.8,0,0,.6-3.5-1.9-5.6,0,0-5.9-9.3-6.7-12.1,0,0-1.8-3.7-2.8-4.3,0,0-2-2.7,1.3-4,0,0,8.2-1.9,9.7-2.9,0,0,4-1.2,6.6-9.5,0,0,3.5-9.6,3.5-15.6,0,0,7,13.5-4.1,27.1,0,0,3.9,1.2,7.6,1.2s3.6-.3,4.8-1.2c0,0,11-1.6,13.1-2.2,0,0,.5-.1.9-.1.6,0,1.2.2.3,1.4,0,0-3.3,4.7-3.6,7.8,0,0-.2,2.5-2.2,3.9,0,0-6.3,4.3-6.8,8.5,0,0-1,3.3.7,3.3s.5,0,.7-.2c0,0,1.6-.8,3.1-.8.7,0,1.4.2,1.9.8,0,0,.3.2-1.1,1.8,0,0-3.7,3.2-4,7.6,0,0,.7,5.1,2,6.7,0,0,1.2,1.7,3.3,1.7s.7,0,1-.1c0,0,.4-.3,1.1-.3s.5,0,.9.1c0,0,1.4,0,4.8-1.2,0,0,5.2-1.4,6.9-2,0,0,6.1-2.2,9.5-2.2.1,0,.3,0,.4,0,0,0,.4,0,1.1,0,.9,0,2.2,0,3.7.3,0,0,.4,0,1.2,0,2.5,0,8.4-.5,12.6-5.2,0,0,1.9-1.4,3.5-1.4.8,0,1.6.4,2.1,1.4,0,0,7.9,10.6,20.9,10.6s3.6-.2,5.5-.6c0,0-13-5.3-16.4-12.6,0,0-.5-6.2-7.3-14.8,0,0-2-2.9,0-3.6,0,0,.2-.1.6-.1.6,0,1.6.3,3.1,1.8,0,0,6.5,6.2,8.8,11.9l.6-.4s5.9,8.9,14.8,8.9,3.1-.3,4.8-.8c0,0-9.1-3.5-13.4-10,0,0-2.6-8.8-11.5-15.4,0,0-.4-9.9-4.5-15.5,0,0-2.1-9.3-2.7-11.5,0,0-2.2-8.2-2.2-10.5,0,0,.7-10.7-6.2-19,0,0-4.6-8.9-11.8-15.1,0,0-5.4-6.8-9.5-10.9,0,0-5.3-6.3-17-14.5,0,0-5.3-3.9-9.2-8,0,0-10.5-7.5-21.9-7.5s-9.3,1.2-13.6,4.6c0,0-10.3,7-18.9,9.2,0,0-17.7,2.1-25.2,14.3,0,0-.7,2.2-7.8,3.1,0,0-.6,0-1.7,0-4.3,0-16.2,1.2-25.4,13.6,0,0-5.3,5.2-15.9,6.5,0,0-.7,0-2,0-4.9,0-17.6,1.1-26.5,11.6,0,0-16.1,14.1-31.3,14.1s-9.7-1.5-13.9-5.4c0,0-8.7-8.3,1.3-23.3,0,0,6.4-7.7,17.2-15.7,0,0,8.8-6.2,4.8-15.8,0,0-2.1-9.3-15.3-9.5,0,0-16.5-3.2-23.2-11.5,0,0-7.4,25.8,21.1,25.8M620.3,133.5c-15.2,0-31.3-14.1-31.3-14.1-8.9-10.5-21.4-11.6-26.4-11.6s-2.1,0-2.1,0c-10.6-1.3-15.9-6.5-15.9-6.5-9.2-12.4-21.1-13.6-25.4-13.6s-1.7,0-1.7,0c-7.2-.8-7.8-3.1-7.8-3.1-7.6-12.2-25.2-14.3-25.2-14.3-8.6-2.2-18.9-9.2-18.9-9.2-4.3-3.4-9-4.6-13.6-4.6-11.4,0-21.9,7.5-21.9,7.5-3.9,4.2-9.2,8-9.2,8-11.6,8.2-17,14.5-17,14.5-4,4.1-9.5,10.9-9.5,10.9-7.2,6.2-11.8,15.1-11.8,15.1-6.9,8.3-6.2,19-6.2,19,0,2.3-2.2,10.5-2.2,10.5-.6,2.2-2.7,11.5-2.7,11.5-4.2,5.6-4.5,15.5-4.5,15.5-8.9,6.6-11.5,15.4-11.5,15.4-4.2,6.5-13.3,10-13.3,10,1.6.6,3.2.8,4.7.8,9,0,14.9-8.9,14.9-8.9,2.3-5.7,8.8-11.9,8.8-11.9,1.5-1.5,2.5-1.9,3.1-1.9.4,0,.6.2.6.2,2.1.8,0,3.6,0,3.6-6.9,8.6-7.3,14.8-7.3,14.8-3.4,7.3-16.4,12.6-16.4,12.6,1.9.4,3.7.6,5.4.6,13.1,0,21-10.6,21-10.6.5-1.1,1.2-1.5,2.1-1.5,1.7,0,3.5,1.5,3.5,1.5,4.2,4.7,10.2,5.2,12.6,5.2s1.2,0,1.2,0c1.5-.3,2.8-.3,3.7-.3.7,0,1.1,0,1.1,0,.1,0,.3,0,.4,0,3.4,0,9.5,2.2,9.5,2.2,1.7.6,6.9,2,6.9,2,3.4,1.2,4.7,1.2,4.7,1.2.3-.1.6-.1.9-.1.7,0,1.1.3,1.1.3.3,0,.7.1,1,.1,2,0,3.3-1.7,3.3-1.7,1.3-1.7,2-6.7,2-6.7-.3-4.3-4-7.6-4-7.6-1.5-1.6-1.1-1.8-1.1-1.8.4-.6,1.1-.8,1.9-.8,1.5,0,3.1.8,3.1.8.3,0,.5.1.7.1,1.7,0,.7-3.2.7-3.2-.6-4.1-6.8-8.5-6.8-8.5-2-1.5-2.2-3.9-2.2-3.9-.3-3.1-3.6-7.8-3.6-7.8-.9-1.2-.3-1.4.3-1.4.4,0,.9.1.9.1,2.2.6,13.1,2.2,13.1,2.2,1.2.9,3,1.2,4.8,1.2,3.7,0,7.6-1.2,7.6-1.2-11.1-13.7-4.1-27.1-4.1-27.1,0,6,3.5,15.6,3.5,15.6,2.6,8.3,6.6,9.5,6.6,9.5,1.4,1,9.7,2.9,9.7,2.9,3.4,1.3,1.3,4,1.3,4-1,.6-2.8,4.3-2.8,4.3-.8,2.8-6.7,12.1-6.7,12.1-2.5,2.1-1.9,5.6-1.9,5.6-.2,3.4,2.8,9.8,2.8,9.8.5,1.3,0,1.5-.2,1.5s-.1,0-.1,0c-.6,0-2.9-1.4-2.9-1.4-1.4-.8-3-4.3-3-4.3-.5-1-1.7-3-1.7-3-1-1.1-1.2-3.6-1.2-3.6-.2-3.6,3.5-9.2,3.5-9.2,2.7-3.9,6.4-13.4,6.4-13.4l-5.4-.4c-1.8,1.1-3.4,3.6-3.4,3.6l-4,9.5c-.4,1.6-2.5,3.9-2.5,3.9-2.3,2.7-1.8,5.4-1.8,5.4-.1,2.7,1.1,4.9,1.1,4.9l5.7,8.8c1.4,2.7,4,3.2,5.8,3.2s1.9-.2,1.9-.2c.6-.2,1.2-.3,1.8-.3,2.7,0,5.3,1.5,5.3,1.5,3.2,2.4,21.5,9.1,21.5,9.1,1.7.9,3.4,1.2,4.8,1.2s3-.4,3-.4c4.4-1.5,6.9-6.1,6.9-6.1,1.8-6,4.6-7,6.2-7,.9,0,1.5.3,1.5.3.4,0,.7,0,1,0,2.7,0,3-2.1,3-2.1,1.5-3.1,5.3-8.1,5.3-8.1,2.8-3-1-4-1-4l-11.1-.9c0,0-.2,0-.2,0-5.8,0-12.5,14.1-12.5,14.1-.9,2.2-2.8,2.7-4.4,2.7s-2.5-.4-2.5-.4c-14.1-5-15.7-6.8-15.7-6.8-.2-13.4,10.4-17.3,10.4-17.3,11.9-4.3,16.2-18.6,16.2-18.6.5-.6.9-.8,1.3-.8,1.3,0,2.2,2.2,2.2,2.2.5,5.4-2.4,9.9-2.4,9.9,2.1.3,4.2.4,6.3.4,9.3,0,18.1-2.1,18.1-2.1,2-.3,4-.5,6.1-.5,6.7,0,12.9,1.5,12.9,1.5,1,.1,2,.2,2.9.2,5.1,0,7.8-2.1,7.8-2.1,6.4-3.8,3-23.7,3-23.7-.3-2.8.7-3.1,1.2-3.1.2,0,.3,0,.3,0,5,4.4,3.9,23.4,3.9,23.4,9.9,21,30.5,21.6,32.9,21.6s.2,0,.2,0c1.2-.2,2.4-.3,3.5-.3,3.5,0,6.6.7,6.6.7,16.8,3.1,24.4,16.1,24.4,16.1-.5.2-.9.3-1.3.3-2,0-3.3-1.9-3.3-1.9-9.4-10.1-19.6-11.8-25.2-11.8s-4.4.4-4.4.4c-3.2.5-5.9.7-8.1.7-5.5,0-8.3-1.1-8.3-1.1-10-3-15.9-12.8-15.9-12.8h-6.5c1.7,2,4.1,8.1,4.1,8.1.4,4.3,4.3,5.5,4.3,5.5,3.2,1.1,11.8,5.6,11.8,5.6,1.5,1.2,4.3,1.5,7.2,1.5,5.1,0,10.6-1.1,10.6-1.1,1.1-.2,2.2-.3,3.3-.3,10.3,0,17.3,7.7,17.3,7.7,3.3,3.4,7.2,4.2,10.3,4.2s4.7-.7,4.7-.7c.3-.1.6-.2.9-.2,4.3,0,9.4,8.8,9.4,8.8,1.7,3.1,4.5,3.8,6.7,3.8s3.2-.5,3.2-.5l.5.4c1.3-.5,2.9-.6,4.2-.6,1.6,0,2.9.2,2.9.2,0-2.8-.9-6.4-.9-6.4-1.7-5.6-4.2-6.4-4.2-6.4-3.3,0-5-3.3-5-3.3-1.6-4.5-6.8-5.7-6.8-5.7-6.5-2.9-10.5-12-10.5-12-1.9-3.8-3.5-8.3-3.5-8.3-.8-1.1-2.5-1.4-3.9-1.4s-3.2.4-3.2.4c-.5,0-1,0-1.5,0-2.6,0-3.5-.7-3.5-.7l-8.7-5c-4.4-3.9-.2-9.8-.2-9.8,5.7-11,4.4-23.6,4.4-23.6,4.5.8,9.3,1.4,14.1,1.4s8.6-.5,12.6-1.9c21.8-8.7,12.9-31.2,12.9-31.2-4-12.8-12.8-16.7-12.8-16.7-5.1-1.9-8.8-7.1-8.8-7.1-2.6-6.1,5-7.2,5-7.2.3,0,.5,0,.8,0,28.3,0,21-25.8,21-25.8-6.7,8.3-23.2,11.5-23.2,11.5-13.2.2-15.3,9.5-15.3,9.5-4,9.6,4.8,15.8,4.8,15.8,10.9,8,17.2,15.7,17.2,15.7,10.1,15,1.3,23.3,1.3,23.3-4.1,3.9-9,5.4-13.9,5.4M646.2,203.1h0c1.2.9,2.3,1.2,3.3,1.2,2.4,0,4-1.8,4-1.8,3-3-.9-4.4-.9-4.4-2.3-.9-6.6-4.6-6.6-4.6-.9-.8-2.2-1.3-3.4-1.3s-.7,0-1,.1c-3.5.7-1.4,3.7-1.4,3.7,1.4,2.7,6,7.1,6,7.1M20.1,204.3c1,0,2.1-.3,3.3-1.2,0,0,4.6-4.5,6-7.1,0,0,2.1-3-1.4-3.7-.3,0-.6,0-.9,0-1.2,0-2.5.5-3.5,1.3,0,0-4.3,3.7-6.6,4.6,0,0-3.9,1.4-.9,4.4,0,0,1.6,1.8,4,1.8M9.5,222.4c1.5,0,2.8-.2,2.8-.2-.1-3,3.1-11.8,3.1-11.8.7-1.9-.6-2.8-.6-2.8-.7-.9-1.6-1.8-2.7-2.4-.7-.3-1.2-.4-1.7-.4-3.7,0-3.7,6.6-3.7,6.6-.3,3.4-1.5,5.2-1.5,5.2-1.2,1.9-1,3.3-1,3.3.5,2.1,3.2,2.5,5.3,2.5M659.9,222.4c2.1,0,4.9-.4,5.5-2.5h0s.2-1.3-1-3.3c0,0-1.2-1.8-1.5-5.2,0,0,0-6.6-3.7-6.6-.5,0-1.1.1-1.7.4-1,.6-1.9,1.5-2.7,2.4,0,0-1.3,1-.6,2.8,0,0,3.2,8.8,3.1,11.8,0,0,1.2.2,2.6.2M333.9,257.7h5.4-5.4M342.7,0h-6c-2,0-4,0-6,.1-38.8,1.7-74.3,20.5-97.8,51.6-.9-.4-1.8-.7-2.9-1h-.2c-.4-.2-.7-.3-1-.4-.3,0-.5-.1-.8-.2h0s0,0,0,0h-.4c0,0,0-.1,0-.1h0c-.2,0-.5-.1-.7-.2-.3,0-.7-.2-1.1-.2h-.2s-.2,0-.2,0h-11.3c0,0-.4.2-.4.2h-.4c0,0-.4.2-.4.2h-.4c0,.1-.4.2-.4.2h-.1s-.1,0-.1,0l-.5.2h0s0,0,0,0l-.4.2-.4.2-.4.2-.4.2-.4.2-.4.2-.4.2-.4.2h-.2c0,0-.1.2-.1.2l-.4.3-.4.3-.4.3-.4.3c-9.9,6.7-13.7,8.1-18.8,9.7h0s0,0,0,0l-.7.3-3.1.8h0c-2.7.6-6,1.4-9.7,3-6,2.7-11.1,6.9-15.6,13h0s0,0,0,0c-.2,0-.9.2-2.7.3-9.7.7-19.9,2.5-30.5,14.5-3,3.5-7.5,5.2-14.9,5.7-9.1.7-19.4,2.4-27.1,10.1-5.9,5.8-15.5,11.8-20.4,13.5-3.2,1.1-6.3,1.7-9.1,1.7-4.6,0-8.4-1.6-10-4.4,0,0,0-.2-.1-.3,0-.2-.2-.5-.3-.6h0c0-.1,0-.2,0-.2-.3-.8-.5-1.9-.5-2.9,0-4.5,3.2-9.9,8.7-14.8l4.2-3.4c7.6-5.9,13.1-10.6,14.5-16.3.4-1.6.6-3.2.6-4.8,0-4.8-1.5-9.5-4.1-13.1-2.5-3.5-7.4-7.9-16.3-8.8-10.9-1-19.4-7.4-20.3-8.6-1.6-2.3-3.6-3.5-5.7-3.5-2.5,0-4.7,1.7-6.7,5l-.2.3v.3c-.8,3.2-1.2,6.1-1.2,8.9,0,6.2,1.7,11.6,5,15.7,3.1,4,9,8.8,20.1,9.7-.7.4-1.5.9-2.4,1.4-9.2,5-19,16.2-19.2,32.9,0,3.6,1.4,7.6,2.6,10.9h0c1.4,4.2,3.8,7.8,6.9,10.6,6,5.7,14.8,8.5,26.1,8.5s3.6,0,5.5-.2c.4,0,.7,0,1.1,0,.6,6.6,2.4,14.7,5.3,19.4.2.3.4.7.6,1.1l-5.3,3.1-.9.5s0,0-.1,0h-1.8c0,0,0,0,0,0h-.4c-.5,0-1-.1-1.5-.2-1.2-.2-2.6-.4-3.9-.4-4.5,0-7.7,2.2-9.3,6.7-.6,1.7-1,3.3-1.4,4.6-.7,2.5-1.1,4.3-2.4,5.8-1.4-1.2-3.6-3.2-4.7-4.3-1.1-1.1-2.6-1.7-4.4-1.7-1.9,0-3.8.6-5.5,1.2-1.9.7-4,1.9-5.8,3.1-.8.5-1.6,1-2.3,1.4-2.5,1.4-4.1,3.3-4.9,5.9-.4,1.1-1.3,2-3.5,3.1h0s0,0,0,0c-2.6,1.5-6.4,6.1-6.4,12.6s0,1.6,0,2.1c-.3.2-.5.6-.8,1-4,7.8-.2,11.9,1.7,13.4h0s0,0,0,0c2.2,1.6,5.5,2.5,9.1,2.5s.7,0,1,0v1.1l2.3-.3,5.9-.8c.3,0,.7,0,1.1,0,1.8,0,3.9.4,5.3.7h.2s.2,0,.2,0h.2c.9.2,1.8.3,2.7.3,5.2,0,9.8-2.8,12.4-7.4,1.2-2.2,2.9-4,3.9-4.9,1.5.4,3.4.7,5.6.7,5.5,0,10.6-2.3,15-6.7,4.7-4.7,10.5-5.3,12.8-5.3s1.3,0,1.9.1l2.5.5c2.5.5,5.6,1,8.8,1s7.7-1,10.8-2.9c1.2-.7,3.2-1.6,5.6-2.6,5.9-2.5,12.5-5.3,13.4-11.8h0s0,0,0,0c.1-.6,1.3-2.5,1.7-3.2l.2-.3c1.1-1.9,2.4-4.1,3-6.7,1.1.2,2.1.2,3.2.2s2,0,3-.2l2.5-.4c2.3-.4,8.3-1.4,12.1-1.4s2.1.2,2.2.2c4.1,1.5,13.9,2.4,21.1,2.4s5.4,0,7.2-.5c0,0,1.1-.2,2.3-.5.1.1.3.3.4.4-1.2,0-2.5,0-3.6.3l-3.9,1c-1.1-.2-2.6-.3-3.7-.3s-2.2,0-3,.1l-5.1.4-5.8.6h-.1s-.1,0-.1,0c-1.8.4-7.5,1.7-6.8,9.3.2,2,1.3,4.8,3,6.6.7.9,3.6,4.9,4.2,6.1l.2.4c1.4,2.9,3.6,5.9,9.7,5.9h.7c0,0,0,.2,0,.2,1.3,2.8,3,6.6,6.5,8.9l.9.6c1.9,1.4,5.1,3.7,9.6,3.7s3.5-.3,5.3-1l2.2-.8c6.4-2.3,14.4-5.2,18.6-7.5l.6-.3h0s0,0,0,0c3-1.7,4.1-2.2,4.7-2.2s.2,0,.3,0h.1s.1,0,.1,0h.6c.9.2,2.2.4,3.6.4,4.8,0,8.5-2.2,11.1-6.6l.6-.8c17.1,23.5,41.6,40.8,69.3,48.8h.3c0,0,.2,0,.2,0,.7.2,1.3.4,1.9.6.3,0,.5.2.8.2h0s0,0,0,0l.8.2,1.6.4h.2c0,0,.2,0,.2,0h0c.5.1.9.2,1.4.3.5.1,1,.2,1.4.4h0s0,0,0,0l.8.2h0s0,0,0,0l1.5.3h0s0,0,0,0c.3,0,.6.1.9.2.4,0,.7.2,1.1.2l.8.2h0s0,0,0,0l1.8.3h.2s.2,0,.2,0h.7c.9.3,1.7.4,2.6.5h.1s.1,0,.1,0h.6c.5.1,1.1.2,1.6.3h.1s.1,0,.1,0h1c.9.2,1.8.3,2.6.3h.8c.4,0,.7,0,1,0,.3,0,.6,0,.8,0h.2s.2,0,.2,0h1c.3,0,.7,0,1.1,0,.4,0,.9,0,1.3,0h7.1c.8,0,1.7,0,2.6,0h.7c.7,0,1.4,0,2.2-.2h.1s.6,0,.6,0h.2c.8-.1,1.5-.2,2.2-.2h3.2v-.3h1.4c.4-.3.9-.3,1.5-.4l1.3-.2h.6c.5-.1,1.1-.2,1.7-.3.5,0,1-.2,1.5-.3h.3c31.8-5.9,60-23.4,79.7-49.2,2.6,3.2,5.9,4.8,10.1,4.8s2.4-.1,3.3-.3h1.1c.1,0,.2,0,.3,0,.6,0,2.2.8,4.6,2.1h0s0,0,0,0l.6.3c4.3,2.3,12.2,5.2,18.6,7.5l2.2.8c1.8.6,3.6,1,5.3,1,4.5,0,7.8-2.3,9.7-3.6h0s0,0,0,0l.8-.6c3.3-2.3,5.2-5.9,6.6-9.1h0s.7,0,.7,0c6.1,0,8.4-3,9.8-5.9l.2-.4c.6-1.2,3.3-5.1,4.1-6.2,1.7-1.8,2.7-4.5,3-6.5h0s0,0,0,0c.6-6.9-3.6-8.7-6.8-9.3h-.1s-.1,0-.1,0l-5.8-.6-5-.4c-.9,0-2-.1-3.1-.1s-2.6,0-3.7.3l-3.8-1c-1.2-.3-2.4-.3-3.6-.3.1-.1.2-.2.4-.4,1.2.2,2.3.5,2.3.5,1.4.3,3.8.5,6.9.5,7,0,17.2-.9,21.4-2.4.2,0,.8-.2,2.3-.2,3.8,0,9.8,1,12.1,1.4l2.4.4h.2s.2,0,.2,0c.2,0,.4,0,.7,0,.4,0,.8.1,1.3.1,1.2,0,2.5,0,3.9-.2.2.9.5,1.8,1,2.7.7,1.5,1.5,2.9,2.3,4.2.2.3.3.5.5.8.4.7,1.2,2,1.3,2.4,1,6.5,7.6,9.3,13.4,11.8,2.5,1,4.4,1.9,5.7,2.7,3.1,1.9,6.6,2.8,10.7,2.8s5.7-.5,8.2-.9h.6c0-.1,2.6-.6,2.6-.6.7-.1,1.4-.2,2.1-.2,2.2,0,7.8.5,12.6,5.3.7.7,1.3,1.2,1.9,1.7,3.5,2.8,7.3,4.5,11.2,4.9.7,0,1.3,0,2,0,2.3,0,4.2-.4,5.6-.7,1,.9,2.7,2.8,3.8,4.8l.2.3v.3c.1,0,.2,0,.2,0h0c2.6,4.3,7.2,6.9,12.1,6.9s1.7,0,2.6-.2h.7c.7-.3,3.1-.9,5.2-.9s.8,0,1.1,0l5.9.8,2.3.3v-1.1c.4,0,.7,0,1.1,0,3.5,0,6.8-.9,8.9-2.6,1.8-1.3,5.7-5.3,1.8-13.4l-.5-1-1.1-.2-1.7-.2c0-.1-.1-.3-.2-.4-.1-.6-.2-1.1-.2-1.7,0-6.6-3.9-11.2-6.5-12.6h0s0,0,0,0c-2.1-1.1-3.2-2.1-3.5-3.2-.8-2.4-2.3-4.3-4.9-5.8h0s0,0,0,0c-.7-.4-1.5-.8-2.3-1.4-1.8-1.1-3.9-2.4-5.8-3.1-1.6-.6-3.6-1.2-5.5-1.2s-3.3.6-4.3,1.7c-1,1-2.1,2-3.2,3-.6.5-1.1.9-1.5,1.3-1.1-1.3-1.6-2.8-2.1-5.1h0c0,0-.2-.8-.2-.8-.3-1.3-.7-2.8-1.3-4.5-1.6-4.5-4.7-6.8-9.3-6.8-1.4,0-2.7.2-3.9.4-.5,0-1,.1-1.5.2h-.3c-.8,0-1.4,0-1.9,0h-.1c0,0-.9-.5-.9-.5-2.6-1.6-4.2-2.5-5.3-3.1.1-.3.3-.6.5-1.1,2.6-4.2,4.8-11.9,5.4-19.4.8,0,1.6.1,2.3.2h.3c1.4.1,2.9.2,4.2.2,11,0,19.7-2.9,25.9-8.5.4-.3.7-.6.9-.9,0,0,.1-.2.2-.2,2.6-2.7,4.5-5.9,5.9-9.5h0c1.1-3.4,2.6-7.4,2.6-11,0-16.3-9.9-27.7-19.1-32.8-1-.5-1.8-1-2.5-1.4,11.1-.9,17-5.7,20.1-9.7,3.3-4.3,5-9.7,5-15.7s-.2-5.6-.8-7.4c-.1-.4-.2-.9-.4-1.5v-.3c0,0-.2-.3-.2-.3-2-3.3-4.3-4.9-6.7-4.9-1.4,0-3.6.6-5.7,3.5h0s0,0,0,0c-1,1.5-9.7,7.6-20.2,8.5-8.9.9-13.8,5.3-16.3,8.8-2.6,3.7-4,8.3-4,13.1s0,3.5.4,4.4c0,.1,0,.2.2.4,1.5,5.7,7.2,10.5,14.5,16.2l3.4,2.8h0s0,0,0,0l.7.6c5.5,4.8,8.7,10.2,8.7,14.7s0,.9,0,1.2h0c0,.1,0,.3,0,.3-.2.9-.5,1.8-.9,2.5-1.6,2.8-5.4,4.5-10,4.5s-5.8-.6-9.1-1.7c-4.9-1.7-14.5-7.7-20.3-13.5-7.7-7.7-18-9.4-27.1-10.1-7.4-.6-11.8-2.3-14.8-5.7-10.7-12-20.9-13.7-30.5-14.5-1.8-.2-2.5-.3-2.8-.4-7-9.5-14.3-12.7-19.2-14.4-2.3-.7-4.4-1.2-6.2-1.6l-3.1-.8-.7-.3h0s0,0,0,0c-1.4-.4-2.7-.9-4.5-1.6-2.9-1.2-7-3.1-14.3-8.2l-.4-.3h-.1c0-.1-.2-.2-.2-.2l-.4-.2-.4-.2-.4-.2-.4-.2c-.7-.4-1.4-.7-2.1-1l-.3-.2h0v-.7h-.4c0-.1-.4-.1-.4-.1h0c0-.1-.4-.1-.4-.1h0c0,0-.4,0-.4,0h0c0-.1-.4-.1-.4-.1h0c0,0-2,0-2,0h-.7c0,0-2.1-.4-2.1-.4h-.1s-.1,0-.1,0h-4.2c-3,.2-6.1.8-9.2,1.8-11.9-14.6-26.1-26.4-42.1-35.1C382.1,6.6,363.7,1.3,344.6.1h0s0,0,0,0c-.5,0-1.1,0-1.6,0h-.2ZM42.6,75.6c-8,0-13.7-2.1-16.9-6.4-3.2-4.2-3.3-9.8-2.9-13.3,7.9,6.6,20.9,9.2,21.5,9.3h.2s.2,0,.2,0c11.4.2,13.3,7.6,13.4,8v.2s.1.2.1.2c3.3,8-3.8,13.2-4.1,13.4-10.9,8.1-17.3,15.7-17.6,16.1h0c0,0,0,.2,0,.2-5.6,8.3-5.6,14.9-4.7,18.8,1,4.5,3.6,6.9,3.7,7,4.2,3.9,9.3,5.9,15.2,5.9,15.8,0,32-14,32.6-14.6h.1c0,0,0-.2,0-.2,8.3-9.8,20.3-10.9,25-10.9s1.8,0,1.8,0h.2s.2,0,.2,0c11.1-1.4,16.8-6.8,17.1-7.1h.1c0-.1,0-.2,0-.2,8.6-11.5,19.5-12.8,23.8-12.8s1.4,0,1.4,0h.2s.2,0,.2,0c6.9-.9,8.8-3,9.3-4.2,6.9-11.1,23.5-13.2,23.7-13.2h.1s.1,0,.1,0c8.8-2.3,19.1-9.2,19.5-9.5h0s0,0,0,0c3.5-2.8,7.6-4.2,12.4-4.2,9.9,0,19.3,6.2,20.6,7.1,4,4.1,9.1,7.9,9.3,8.1,11.3,7.9,16.6,14.1,16.7,14.2h0c0,0,0,.1,0,.1,4,4,9.3,10.7,9.3,10.7h.1c0,.1.1.3.1.3,6.8,5.9,11.3,14.4,11.3,14.5v.2c0,0,.2.2.2.2,6.3,7.6,5.7,17.5,5.7,17.6h0c0,0,0,.1,0,.1,0,2.4,1.9,9.6,2.3,11,.6,2.1,2.7,11.3,2.7,11.4v.4c0,0,.3.3.3.3,3.7,5,4.1,14.3,4.1,14.4v1s.8.6.8.6c8.2,6.1,10.8,14.3,10.8,14.4v.3c0,0,.2.3.2.3,2.1,3.2,5.3,5.7,8.1,7.5-6.5-1.3-10.9-7.8-11-7.8l-1.1-1.7-.4.2c-2.9-5.3-8-10.2-8.2-10.4-1.6-1.6-3.1-2.4-4.5-2.4s-1.1.1-1.4.3c-.9.4-1.6,1.1-1.9,2-.6,1.9.7,4,1.1,4.6h0c0,0,0,.1,0,.1,6.3,7.9,6.9,13.7,6.9,13.7v.3s.2.3.2.3c2,4.3,6.8,7.9,10.9,10.3-10-.9-16.4-8.5-17.4-9.6-.8-1.5-2.1-2.4-3.8-2.4-2.2,0-4.3,1.5-4.7,1.8h-.1c0,.1-.1.3-.1.3-3.7,4.1-9,4.6-11.2,4.6s-.8,0-.9,0c-1.6-.3-3-.4-4-.4s-.9,0-1.1,0c-.1,0-.3,0-.4,0-3.7,0-9.5,2.1-10.2,2.3-1.6.6-6.7,1.9-6.7,1.9h0s0,0,0,0c-2.2.8-3.5,1-4,1.1-.3,0-.7-.1-1-.1-.8,0-1.5.2-1.9.5,0,0-.2,0-.3,0-1,0-1.7-.9-1.7-.9h0c0,0,0,0,0,0-.5-.7-1.2-3.3-1.5-5.5.3-3.4,3.3-6,3.3-6h0c0,0,0-.2,0-.2,1.1-1.3,1.7-2.2,1.6-3.3,0-.4-.2-.8-.5-1.1-.6-.7-1.6-1.5-3.4-1.5-1,0-1.9.2-2.7.5,0,0,0-.1,0-.2v-.2c0,0,0-.2,0-.2.3-2.4,3.8-5.6,5.9-7.1,2.7-1.9,3-5,3.1-5.4.2-1.8,2.1-5.1,3.2-6.8.9-1.2,1.1-2.2.7-3.2-.2-.4-.9-1.4-2.5-1.4-.7,0-1.3.1-1.4.2h0s0,0,0,0c-1.4.4-8.5,1.5-12.8,2.1h-.5c0,0-.4.4-.4.4-.7.5-2,.8-3.6.8s-2.9-.2-4.2-.4c9.1-13.5,2.7-26.2,2.4-26.8l-3.8-7.3v8.2c0,5.6-3.3,14.8-3.4,14.9h0s0,0,0,0c-2.1,6.6-5,8-5.3,8.2h-.3c0,0-.2.2-.2.2-.8.5-5.3,1.8-9,2.6h-.1s-.1,0-.1,0c-2,.8-2.7,2.1-3,3-.6,2.1.7,3.9.8,4.1l.2.3.3.2c.4.4,1.3,1.9,2,3.4,1,3.2,6.3,11.5,6.9,12.4l.2.3.2.2c1.6,1.3,1.2,3.7,1.2,3.7v.2s0,.2,0,.2c.1,2.1-1.5,6.5-2.6,8.8h0c0,0,0,.1,0,.1-.2.5-.8,2,0,3.2.2.2.3.4.6.6-2.6.3-4.8,1.5-5,1.7h-.1c0,0,0,.1,0,.1-2.2,1.6-14,6.3-21,8.8h-.1c0,0-.1.1-.1.1-1.1.6-2.4.9-3.9.9s-2.2-.3-2.3-.3c-3.1-1.1-5.2-4.3-5.7-5-2.2-7.1-6-8.2-8-8.2-.9,0-1.6.2-2,.4-.1,0-.3,0-.4,0-.6,0-1-.2-1.1-.4v-.4s-.2-.2-.2-.2c-1.6-3.1-5.3-8.2-5.5-8.4h0c0,0,0-.2,0-.2-.2-.2-.3-.4-.4-.5,0,0,.2-.1.3-.2l10.9-.9s0,0,0,0c3.1,0,8.2,7.7,10.6,12.9,1.1,2.4,3.3,3.8,6.3,3.8s2.8-.4,3-.4h0s0,0,0,0c13.2-4.7,15.9-6.7,16.5-7.4l.5-.6v-.7c.2-14.6-11.6-19.2-11.7-19.2-10.8-3.9-14.9-17.2-15-17.3v-.3c-.1,0-.3-.3-.3-.3-1-1.3-2.1-1.6-2.9-1.6-2.4,0-3.7,2.7-4,3.5v.3c-.1,0-.1.3-.1.3-.4,3.3.4,6.3,1.3,8.4-1,0-2.1,0-3.2,0-9,0-17.5-2-17.6-2h0s0,0,0,0c-1.9-.3-4.1-.5-6.4-.5-6.6,0-12.5,1.3-13.3,1.5-.9.1-1.8.2-2.6.2-4.2,0-6.4-1.7-6.5-1.7h0c0,0-.1-.1-.1-.1-3.6-2.1-3.4-13.9-2-21.6h0c0,0,0-.1,0-.1.2-2,0-3.4-.9-4.3-.6-.7-1.4-1-2.3-1-.4,0-.7,0-.9.1h-.4c0,.1-.3.4-.3.4-5.2,4.7-4.8,20.9-4.6,24.5-9.5,19.4-28.7,20-30.9,20h0c-1.1-.2-2.3-.2-3.6-.2-3.7,0-7,.6-7.1.7-17.5,3.2-25.4,16.5-25.7,17.1l-1.2,2,2.1.9c.7.3,1.4.4,2.1.4,2.7,0,4.4-2,4.8-2.6,8.9-9.6,18.7-11,23.8-11s3.8.3,3.8.3h0s0,0,0,0c3,.5,5.8.7,8.5.7,5.3,0,8.3-1,8.9-1.2,8.8-2.7,14.5-10.1,16.3-12.8h1.9c-1.2,2.4-2.3,5-2.4,5.5v.3c-.1,0-.1.3-.1.3-.3,2.8-2.6,3.7-2.9,3.8-3.3,1.1-11.8,5.5-12.1,5.7h-.1c0,0-.1.2-.1.2-.6.4-2.1,1.1-6,1.1s-10.1-1-10.2-1.1h0s0,0,0,0c-1.2-.2-2.4-.3-3.6-.3-10.9,0-18.2,7.7-18.8,8.3-2.3,2.3-5.2,3.5-8.8,3.5s-4.1-.6-4.1-.6c-.5-.2-1-.3-1.6-.3-5.1,0-10.1,8.1-11.1,9.7-1,1.9-2.7,2.8-5,2.8s-2.5-.4-2.6-.4c-1.3-.4-2.9-.7-4.8-.7s-.5,0-.7,0c.2-1.8.6-3.4.7-3.7,1.1-3.5,2.4-4.6,2.8-5,4.2-.4,6.1-4.2,6.2-4.4h0c0-.1,0-.2,0-.2,1.2-3.4,5.3-4.4,5.4-4.4h.2s.2-.1.2-.1c6.9-3.1,11.1-12.1,11.5-13,1.6-3.2,3-6.9,3.4-8.1.4-.3,1.1-.5,2.1-.5,1.4,0,2.7.3,2.7.3h.2s.2,0,.2,0c.6,0,1.1,0,1.7,0,2.7,0,4-.6,4.6-1l8.6-5h.2c0,0,.1-.2.1-.2,4.5-3.9,2.4-9.7.6-12.3-5.3-10.4-4.1-22.2-4.1-22.4l.3-2.6-2.6.5c-5.4.9-9.7,1.4-13.7,1.4s-8.5-.6-12-1.8c-19.6-7.9-12-27.7-11.6-28.6h0c0,0,0-.1,0-.1,3.6-11.5,11-15.1,11.7-15.4,5.5-2.1,9.5-7.5,9.6-7.8v-.2c.1,0,.2-.2.2-.2,1.2-2.8.7-4.8,0-6-1.8-3.2-6.1-3.9-6.6-4h-.2s-.2,0-.2,0c-.2,0-.4,0-.6,0h0ZM620.3,135.5c6,0,11.1-2,15.2-5.9,3.5-3.3,7.7-12.9-1-25.9h0c0,0,0-.1,0-.1-.3-.3-6.6-8-17.6-16-.3-.2-7.5-5.5-4.1-13.4v-.2c0,0,.1-.2.1-.2,0-.3,2-7.8,13.4-7.9h.2s.2,0,.2,0c.6-.1,13.6-2.7,21.5-9.3.4,3.6.3,9.1-2.9,13.4-3.2,4.2-8.8,6.3-16.8,6.3s-.5,0-.8,0h-.2s-.2,0-.2,0c-.5,0-4.7.8-6.5,3.9-.7,1.2-1.2,3.2,0,6v.2c0,0,.2.2.2.2.2.2,4.1,5.7,9.7,7.8.7.3,8.1,4.1,11.7,15.4h0c0,0,0,.1,0,.1.3.8,7.9,20.7-11.7,28.6-3.5,1.2-7.4,1.8-11.9,1.8s-8.3-.4-13.7-1.4l-2.6-.4.3,2.6c0,.1,1.1,12.1-4.1,22.4-1.8,2.6-3.9,8.4.6,12.3h.2c0,.1.2.2.2.2l8.6,5c.5.4,1.9,1,4.6,1s1.1,0,1.6,0h.2s.2,0,.2,0c0,0,1.3-.3,2.7-.3s1.9.2,2.2.5c.4,1.2,1.8,4.8,3.4,8.1.4.8,4.6,9.9,11.5,13h.2c0,0,.2.1.2.1,0,0,4.2,1,5.4,4.4h0c0,.1,0,.3,0,.3,0,.2,2.1,3.9,6.2,4.3.5.3,1.8,1.5,2.8,5,0,.3.5,1.9.7,3.7-.2,0-.5,0-.7,0-1.4,0-2.7.1-3.8.4l-.5-.4-1,.4s-1.1.4-2.5.4c-2.3,0-3.9-.9-5-2.7-1-1.7-6-9.8-11.1-9.8-.5,0-1.1,0-1.6.3h0s-1.7.5-4.1.5c-3.6,0-6.5-1.2-8.8-3.5-.6-.6-7.9-8.3-18.8-8.3-1.2,0-2.4,0-3.6.3h0s0,0,0,0c0,0-5.4,1.1-10.2,1.1s-5.4-.7-6-1.1h-.1c0-.1-.1-.2-.1-.2-.4-.2-8.8-4.6-12.1-5.7h0s0,0,0,0c-.3,0-2.6-1-2.9-3.8v-.3s-.1-.3-.1-.3c-.2-.4-1.2-3-2.4-5.4h1.9c1.8,2.7,7.6,10,16.3,12.7.6.2,3.6,1.2,8.9,1.2s5.5-.2,8.5-.7h0s0,0,0,0c0,0,1.5-.3,3.9-.3,5,0,14.7,1.4,23.7,11.1.4.6,2.2,2.6,4.8,2.6s1.4-.1,2.1-.4l2.1-.9-1.2-2c-.3-.6-8.3-13.8-25.7-17.1-.4,0-3.5-.7-7-.7s-2.6,0-3.7.3h0c-2.2,0-21.4-.6-30.8-20,.2-4.3.6-19.9-4.6-24.5l-.3-.3h-.4c-.2-.2-.5-.3-.9-.3-.9,0-1.7.4-2.3,1-.8.9-1.1,2.4-.9,4.3h0c0,0,0,.1,0,.1,1.3,7.7,1.5,19.5-2,21.6h-.1c0,0-.1.1-.1.1,0,0-2.3,1.7-6.6,1.7s-1.7,0-2.5-.2c-.9-.2-6.8-1.5-13.3-1.5s-4.5.2-6.4.5h0s0,0,0,0c0,0-8.6,2-17.6,2s-2.2,0-3.3,0c.8-2.1,1.6-5,1.3-8.4v-.3s-.1-.3-.1-.3c-.2-.6-1.6-3.4-4-3.4-.7,0-1.9.3-2.9,1.6l-.2.3v.4c-.1.1-4.3,13.4-15.1,17.3-.1,0-11.9,4.6-11.7,19.2v.7s.5.6.5.6c.6.7,3.4,2.7,16.5,7.4h0s0,0,0,0c.1,0,1.5.5,3.1.5,3,0,5.2-1.4,6.2-3.9,2.5-5.2,7.5-12.9,10.6-12.9s0,0,.1,0l10.8.9c.1,0,.2.1.3.2,0,.1-.2.3-.4.5h0c0,0,0,.2,0,.2-.2.2-3.9,5.2-5.5,8.4l-.2.4v.2c-.1.3-.4.4-1,.4s-.3,0-.5,0c-.4-.1-1.1-.3-2-.3-2.1,0-5.8,1.1-8.1,8.2-.4.7-2.5,3.9-5.7,5,0,0,0,0,0,0,0,0-1,.3-2.3.3s-2.7-.3-3.9-.9h-.1c0,0-.1-.1-.1-.1-7-2.6-18.8-7.2-21-8.8h-.1c0,0-.1-.2-.1-.2-.3-.2-2.5-1.3-5.1-1.6.2-.2.4-.4.6-.6.8-1.2.2-2.7,0-3.2h0c0,0,0-.1,0-.1-1.1-2.3-2.7-6.7-2.6-8.8v-.2s0-.2,0-.2c0,0-.4-2.4,1.2-3.7l.2-.2.2-.3c.6-1,5.9-9.3,6.9-12.4.7-1.5,1.6-3,2-3.4l.3-.2.2-.3c.2-.2,1.5-2,.9-4.1-.3-.9-1-2.2-3.1-3h-.1c0,0-.1,0-.1,0-3.7-.8-8.2-2.1-9-2.6l-.3-.2h-.2c-.4-.2-3.2-1.7-5.3-8.2h0s0,0,0,0c0,0-3.4-9.3-3.4-14.9v-8.1l-3.8,7.2c-.3.6-6.7,13.1,2.5,26.8-1.2.2-2.7.4-4.2.4s-3-.3-3.6-.8l-.4-.3h-.5c-3-.5-11.2-1.8-12.9-2.2-.1,0-.8-.2-1.4-.2-1.6,0-2.3,1-2.5,1.4-.5,1-.3,2,.6,3.2,1.2,1.7,3.1,5,3.2,6.8,0,.3.3,3.3,3,5.3h0s0,0,0,0c2.1,1.5,5.6,4.8,6,7.2v.2s0,.2,0,.2c0,0,0,.1,0,.2-.7-.2-1.7-.5-2.7-.5-1.8,0-2.8.8-3.4,1.4-.3.3-.4.7-.5,1-.2,1.2.5,2.2,1.7,3.4h0c0,0,0,.1,0,.1,0,0,3,2.7,3.3,6-.3,2.1-1,4.8-1.6,5.5,0,0-.8.9-1.7.9s-.1,0-.2,0c-.4-.2-1.1-.5-1.9-.5s-.7,0-1,.1c-.4,0-1.6-.3-3.9-1.1h0s0,0,0,0c0,0-5.1-1.4-6.8-2-.6-.2-6.5-2.3-10.2-2.3-.1,0-.3,0-.4,0-.2,0-.6,0-1.1,0-.9,0-2.3,0-4,.4-.1,0-.4,0-.9,0-2.1,0-7.4-.4-11.2-4.6h-.1c0-.1-.1-.2-.1-.2-.4-.3-2.5-1.9-4.8-1.9-1.7,0-3,.9-3.8,2.4-.9,1.1-7.3,8.6-17.3,9.5,4.1-2.4,8.8-6,10.8-10.2l.2-.3v-.4s.5-5.8,6.9-13.7h0s0,0,0,0c.4-.6,1.8-2.6,1.2-4.5-.3-1-1-1.7-1.9-2.1-.3-.2-.8-.3-1.5-.3-1.4,0-2.9.8-4.5,2.4-.6.5-6.7,6.5-9.2,12.4-.7,1-4.8,6.4-10.8,7.6,2.8-1.8,5.9-4.3,7.9-7.5l.2-.2v-.3c.1,0,2.6-8.3,10.9-14.4l.8-.6v-1c0,0,.4-9.3,4.1-14.4l.3-.3v-.4c.1,0,2.2-9.3,2.8-11.4.4-1.4,2.3-8.6,2.3-11h0c0,0,0-.1,0-.1,0,0-.5-10,5.7-17.6v-.2c.1,0,.2-.2.2-.2,0,0,4.5-8.6,11.3-14.5h.1c0-.1.1-.3.1-.3,0,0,5.5-6.8,9.4-10.8h0s0,0,0,0c0,0,5.4-6.2,16.6-14.2.2-.2,5.4-3.9,9.4-8.1,1.3-.9,10.7-7.1,20.6-7.1s8.9,1.4,12.4,4.2h0s0,0,0,0c.4.3,10.7,7.2,19.5,9.5h.1s.1,0,.1,0c.2,0,16.6,2.1,23.6,13.2.5,1.2,2.5,3.4,9.4,4.2h.2s.2,0,.2,0h0s.5,0,1.4,0c4.3,0,15.2,1.2,23.8,12.8h0c0,.1.1.2.1.2.2.2,5.9,5.7,17.1,7.1h.2s.2,0,.2,0c0,0,.7,0,1.9,0,4.7,0,16.5,1.1,24.9,10.9h0c0,.1.1.2.1.2.7.6,16.9,14.6,32.6,14.6h0ZM217.5,169.3h2c.8.5,1.7,1.6,2.2,2.3l3.9,9.2c.5,2,2.4,4.1,2.9,4.6,1.6,1.9,1.3,3.7,1.3,3.7v.3s0,.2,0,.2c.1,1.9-.7,3.5-.8,3.7l-5.7,8.7h0c0,0,0,.1,0,.1-.8,1.4-2.1,2.1-4.1,2.1s-1.1,0-1.3-.1c-.2,0-.4-.1-.7-.2.6-.2,1.4-.7,2.6-1.4,1.6-1,3.2-3.9,3.8-5.1.3-.7,1.1-2,1.5-2.7,1.2-1.5,1.5-3.9,1.6-4.6.2-4.2-3.4-9.8-3.8-10.5-1.7-2.5-3.9-7.5-5.2-10.5h0ZM448.5,171.7c.4-.6,1.3-1.8,2.2-2.5h1.9c-1.3,3.2-3.5,8.2-5.2,10.6-.4.7-4.1,6.3-3.9,10.4,0,.6.3,3.1,1.6,4.7.4.6,1.2,2,1.5,2.7.5,1,2,4.1,3.8,5.2,1.2.7,2,1.1,2.6,1.4-.2,0-.5.1-.7.2-.2,0-.7.1-1.4.1-2,0-3.3-.7-4-2.1h0c0,0,0-.2,0-.2l-5.6-8.7c-.1-.3-.9-1.9-.8-3.8v-.2s0-.2,0-.2c0,0-.2-1.8,1.3-3.7.4-.5,2.3-2.7,2.9-4.6l3.9-9.2h0ZM641.6,194.4c0,0,.2,0,.4-.1h0s0,0,0,0c.1,0,.3,0,.5,0,.7,0,1.5.3,2.1.8h0s0,0,0,0c.5.4,4.6,4,7.2,4.9h0s0,0,0,0c.2,0,.5.3.7.4,0,.1-.2.3-.5.7h0s0,0,0,0c0,0,0,0,0,0,0,0-1.1,1.1-2.5,1.1s-1.3-.2-2-.7c-1.3-1.2-4.5-4.6-5.5-6.5h0c0-.1,0-.2,0-.2,0-.1-.2-.3-.2-.5h0ZM17,200.4c.1-.1.4-.3.7-.4,2.6-1,6.7-4.6,7.2-5,.6-.5,1.4-.8,2.2-.8s.3,0,.5,0c.2,0,.3,0,.4.1,0,.2-.1.4-.2.5h0c0,0,0,.2,0,.2-1,1.9-4.2,5.2-5.5,6.5-.7.5-1.4.8-2,.8-1.4,0-2.5-1.1-2.5-1.2h0s0,0,0,0c-.3-.3-.5-.6-.5-.7h0ZM396.1,197.1h0s0,0,0,0c0,0,0,0,0,0h0ZM6.2,219.5c0-.3.1-1,.7-1.9.1-.2,1.5-2.3,1.8-6.1h0c0,0,0-.2,0-.2,0-1.3.3-3.5,1.1-4.3.2-.2.3-.2.5-.2s.4,0,.9.2c.7.4,1.4,1,2,1.8l.3.4h0c0,.2,0,.4,0,.5-.5,1.3-2.5,7-3.1,10.7-.3,0-.6,0-1,0-1.8,0-3-.3-3.3-.9h0ZM658.3,207c.3-.1.6-.2.8-.2s.4,0,.6.2c.8.8,1.1,3,1.1,4.3h0c0,0,0,.2,0,.2.3,3.6,1.5,5.7,1.8,6.1.5.9.7,1.6.7,1.9-.4.5-1.7.9-3.5.9s-.5,0-.8,0c-.6-3.7-2.6-9.4-3.1-10.7-.1-.3-.1-.4,0-.6h.2c0-.1,0-.2,0-.2.5-.6,1.3-1.4,2.1-1.9h0Z"/>
  <path class="st0" d="M400.1,182.2c-5.8-3.5-6.5,0-6.5,0-1.1,6.2,3.8,7,3.8,7,1,.3,5.2.4,5.2.4,1.3,0,1.6-.5,1.4-1.9-.8-3.9-3.9-5.5-3.9-5.5Z"/>
  <path class="st0" d="M441.9,91.9c-7.1,9.9-1.9,24.7-1.9,24.7.7-13.6,6.2-20.1,6.2-20.1.9-1.6.5-3.3-.4-4.9-2.1-3.1-4,.3-4,.3h0Z"/>
</svg>
