<?xml version="1.0" encoding="UTF-8"?><svg id="a" xmlns="http://www.w3.org/2000/svg" viewBox="0 0 168.48 71.93"><path d="M166.43,40.42c-.93-.93-2.58-2.05-5.14-2.05h-15.71c-.88,0-1.73.14-2.51.41-.79-.27-1.63-.41-2.51-.41h-4.28v-9.32c0-5.1-4.33-9.26-9.66-9.26h-9.75c-1.07,0-2.12.17-3.12.5-.38-.28-.78-.53-1.21-.75v-8.23c0-3.89-3.33-7.06-7.43-7.06-1.44,0-2.86.41-4.07,1.16h-5.23c-.37-1.44-1.21-2.74-2.43-3.71-1.41-1.12-3.17-1.71-5.11-1.71l-8.39.02c-1.93,0-3.7.59-5.11,1.71-1.22.97-2.06,2.27-2.43,3.71h-5.23c-1.21-.75-2.63-1.16-4.07-1.16-4.1,0-7.43,3.17-7.43,7.06v8.23c-.4.21-.79.45-1.15.71-.98-.32-1.99-.48-3.03-.48h-9.9c-5.28,0-9.58,4.12-9.58,9.19v9.39h-6.43c-.9,0-1.75.14-2.54.42-.79-.28-1.65-.42-2.54-.42H7.19c-2.57,0-4.22,1.11-5.14,2.04-.93.93-2.05,2.58-2.05,5.14v19.27c0,2.86,1.41,4.56,2.25,5.32.89.81,2.44,1.78,4.73,1.78.24,0,.5-.01.77-.04,1.52-.14,3.04-.28,4.56-.41,2.38-.21,3.89-1.32,4.74-2.22.52-.55,1.1-1.35,1.48-2.43.49.93,1.11,1.58,1.57,1.97.88.76,2.4,1.66,4.64,1.66.19,0,.39,0,.61-.02,4.34-.31,8.73-.59,13.05-.83.94-.05,1.83-.25,2.64-.6.71.22,1.46.33,2.25.33.14,0,.29,0,.43-.01,1.48-.07,2.95-.14,4.43-.21,1.5-.06,2.67-.5,3.55-1.03.84.42,1.94.75,3.32.75.1,0,.2,0,.31,0,1.48-.05,2.95-.1,4.43-.14,1.02-.03,1.97-.23,2.83-.6.82.3,1.71.45,2.66.45h.19c3.1-.07,6.24-.13,9.34-.16,2.22-.03,4.21-.41,5.93-1.15,1.15.73,2.49,1.1,4,1.1,4.17,0,8.41.04,12.61.1h.13c1.95,0,3.36-.65,4.27-1.29,1.97.96,4.35,1.47,7.23,1.56,3.1.09,6.23.21,9.31.33.12,0,.24,0,.36,0,.89,0,1.74-.14,2.52-.42.87.39,1.82.62,2.84.67,1.53.07,3.05.15,4.56.23.17,0,.33.01.48.01,1.27,0,2.3-.29,3.1-.66.85.52,2,.97,3.48,1.06,1.53.1,3.05.19,4.58.3.2.01.39.02.57.02,2.23,0,3.75-.9,4.63-1.65.04-.04.09-.08.13-.11.11.14.23.26.33.37.85.87,2.35,1.95,4.72,2.15,1.59.13,3.18.26,4.77.4.25.02.5.03.73.03,2.28,0,3.81-.94,4.69-1.73.86-.77,2.31-2.48,2.31-5.36v-8.21c1.55-.34,2.64-1.12,3.34-1.79.96-.93,2.1-2.59,2.1-5.19v-3.6c0-2.55-1.11-4.21-2.04-5.14ZM166.68,48.16c0,1.97-.85,3.21-1.56,3.9-.68.67-1.89,1.46-3.77,1.46h-.11s0,9.83,0,9.83c0,2.17-1.06,3.45-1.7,4.01-.64.57-1.78,1.27-3.49,1.27-.18,0-.37,0-.57-.03-1.59-.14-3.19-.27-4.78-.4-1.81-.15-2.94-.95-3.57-1.6-.54-.55-1.16-1.47-1.38-2.79-.27.95-.8,1.79-1.54,2.42-.64.55-1.77,1.22-3.46,1.22-.14,0-.3,0-.45-.02-1.53-.1-3.06-.2-4.59-.3-1.71-.11-2.83-.81-3.48-1.41-.67.5-1.73,1.01-3.22,1.01-.12,0-.24,0-.37-.01-1.53-.08-3.06-.16-4.58-.23-1.25-.06-2.18-.44-2.84-.87-.65.34-1.51.62-2.61.62-.09,0-.19,0-.28,0-3.08-.13-6.22-.24-9.33-.33-3.18-.09-5.64-.74-7.52-1.95-.16.18-.34.35-.53.51-.65.54-1.79,1.17-3.51,1.17h-.11c-4.17-.07-8.42-.1-12.62-.1-1.4,0-2.6-.4-3.57-1.2-.08-.07-.15-.14-.22-.21-1.69.94-3.76,1.43-6.16,1.46-3.1.04-6.25.09-9.36.16h-.17c-1.15,0-2.03-.29-2.69-.64-.81.49-1.76.76-2.83.79-1.48.04-2.96.09-4.44.14-.09,0-.17,0-.25,0-1.63,0-2.73-.59-3.39-1.11-.01.01-.02.02-.03.03-.64.58-1.77,1.29-3.52,1.36-1.48.06-2.96.13-4.44.21-.12,0-.23,0-.34,0-.96,0-1.73-.21-2.35-.5-.65.38-1.51.7-2.64.77-4.35.24-8.75.52-13.07.83-.17.01-.33.02-.48.02-1.68,0-2.81-.67-3.46-1.23-.66-.56-1.76-1.84-1.75-4.02v-1.03c-.38.1-.81.17-1.27.2-.36.02-.72.04-1.08.06v1.62c0,1.87-.78,3.08-1.43,3.77-.64.68-1.77,1.5-3.59,1.66-1.52.13-3.05.27-4.58.41-.21.02-.41.03-.6.03-1.72,0-2.87-.71-3.52-1.31-.61-.55-1.66-1.83-1.66-3.99v-19.27c0-1.94.83-3.18,1.52-3.87.69-.69,1.92-1.52,3.87-1.52h13.27c1.05,0,1.88.24,2.54.57.66-.32,1.49-.57,2.54-.57h7.34v-9.19c0-4.07,3.31-7.39,7.39-7.39h12.49c1.16,0,2.26.28,3.24.76.6-.59,1.43-1.2,2.57-1.64v-9.37c0-2.9,2.39-5.26,5.32-5.26,1.26,0,2.41.44,3.32,1.16h7.2s0-.09,0-.14c0-1.54.69-2.99,1.88-3.98,1.02-.85,2.32-1.3,3.74-1.3.41,0,7.63-.02,8.04-.02,1.43,0,2.72.45,3.74,1.3,1.19.99,1.88,2.45,1.88,3.98,0,.05,0,.09,0,.14h7.2c.91-.72,2.07-1.16,3.32-1.16,2.93,0,5.32,2.36,5.32,5.26v9.37c1.17.45,2.02,1.09,2.62,1.7,1-.5,2.13-.79,3.33-.79h12.35c4.11,0,7.46,3.35,7.46,7.46v9.12h5.27c1.04,0,1.86.24,2.51.55.65-.31,1.48-.55,2.51-.55h15.7c1.94,0,3.18.82,3.87,1.52.69.7,1.52,1.93,1.52,3.87v3.6Z" fill="#fff"/><path d="M128.05,26.07h-12.37c-2.33,0-4.23,1.93-4.23,4.3v8.76h20.82v-8.76c0-2.37-1.9-4.3-4.23-4.3Z" fill="#5f0b84"/><path d="M52.87,26.07h-12.51c-2.29,0-4.15,1.9-4.15,4.23v8.83h20.82v-8.83c0-2.33-1.86-4.23-4.15-4.23Z" fill="#5f0b84"/><path d="M111.18,29.41c.05-.33.22-2.04-1.06-3.43-.88-.95-2.13-1.43-3.72-1.43h-.52c.37-.38.6-.88.6-1.44v-10.8c0-1.14-.94-2.06-2.08-2.06-.84,0-1.56.49-1.89,1.2h-15.5c-.29-.17-.6-.33-.93-.46,0-.29,0-.58,0-.88h2.12c1.58,0,2.42-1.1,2.42-2.13,0-.58-.26-1.14-.71-1.52-.43-.37-1.01-.56-1.68-.56-.41,0-7.64.02-8.05.02-.66,0-1.24.19-1.68.56-.45.38-.71.94-.71,1.52,0,1.03.85,2.13,2.42,2.13h2.12c0,.29,0,.58,0,.88-.33.12-.62.27-.91.44h-15.53c-.33-.7-1.05-1.18-1.88-1.18-1.15,0-2.08.92-2.08,2.06v10.8c0,.56.23,1.07.6,1.44-.11,0-.19,0-.24,0h-.28c-1.59,0-2.84.48-3.72,1.43-1.29,1.39-1.11,3.1-1.06,3.43.1.7.55,1.27,1.16,1.56-.7.33-1.18,1.03-1.18,1.85s.49,1.52,1.18,1.85c-.7.33-1.18,1.03-1.18,1.85,0,1.14.94,2.06,2.08,2.06h6.54c3.1,0,7.29-2.62,8.1-3.14.43-.28.74-.72.87-1.21.54,2.2,1.37,4.35,1.42,4.48l.27.41,15.44-.02.27-.41c.05-.13.89-2.28,1.42-4.48.13.49.43.93.87,1.21.81.52,5,3.14,8.1,3.14h6.54c1.15,0,2.08-.92,2.08-2.06,0-.82-.49-1.52-1.18-1.85.7-.33,1.18-1.03,1.18-1.85s-.49-1.52-1.18-1.85c.61-.29,1.06-.86,1.16-1.56ZM100.22,19.34c-.88-1.24-2.53-2.1-4.57-2.7h6.66v6.47c0,.55.22,1.05.58,1.42h-.02c-1.13,0-2.3-.02-3.25-.02.48-.48.88-1.02,1.07-1.61.43-1.29.26-2.53-.47-3.56ZM67.72,22.92c.19.59.59,1.13,1.07,1.6-.96,0-2.14.01-3.27.02.36-.37.58-.87.58-1.42v-6.49h6.68c-2.05.6-3.71,1.47-4.59,2.72-.73,1.04-.89,2.27-.47,3.56ZM72.78,31.67c-.41,0-.8.12-1.14.34-1.3.84-3.43,1.95-4.92,2.33,1.08-.46,1.76-1.04,1.87-1.15.41-.38.65-.92.66-1.47,0-.55-.21-1.1-.61-1.49-.39-.39-.92-.6-1.47-.6s-1.04.2-1.4.54c0,0-.73.62-1.77.62h-3.44c.16-.12.31-.25.43-.41.32-.44.46-.97.39-1.44,0-.05,0-.12-.01-.12,0,0,0,0,0,0,.04-.03.25-.11.73-.11,0,0,1.59,0,2.97-.02,1.73-.01,3.69-.03,4.79-.03,1.42,0,1.85.3,2.63.92.37.3.84.46,1.31.46.26,0,.5-.06.74-.14-.11.44-.18.89-.18,1.36,0,.39.04.82.11,1.27-.39-.52-1.01-.83-1.67-.83ZM75.8,27.49c-.11-.44-.35-.84-.71-1.13-.52-.41-1.06-.81-1.72-1.12.07-.17.11-.33.12-.44.06-.77-.48-1.3-.96-1.77-.12-.12-.25-.24-.37-.37-.26-.29-.29-.43-.29-.43.1-.34,1.55-1.24,5.23-1.73.21-.03.45-.04.67-.06v5.64c-.76.34-1.43.83-1.98,1.43ZM96.53,22.18s-.01.15-.29.44c-.12.13-.25.26-.37.37-.48.47-1.02,1-.96,1.77,0,.11.04.27.12.44-.66.32-1.2.71-1.72,1.12-.36.29-.6.69-.71,1.13-.54-.6-1.22-1.09-1.97-1.43v-5.64c.22.02.45.04.66.06M95.63,31.65c-.66,0-1.28.31-1.67.83.06-.45.11-.88.11-1.27,0-.47-.07-.92-.18-1.36.23.09.48.14.74.14.48,0,.94-.16,1.31-.46.78-.62,1.21-.92,2.63-.92,1.1,0,3.06.02,4.79.03,1.38.01,2.33.02,2.75.02h.27c.4,0,.61.07.64.07,0,0,0,0,0,0,.01.03.02.1.03.1h0c-.08.54.06,1.07.38,1.51.12.16.27.29.43.41h-3.44c-1.02,0-1.74-.6-1.74-.6-.39-.36-.89-.56-1.43-.56s-1.08.21-1.47.6c-.4.4-.62.93-.61,1.49,0,.56.24,1.09.65,1.47.05.04.73.67,1.88,1.16-1.49-.38-3.63-1.49-4.93-2.33-.34-.22-.74-.34-1.14-.34Z" fill="#5f0b84"/><path d="M7.03,65.42c-.55,0-1-.16-1.35-.47-.4-.36-.6-.9-.6-1.59v-19.3c0-.67.19-1.21.57-1.58.37-.38.91-.57,1.58-.57h13.28c.66,0,1.18.18,1.56.53.4.38.59.9.59,1.56v3.29c0,.69-.2,1.21-.59,1.58-.38.36-.9.54-1.55.56-2.18.04-4.36.09-6.54.14v.83c1.35-.05,4.18-.14,4.18-.14.61,0,1.1.17,1.46.49.41.38.61.9.61,1.57v3.39c0,.65-.2,1.17-.57,1.55s-.88.56-1.52.6c-1.39.08-2.77.15-4.16.23v4.68c0,.65-.19,1.17-.55,1.56-.36.38-.86.59-1.51.65-1.53.13-3.07.27-4.6.42-.11,0-.21.01-.3.01Z" fill="#5f0b84"/><path d="M24.81,63.95c-.56,0-1.01-.15-1.35-.45-.28-.24-.62-.71-.62-1.56v-3.36c0-.65.2-1.17.58-1.54.36-.35.87-.55,1.52-.59l2.31-.12v-6.99s-1.63.03-1.63.03c-.7,0-1.2-.17-1.56-.5-.28-.25-.61-.73-.6-1.56v-3.35c0-.66.21-1.18.6-1.55.38-.35.9-.52,1.55-.52h8.64c.65,0,1.17.17,1.54.5.28.25.61.72.61,1.54l-.02,11.97,1.88-.08c.58,0,1.06.15,1.41.45.29.25.64.71.63,1.54v3.19c0,.8-.33,1.27-.6,1.53-.36.33-.86.52-1.5.56-4.36.24-8.79.52-13.14.84-.09,0-.17,0-.25,0Z" fill="#5f0b84"/><path d="M43.38,62.83c-.57,0-1.03-.15-1.38-.43-.29-.24-.64-.71-.64-1.54l.03-16.93c0-.81.34-1.28.62-1.53.37-.33.89-.49,1.53-.49h3.1c.52,0,.96.07,1.36.23.41.16.8.42,1.16.78,1.31,1.29,2.62,2.58,3.93,3.86v-2.87c0-.81.35-1.27.64-1.52.37-.31.88-.47,1.52-.47h4.47c.64,0,1.14.15,1.51.46.29.25.64.71.64,1.52l-.02,16.28c0,.8-.34,1.26-.63,1.51-.37.32-.86.48-1.5.5-1.49.04-2.97.09-4.46.15h-.13c-.58,0-1.06-.14-1.41-.43-.3-.24-.65-.71-.65-1.53v-2.68c-.97-.98-1.95-1.97-2.93-2.97v5.84c0,.8-.34,1.27-.62,1.52-.36.33-.86.5-1.5.53-1.49.06-2.98.13-4.46.21h-.18Z" fill="#5f0b84"/><path d="M65.35,62.03c-.61,0-1.08-.14-1.44-.44-.29-.24-.65-.7-.65-1.52v-2.93c0-.8.35-1.27.64-1.51.37-.32.86-.47,1.5-.49,1-.02,2-.03,3-.05-1.37-.2-2.51-.61-3.4-1.24-1.15-.8-1.73-2.1-1.73-3.87v-2.62c0-1.76.73-3.2,2.11-4.15,1.27-.88,3-1.33,5.14-1.33h8.35c.64,0,1.13.15,1.51.46.29.25.64.71.64,1.51v2.94c0,.81-.35,1.27-.65,1.51-.37.31-.86.46-1.5.46-.52,0-1.04,0-1.56,0,1.2.23,2.22.62,3.04,1.19,1.16.8,1.75,2.1,1.75,3.85v2.59c0,1.74-.74,3.17-2.13,4.12-1.27.87-2.99,1.33-5.11,1.35-3.14.04-6.27.09-9.41.16h-.09Z" fill="#5f0b84"/><path d="M97.54,61.92c-4.25-.07-8.52-.1-12.69-.1-.64,0-1.14-.15-1.51-.46-.29-.24-.65-.7-.65-1.51v-2.94c0-.81.35-1.27.65-1.51.37-.31.87-.46,1.51-.46h1.87s0-6.12,0-6.12h-1.87c-.64,0-1.13-.15-1.51-.46-.29-.24-.64-.7-.64-1.51v-2.98c0-.81.35-1.27.64-1.51.37-.31.87-.46,1.51-.46h12.69c.64,0,1.14.15,1.51.46.29.24.64.71.64,1.51v3c0,.81-.35,1.27-.64,1.51-.37.31-.86.46-1.49.46h-1.82s0,6.16,0,6.16l1.82.02c.64,0,1.13.16,1.5.48.29.25.64.71.64,1.51v2.95c0,.81-.35,1.27-.65,1.51-.37.3-.84.44-1.46.44h-.06Z" fill="#5f0b84"/><path d="M118.65,62.52c-3.12-.13-6.25-.24-9.38-.33-2.73-.08-4.74-.6-6.13-1.6-1.5-1.07-2.26-2.67-2.26-4.75v-7.78c0-2.09.75-3.68,2.25-4.72,1.4-.97,3.41-1.44,6.14-1.44h7.45c.64,0,1.15.16,1.52.48.29.25.63.71.63,1.52v3.1c0,.81-.34,1.28-.63,1.52-.37.31-.87.47-1.49.47-2.11-.02-6.24-.06-6.24-.06-.58,0-.74.11-.74.11l.03,6.06c0,.08,0,.13.01.16,0,0,0,0,0,0,.03,0,.12.02.3.03l1.78.04v-2.85c0-.82.34-1.28.64-1.52.36-.3.85-.45,1.46-.45,1.6.03,3.14.05,4.68.08.65.01,1.14.18,1.51.5.29.25.62.72.62,1.52v7.94c.02.82-.34,1.29-.63,1.53-.35.29-.82.43-1.39.43h-.16Z" fill="#5f0b84"/><path d="M140.75,63.73c-1.54-.1-3.07-.2-4.61-.3-.64-.04-1.14-.24-1.5-.58-.26-.25-.58-.73-.58-1.53v-4.92c-.95-.04-1.88-.07-2.82-.1v4.74c0,.83-.34,1.3-.63,1.54-.35.29-.81.44-1.37.44-.06,0-.13,0-.2,0-1.54-.08-3.07-.16-4.61-.24-.63-.03-1.13-.21-1.5-.54-.28-.25-.6-.72-.61-1.52l-.03-16.78c0-.84.34-1.31.62-1.56.38-.33.89-.49,1.53-.49h4.62c.65,0,1.17.17,1.54.5.28.25.62.72.62,1.54v4.67c.95.02,1.88.04,2.82.06v-4.71c0-.82.32-1.29.6-1.54.37-.34.89-.51,1.54-.51h4.62c.66,0,1.18.17,1.55.52.28.25.6.73.6,1.55l.03,17.74c0,.87-.34,1.34-.63,1.59-.35.29-.8.44-1.36.44,0,0-.15,0-.24,0Z" fill="#5f0b84"/><path d="M156.31,64.93c-.09,0-.18,0-.28-.01-1.61-.14-3.21-.27-4.81-.4-.64-.05-1.15-.26-1.51-.63-.37-.38-.56-.9-.56-1.55v-12.83s-3.29-.07-3.29-.07c-.7-.01-1.21-.2-1.58-.55-.39-.37-.59-.89-.59-1.55v-3.36c0-.66.2-1.18.59-1.55.37-.35.89-.52,1.55-.52h15.73c.67,0,1.21.19,1.58.57s.57.91.57,1.58v3.6c0,.68-.19,1.21-.58,1.59-.37.36-.88.54-1.52.54l-3.35-.08v13.18c0,.69-.2,1.22-.61,1.58-.34.3-.79.46-1.35.46Z" fill="#5f0b84"/><path d="M20.52,42.33H7.23c-.38,0-.65.08-.82.25-.17.17-.25.44-.25.82v19.3c0,.38.08.64.25.8.17.15.44.21.82.18,1.54-.14,3.07-.28,4.61-.42.38-.03.65-.14.82-.32.17-.18.25-.45.25-.82,0-1.9,0-3.8,0-5.7,1.73-.1,3.45-.2,5.18-.29.38-.02.65-.11.82-.28.17-.17.25-.43.25-.79,0-1.13,0-2.26,0-3.39,0-.36-.08-.61-.25-.77-.17-.15-.44-.23-.82-.21-1.73.06-3.45.12-5.18.18,0-1,0-2.01,0-3.01,2.53-.06,5.06-.11,7.59-.16.38,0,.65-.09.82-.25.17-.16.25-.42.25-.77,0-1.11,0-2.22,0-3.33,0-.35-.08-.61-.25-.77-.17-.16-.44-.24-.82-.24Z" fill="#fff"/><path d="M38.15,56.27c-.95.04-1.91.08-2.86.12,0-4.37.02-8.73.02-13.1,0-.34-.08-.58-.25-.73-.17-.15-.44-.23-.82-.23h-8.64c-.38,0-.65.08-.82.23-.17.16-.25.41-.25.76,0,1.12,0,2.23,0,3.35,0,.35.08.6.25.76.17.15.44.23.82.22.91-.02,1.83-.03,2.74-.05,0,3.04,0,6.08-.01,9.12-1.11.06-2.22.11-3.33.17-.38.02-.65.11-.82.28-.17.17-.25.43-.25.78,0,1.12,0,2.24,0,3.35,0,.35.08.6.25.74.17.14.44.2.82.18,4.39-.31,8.77-.59,13.16-.84.38-.02.65-.11.82-.27.17-.16.25-.4.25-.74,0-1.06,0-2.13,0-3.19,0-.33-.08-.57-.25-.71-.17-.14-.44-.21-.82-.19Z" fill="#fff"/><path d="M59.71,42.33h-4.47c-.38,0-.65.07-.82.22-.17.14-.25.38-.25.7,0,1.81,0,3.61,0,5.42-1.92-1.86-3.85-3.73-5.77-5.64-.26-.26-.52-.44-.79-.54-.27-.1-.59-.15-.97-.15h-3.1c-.38,0-.65.07-.82.22-.17.15-.25.39-.25.72,0,5.64-.02,11.29-.03,16.93,0,.33.08.57.25.71.17.14.44.2.82.18,1.49-.07,2.98-.14,4.47-.21.38-.02.65-.1.82-.25.17-.15.25-.39.25-.72,0-2.83,0-5.66.01-8.48,1.7,1.74,3.39,3.46,5.09,5.16,0,1.04,0,2.08,0,3.13,0,.32.08.55.25.69.17.14.44.2.82.19,1.49-.05,2.98-.1,4.47-.14.38-.01.65-.09.82-.24.17-.15.25-.38.25-.7,0-5.43.01-10.86.02-16.28,0-.32-.08-.55-.25-.69-.17-.14-.44-.21-.82-.21Z" fill="silver"/><path d="M79.73,50.2c-.85-.59-1.98-.97-3.37-1.13-1.48-.16-2.96-.32-4.44-.48-.26-.01-.46-.1-.6-.24-.14-.15-.21-.33-.21-.54,0-.21.07-.39.21-.53.14-.14.34-.21.6-.21,2.31,0,4.63-.02,6.94-.02.38,0,.65-.07.82-.21.17-.14.25-.37.25-.68,0-.98,0-1.96,0-2.94,0-.31-.08-.54-.25-.68-.17-.14-.44-.21-.82-.21h-8.34c-1.93,0-3.44.38-4.53,1.14-1.09.76-1.64,1.85-1.64,3.26,0,.87,0,1.75,0,2.62,0,1.4.42,2.4,1.26,2.98.84.59,1.96.96,3.35,1.11,1.49.16,2.98.32,4.47.48.26.01.45.09.58.22.13.13.19.34.19.62,0,.2-.06.37-.19.51-.13.14-.32.21-.58.22-2.67.03-5.35.06-8.02.11-.38,0-.65.08-.82.23-.17.14-.25.38-.25.69,0,.97,0,1.95,0,2.92,0,.32.08.54.25.68.17.14.44.2.82.19,3.14-.07,6.28-.13,9.42-.16,1.91-.02,3.41-.41,4.52-1.16,1.1-.75,1.66-1.83,1.66-3.23,0-.86,0-1.73,0-2.59,0-1.38-.43-2.37-1.28-2.96Z" fill="silver"/><path d="M98.37,55.67c-.17-.14-.44-.22-.82-.22-.96-.01-1.93-.02-2.89-.03,0-2.77,0-5.54,0-8.32.96,0,1.93,0,2.89.01.38,0,.65-.07.82-.21.17-.14.25-.37.25-.68,0-1,0-2,0-3,0-.31-.09-.54-.25-.68-.17-.14-.44-.21-.82-.21h-12.69c-.38,0-.65.07-.82.21-.17.14-.25.37-.25.68,0,.99,0,1.99,0,2.98,0,.31.08.54.25.68.17.14.44.21.82.21.98,0,1.97,0,2.95,0,0,2.76,0,5.53,0,8.29-.98,0-1.97,0-2.95,0-.38,0-.65.07-.82.21-.17.14-.25.37-.25.68,0,.98,0,1.96,0,2.93,0,.31.08.54.25.68.17.14.44.21.82.21,4.23,0,8.47.04,12.7.1.38,0,.65-.06.82-.2.17-.14.25-.36.25-.68v-2.96c0-.31-.09-.54-.26-.69Z" fill="silver"/><path d="M119.49,51.26c-.17-.15-.44-.23-.82-.23-1.54-.03-3.08-.06-4.62-.08-.38,0-.65.06-.82.2-.17.14-.25.37-.25.69,0,1.32,0,2.64,0,3.95-.96-.02-1.93-.05-2.89-.07-.46-.01-.8-.12-1.03-.33-.23-.21-.34-.52-.34-.94,0-2,0-4.01,0-6.01,0-.42.15-.73.45-.94.3-.21.75-.31,1.37-.3,2.07.02,4.13.04,6.2.06.38,0,.65-.07.82-.21.17-.14.25-.38.25-.7,0-1.03,0-2.06,0-3.1,0-.32-.09-.56-.25-.7-.17-.14-.44-.22-.82-.22h-7.45c-2.48,0-4.32.42-5.52,1.25-1.2.83-1.8,2.11-1.8,3.84,0,2.59,0,5.18,0,7.78,0,1.73.6,3.02,1.81,3.88,1.2.86,3.05,1.32,5.53,1.4,3.13.09,6.26.21,9.39.33.38.02.65-.05.82-.18.17-.14.25-.37.25-.7,0-2.65,0-5.3-.01-7.94,0-.33-.09-.56-.25-.71Z" fill="silver"/><path d="M141.61,42.56c-.17-.16-.44-.23-.82-.23h-4.62c-.38,0-.65.08-.82.23-.17.15-.25.4-.25.74,0,1.94,0,3.88,0,5.82-1.66-.04-3.32-.07-4.97-.1,0-1.91,0-3.82-.01-5.73,0-.33-.09-.58-.25-.73-.17-.15-.44-.22-.82-.22h-4.62c-.38,0-.65.07-.82.22-.17.15-.25.38-.25.71,0,5.6.02,11.2.03,16.81,0,.33.09.57.25.72.17.16.44.24.82.26,1.54.07,3.08.15,4.62.24.38.02.65-.04.82-.18.17-.14.25-.38.25-.71,0-1.95,0-3.91-.01-5.86,1.66.06,3.32.12,4.97.19,0,1.98,0,3.97.01,5.95,0,.34.09.59.25.75.17.16.44.26.82.28,1.54.1,3.08.2,4.61.3.38.03.65-.03.82-.18.17-.14.25-.39.25-.74,0-5.92-.02-11.85-.03-17.77,0-.35-.09-.6-.25-.75Z" fill="silver"/><path d="M162.37,42.58c-.17-.17-.44-.25-.82-.25h-15.73c-.38,0-.65.08-.82.24-.17.16-.25.41-.25.76,0,1.12,0,2.24,0,3.35,0,.35.08.61.25.77.17.16.44.24.82.25,1.46.03,2.92.06,4.38.09,0,4.63,0,9.26.01,13.89,0,.36.08.62.25.8.17.17.44.28.82.31,1.61.13,3.21.26,4.82.4.38.03.65-.03.82-.18.17-.15.25-.41.25-.78,0-4.76,0-9.52,0-14.29,1.46.03,2.92.07,4.38.11.38,0,.65-.07.82-.23.17-.16.25-.44.25-.81v-3.6c0-.38-.08-.65-.25-.82Z" fill="silver"/><path d="M59.29,30.45s.09,0,.14,0c.55-.07.93-.54.86-1.06,0,0-.07-.6.3-.98.35-.36,1.02-.43,1.51-.42.24,0,1.28,0,2.94-.02,1.73-.01,3.7-.03,4.8-.03,1.73,0,2.4.43,3.29,1.13.43.33,1.06.28,1.42-.12.36-.4.3-1-.13-1.33-1.1-.86-2.2-1.58-4.58-1.58-1.11,0-3.08.02-4.82.03-1.37.01-2.66.02-2.89.02-1.35-.02-2.37.34-3.05,1.07-.96,1.02-.8,2.33-.78,2.47.07.47.5.82,1,.82Z" fill="#fff"/><path d="M75.42,31.56c0,2.45,1.8,6.96,1.8,6.96l13.97-.02s1.8-4.5,1.8-6.96-2.15-4.52-4.81-4.52l-7.94.02c-2.66,0-4.81,2.07-4.81,4.52Z" fill="#fff"/><path d="M93.98,27.6c-.43.33-.48.93-.13,1.33.36.4.99.45,1.42.12.9-.71,1.57-1.13,3.29-1.13,1.11,0,3.07.02,4.8.03,1.67.01,2.7.02,2.94.02.49,0,1.16.06,1.51.42.37.38.3.98.3.98-.08.52.31.99.86,1.06.05,0,.09,0,.14,0,.49,0,.93-.35,1-.82.02-.15.18-1.45-.78-2.47-.69-.73-1.71-1.09-3.05-1.07-.23,0-1.52,0-2.89-.02-1.74-.01-3.71-.03-4.82-.03-2.39,0-3.49.71-4.58,1.58Z" fill="#fff"/><path d="M97.03,23.84c-.64.68-1.4,1.18-.84,1.56.56.39,3-.96,3.47-2.38,1.59-4.74-7.79-5.95-15.46-5.95s-17.05,1.23-15.46,5.97c.48,1.42,2.91,2.76,3.47,2.38.56-.39-.2-.88-.84-1.56-2.57-2.75,4.16-3.75,5.59-3.93,1.42-.19,2.87-.25,4.31-.24,1.09.01,1.9.81,1.99,1.83.09,1.12.09,2.25.1,3.38,0,.49.24.95.83.95s.83-.47.83-.96c0-1.13,0-2.26.1-3.38.09-1.02.9-1.82,1.99-1.83,1.44-.02,2.89.05,4.31.24,1.43.19,8.16,1.19,5.59,3.93Z" fill="#fff"/><path d="M78.21,13.19h-11.11v2.94h9.93c0-1.94,1.18-2.94,1.18-2.94Z" fill="#fff"/><path d="M64.01,24.54c.55,0,1-.42,1-.94v-10.62c0-.52-.45-.94-1-.94s-1,.42-1,.94v10.62c0,.52.45.94,1,.94Z" fill="#fff"/><path d="M91.38,16.12h9.93v-2.94h-11.11s1.18,1,1.18,2.94Z" fill="#fff"/><path d="M104.39,24.52c.56,0,1-.42,1-.94v-10.62c0-.52-.45-.94-1-.94s-1,.42-1,.94v10.62c0,.52.45.94,1,.94Z" fill="#fff"/><path d="M131.19,30.99c0-1.75-1.41-3.17-3.15-3.17h-12.36c-1.74,0-3.15,1.42-3.15,3.17v7.53h18.66v-7.53Z" fill="silver"/><path d="M55.94,30.92c0-1.71-1.38-3.1-3.07-3.1h-12.51c-1.7,0-3.07,1.39-3.07,3.1v7.6h18.66v-7.6Z" fill="silver"/><path d="M73.34,34.77c.46-.3.58-.89.27-1.32-.31-.44-.94-.55-1.4-.25-1.13.73-4.49,2.61-6.39,2.61h-6.54c-.56,0-1,.43-1,.95s.45.95,1,.95h6.54c2.86,0,7.05-2.64,7.52-2.94Z" fill="silver"/><path d="M66.46,31.27s-.99.87-2.47.87h-4.7c-.56,0-1,.43-1,.95s.45.95,1,.95h4.7c2.3,0,3.81-1.35,3.87-1.41.4-.37.41-.97.02-1.35-.39-.38-1.02-.39-1.42-.02Z" fill="silver"/><path d="M109.12,35.79h-6.54c-1.9,0-5.26-1.89-6.39-2.61-.46-.29-1.08-.18-1.4.25-.31.43-.19,1.03.27,1.32.47.3,4.66,2.94,7.52,2.94h6.54c.56,0,1-.43,1-.95s-.45-.95-1-.95Z" fill="silver"/><path d="M109.12,32.13h-4.7c-1.48,0-2.46-.87-2.47-.87-.4-.37-1.03-.36-1.42.02-.39.38-.38.98.02,1.35.06.06,1.56,1.41,3.87,1.41h4.7c.56,0,1-.43,1-.95s-.45-.95-1-.95Z" fill="silver"/><path d="M80.21,9.52c.71,0,2.09,0,3.2,0,0,.78-.01,1.49,0,2.2,0,.37-.08.56-.51.71-1.61.54-2.62,1.62-3.06,3.28.42-.06,1.9-.17,2.25-.17.53-1.06.87-1.75,2.1-1.75s1.57.67,2.1,1.73c.35,0,1.83.11,2.25.17-.44-1.66-1.45-2.74-3.06-3.28-.43-.14-.52-.34-.51-.71.02-.71,0-1.42,0-2.2,1.11,0,2.5,0,3.2,0,1.75,0,1.83-2,.03-2-.82,0-7.23.02-8.05.02-1.79,0-1.71,2,.03,2Z" fill="silver"/><path d="M81,22.21s.1-.86-.71-1.08c-.81-.21-1.43.12-1.43.12v4.11c.94-.34,2.14-.26,2.14-.26v-2.89Z" fill="silver"/><path d="M87.41,22.21s-.1-.86.71-1.08c.81-.21,1.43.12,1.43.12v4.11c-.94-.34-2.14-.26-2.14-.26v-2.89Z" fill="silver"/></svg>