<?xml version="1.0" encoding="UTF-8"?><svg id="a" xmlns="http://www.w3.org/2000/svg" viewBox="0 0 366.1 129.66"><path d="M33.59,79.7H2.51c-.88,0-1.52.2-1.92.59-.4.4-.59,1.04-.59,1.92v45.16c0,.88.2,1.5.59,1.86.39.36,1.03.49,1.91.41,3.59-.33,7.19-.66,10.78-.97.88-.08,1.52-.32,1.91-.74.39-.42.59-1.05.59-1.91,0-4.45,0-8.89,0-13.34,4.04-.24,8.08-.46,12.11-.68.88-.05,1.52-.27,1.92-.66.39-.39.59-1.01.59-1.85,0-2.64,0-5.28,0-7.92,0-.84-.2-1.43-.59-1.8-.39-.36-1.03-.53-1.91-.5-4.04.13-8.08.27-12.12.41,0-2.35,0-4.69,0-7.04,5.92-.14,11.84-.26,17.77-.38.88-.02,1.52-.22,1.92-.6.39-.38.59-.98.59-1.81,0-2.6,0-5.19,0-7.79,0-.83-.2-1.43-.59-1.8-.4-.37-1.03-.56-1.92-.56Z" fill="#fff"/><path d="M74.86,112.31c-2.23.09-4.46.18-6.69.28.02-10.22.04-20.43.05-30.65,0-.79-.2-1.36-.59-1.72-.39-.35-1.03-.53-1.92-.53h-20.21c-.88,0-1.52.18-1.92.55-.4.37-.59.96-.59,1.78,0,2.61,0,5.22-.01,7.83,0,.82.19,1.41.59,1.77.39.36,1.03.53,1.92.51,2.14-.04,4.27-.08,6.41-.12-.01,7.11-.02,14.22-.03,21.33-2.6.13-5.2.26-7.8.4-.88.05-1.52.26-1.92.65-.4.39-.59.99-.59,1.82,0,2.62,0,5.23-.01,7.85,0,.82.19,1.4.59,1.74.39.34,1.03.48,1.91.41,10.26-.74,20.52-1.39,30.79-1.96.88-.05,1.52-.26,1.92-.63.39-.37.59-.95.6-1.73,0-2.49,0-4.98.01-7.47,0-.78-.2-1.34-.59-1.67-.4-.33-1.03-.48-1.92-.45Z" fill="#fff"/><path d="M125.31,79.7h-10.45c-.88,0-1.52.17-1.92.51-.4.34-.59.88-.6,1.64,0,4.22-.01,8.45-.02,12.67-4.5-4.35-9-8.74-13.5-13.19-.6-.6-1.22-1.02-1.85-1.26-.63-.24-1.38-.36-2.26-.36h-7.25c-.88,0-1.52.17-1.92.52-.4.35-.59.91-.6,1.68-.02,13.21-.05,26.42-.07,39.62,0,.77.2,1.33.59,1.65.39.33,1.03.47,1.92.42,3.49-.17,6.97-.33,10.46-.49.88-.04,1.52-.24,1.92-.59.39-.36.59-.92.6-1.68.01-6.62.02-13.23.03-19.85,3.97,4.07,7.93,8.09,11.9,12.08,0,2.44,0,4.88-.01,7.32,0,.75.2,1.29.59,1.61.39.32,1.03.47,1.92.44,3.49-.12,6.97-.24,10.46-.34.88-.03,1.52-.21,1.92-.56.4-.34.59-.89.59-1.63.02-12.7.03-25.4.05-38.1,0-.74-.2-1.28-.59-1.62-.39-.33-1.03-.5-1.92-.5Z" fill="#bcbcbc"/><path d="M172.14,98.12c-2-1.38-4.62-2.26-7.88-2.63-3.46-.37-6.93-.74-10.39-1.11-.6-.03-1.07-.23-1.39-.57-.33-.35-.49-.77-.49-1.27,0-.5.16-.92.49-1.25.32-.33.79-.5,1.39-.5,5.41-.02,10.83-.04,16.24-.05.88,0,1.52-.17,1.92-.49.39-.33.59-.86.59-1.59,0-2.29,0-4.58,0-6.87,0-.73-.2-1.26-.59-1.59-.4-.33-1.03-.49-1.92-.49h-19.51c-4.51,0-8.04.88-10.6,2.66-2.56,1.77-3.84,4.32-3.84,7.64,0,2.05,0,4.09,0,6.14,0,3.28.98,5.6,2.96,6.98,1.97,1.38,4.59,2.24,7.84,2.59,3.49.37,6.97.74,10.46,1.11.6.03,1.06.2,1.36.51.3.31.45.79.45,1.44,0,.46-.15.86-.45,1.19-.3.33-.76.5-1.36.51-6.25.06-12.51.14-18.76.25-.88.01-1.52.19-1.92.53-.4.34-.59.88-.59,1.62,0,2.28,0,4.56,0,6.84,0,.74.2,1.27.59,1.59.39.32,1.03.47,1.92.45,7.35-.17,14.7-.29,22.05-.38,4.47-.05,7.99-.95,10.57-2.72,2.58-1.77,3.87-4.28,3.87-7.55,0-2.02,0-4.04,0-6.06,0-3.23-1-5.54-3-6.92Z" fill="#bcbcbc"/><path d="M215.77,110.92c-.4-.33-1.04-.51-1.92-.52-2.26-.03-4.51-.05-6.77-.07,0-6.49,0-12.97-.01-19.46,2.25,0,4.51.02,6.76.03.88,0,1.52-.16,1.92-.49.39-.33.59-.86.59-1.6,0-2.34,0-4.69,0-7.03,0-.74-.2-1.27-.59-1.6-.4-.33-1.03-.49-1.92-.49h-29.69c-.88,0-1.52.16-1.92.49-.4.33-.59.86-.59,1.59,0,2.33,0,4.65,0,6.98,0,.73.2,1.26.59,1.59.39.33,1.03.49,1.92.49,2.3,0,4.6,0,6.9,0,0,6.47,0,12.93,0,19.4-2.3,0-4.6-.01-6.91-.01-.88,0-1.52.16-1.92.49-.4.33-.59.86-.59,1.59,0,2.29,0,4.58,0,6.87,0,.73.2,1.26.59,1.59.4.33,1.03.49,1.92.49,9.91,0,19.82.09,29.72.24.88.01,1.52-.14,1.92-.46.39-.32.59-.85.59-1.59v-6.91c0-.74-.21-1.27-.6-1.61Z" fill="#bcbcbc"/><path d="M265.19,100.59c-.4-.35-1.04-.53-1.92-.55-3.6-.07-7.2-.14-10.81-.2-.88-.01-1.52.14-1.92.47-.39.33-.59.87-.59,1.62,0,3.08,0,6.17.01,9.25-2.25-.06-4.51-.11-6.76-.16-1.07-.02-1.87-.28-2.41-.76-.54-.48-.8-1.21-.8-2.2,0-4.69-.01-9.38-.02-14.07,0-.98.35-1.71,1.04-2.2.7-.48,1.76-.72,3.21-.71,4.83.04,9.67.09,14.5.14.88,0,1.52-.15,1.92-.49.39-.33.59-.88.59-1.64,0-2.42,0-4.83-.01-7.25,0-.76-.2-1.31-.6-1.65-.4-.34-1.04-.51-1.92-.51h-17.42c-5.81,0-10.12.98-12.92,2.92-2.81,1.94-4.21,4.93-4.21,8.97,0,6.06.01,12.13.02,18.19,0,4.04,1.41,7.06,4.23,9.07,2.81,2.01,7.13,3.09,12.94,3.27,7.32.22,14.65.48,21.97.78.88.04,1.52-.11,1.92-.43.39-.32.59-.87.59-1.63-.01-6.2-.02-12.39-.03-18.59,0-.76-.2-1.32-.6-1.67Z" fill="#bcbcbc"/><path d="M316.94,80.24c-.4-.36-1.04-.55-1.92-.55h-10.8c-.88,0-1.52.18-1.92.53-.39.36-.59.93-.59,1.72,0,4.54.02,9.08.02,13.62-3.88-.08-7.76-.16-11.64-.24,0-4.47-.02-8.94-.02-13.41,0-.78-.2-1.35-.6-1.7-.4-.35-1.04-.53-1.92-.53h-10.8c-.88,0-1.52.17-1.92.52-.39.34-.59.9-.59,1.67.02,13.11.05,26.21.07,39.32,0,.77.2,1.33.6,1.7.39.36,1.03.56,1.92.61,3.6.17,7.2.36,10.8.55.88.05,1.52-.09,1.92-.42.39-.33.59-.88.59-1.67,0-4.57-.02-9.15-.02-13.72,3.88.14,7.76.28,11.64.43,0,4.64.02,9.29.02,13.93,0,.79.2,1.38.59,1.76.39.38,1.03.6,1.92.65,3.6.22,7.2.46,10.8.7.88.06,1.52-.08,1.91-.41.39-.34.59-.91.59-1.72-.02-13.86-.04-27.72-.06-41.59,0-.81-.2-1.4-.6-1.77Z" fill="#bcbcbc"/><path d="M365.51,80.29c-.39-.39-1.03-.59-1.92-.59h-36.8c-.88,0-1.52.18-1.92.55-.39.37-.59.96-.59,1.78,0,2.62,0,5.23.01,7.85,0,.82.2,1.42.59,1.79.39.38,1.03.57,1.92.59,3.41.07,6.83.14,10.24.21.01,10.83.02,21.67.03,32.5,0,.84.2,1.46.59,1.87.39.41,1.03.65,1.91.72,3.76.3,7.52.62,11.27.94.88.08,1.52-.06,1.91-.41.39-.35.59-.96.59-1.82,0-11.14-.01-22.29-.02-33.43,3.41.08,6.83.16,10.24.25.88.02,1.52-.16,1.92-.54.39-.38.59-1.02.59-1.9v-8.43c0-.88-.2-1.52-.59-1.92Z" fill="#bcbcbc"/><path d="M149,42.83c-2.61,0-7.21.04-11.28.07-3.2.03-6.23.05-6.77.04-3.16-.05-5.54.79-7.15,2.49-2.25,2.39-1.88,5.44-1.83,5.78.16,1.11,1.17,1.92,2.33,1.92.11,0,.21,0,.32-.02,1.29-.17,2.19-1.27,2.01-2.48,0-.01-.16-1.4.7-2.3.82-.84,2.38-1,3.53-.98.57,0,2.99-.01,6.89-.04,4.05-.03,8.65-.07,11.24-.07,4.04,0,5.61,1,7.71,2.66,1,.78,2.48.66,3.31-.28.83-.94.7-2.33-.3-3.11-2.56-2.02-5.14-3.69-10.73-3.69Z" fill="#fff"/><path d="M191.9,45.11l-18.58.04c-6.22,0-11.26,4.85-11.26,10.58s4.2,16.28,4.2,16.28l32.7-.04s4.2-10.54,4.2-16.28-5.04-10.58-11.26-10.58Z" fill="#fff"/><path d="M234.27,42.9c-.54,0-3.57-.02-6.77-.04-4.06-.03-8.67-.07-11.28-.07-5.58,0-8.16,1.67-10.73,3.69-1,.78-1.13,2.18-.29,3.11.83.94,2.32,1.06,3.31.28,2.1-1.65,3.67-2.66,7.71-2.66,2.59,0,7.18.04,11.24.07,3.9.03,6.32.05,6.89.04,1.15-.02,2.72.14,3.53.98.86.89.71,2.28.7,2.3-.18,1.21.72,2.31,2.01,2.48.11.01.22.02.32.02,1.16,0,2.17-.81,2.33-1.92.05-.34.42-3.4-1.83-5.78-1.6-1.7-3.99-2.54-7.15-2.49Z" fill="#fff"/><path d="M146.44,35.81c1.11,3.32,6.82,6.47,8.13,5.56,1.31-.91-.47-2.06-1.97-3.66-6-6.43,9.73-8.77,13.09-9.21,3.33-.44,6.72-.59,10.09-.56,2.55.03,4.45,1.89,4.65,4.28.22,2.63.22,5.27.24,7.91,0,1.15.57,2.21,1.94,2.21s1.93-1.11,1.94-2.26c.02-2.64.02-5.28.24-7.91.2-2.39,2.1-4.25,4.65-4.28,3.36-.04,6.76.12,10.09.56,3.36.44,19.09,2.78,13.09,9.21-1.5,1.6-3.28,2.75-1.97,3.66,1.31.91,7.02-2.24,8.13-5.56,3.72-11.1-18.22-13.92-36.17-13.92s-39.89,2.87-36.17,13.97Z" fill="#fff"/><path d="M168.58,12.76h-25.99v6.89h23.23c0-4.54,2.76-6.89,2.76-6.89Z" fill="#fff"/><path d="M135.37,39.3c1.3,0,2.35-.99,2.35-2.21V12.25c0-1.22-1.05-2.21-2.35-2.21s-2.35.99-2.35,2.21v24.84c0,1.22,1.05,2.21,2.35,2.21Z" fill="#fff"/><path d="M199.4,19.6h23.23v-6.89h-25.99s2.76,2.35,2.76,6.89Z" fill="#fff"/><path d="M229.85,39.25c1.3,0,2.35-.99,2.35-2.21V12.2c0-1.22-1.05-2.21-2.35-2.21s-2.35.99-2.35,2.21v24.84c0,1.22,1.05,2.21,2.35,2.21Z" fill="#fff"/><path d="M292.55,53.75c0-4.06-3.3-7.36-7.36-7.36h-28.93c-4.06,0-7.36,3.3-7.36,7.36v18.26h43.65v-18.26Z" fill="#bcbcbc"/><path d="M116.49,53.59c0-3.97-3.22-7.19-7.19-7.19h-29.27c-3.97,0-7.19,3.22-7.19,7.19v18.43h43.65v-18.43Z" fill="#bcbcbc"/><path d="M157.2,63.3c1.07-.69,1.35-2.06.62-3.07-.73-1.01-2.19-1.27-3.27-.59-2.65,1.69-10.5,6.07-14.95,6.07h-15.3c-1.3,0-2.35.99-2.35,2.21s1.05,2.21,2.35,2.21h15.3c6.69,0,16.49-6.13,17.59-6.83Z" fill="#bcbcbc"/><path d="M141.08,55.18s-2.33,2.03-5.78,2.03h-11c-1.3,0-2.35.99-2.35,2.21s1.05,2.21,2.35,2.21h11c5.39,0,8.9-3.14,9.05-3.28.93-.85.96-2.25.05-3.12-.9-.88-2.39-.9-3.33-.05Z" fill="#bcbcbc"/><path d="M240.92,65.67h-15.3c-4.45,0-12.3-4.38-14.95-6.07-1.07-.68-2.54-.42-3.27.59-.73,1.01-.45,2.38.62,3.07,1.1.7,10.9,6.83,17.59,6.83h15.3c1.3,0,2.35-.99,2.35-2.21s-1.05-2.21-2.35-2.21Z" fill="#bcbcbc"/><path d="M240.92,57.17h-11c-3.45,0-5.76-2.01-5.78-2.03-.93-.85-2.42-.83-3.33.05-.9.88-.88,2.28.05,3.12.15.13,3.66,3.28,9.05,3.28h11c1.3,0,2.35-.99,2.35-2.21s-1.05-2.21-2.35-2.21Z" fill="#bcbcbc"/><path d="M173.27,4.68c1.65,0,4.9,0,7.49,0,0,1.82-.03,3.46.01,5.11.02.86-.18,1.31-1.2,1.64-3.76,1.24-6.12,3.77-7.15,7.62.98-.14,4.44-.39,5.27-.39,1.24-2.46,2.03-4.06,4.92-4.06s3.68,1.56,4.92,4.02c.82,0,4.29.25,5.27.39-1.03-3.85-3.39-6.37-7.15-7.62-1.02-.34-1.22-.78-1.2-1.64.04-1.64.01-3.29.01-5.11,2.6,0,5.84,0,7.49,0,4.09,0,4.27-4.64.08-4.64-1.92,0-16.92.04-18.84.04-4.19,0-4.01,4.64.08,4.64Z" fill="#bcbcbc"/><path d="M175.11,34.15s.22-2-1.66-2.5c-1.88-.49-3.35.28-3.35.28v9.54c2.21-.78,5.01-.6,5.01-.6v-6.72Z" fill="#bcbcbc"/><path d="M190.12,34.15s-.22-2,1.66-2.5c1.88-.49,3.35.28,3.35.28,0,0,0,6.91,0,9.54-2.21-.78-5.01-.6-5.01-.6v-6.72Z" fill="#bcbcbc"/></svg>