<?xml version="1.0" encoding="UTF-8"?><svg id="a" xmlns="http://www.w3.org/2000/svg" viewBox="0 0 376.31 156.93"><path d="M17.63,154.93c-4.06,0-7.73-1.38-10.59-3.98-3.25-2.95-5.04-7.18-5.04-11.9v-42.54c0-4.46,1.62-8.54,4.56-11.49,2.96-2.96,7.06-4.59,11.52-4.59h29.28c1.98,0,3.86.3,5.61.9,1.75-.6,3.63-.9,5.61-.9h12.29c.02-9.24,1.65-23.99,10.79-32.46l.9-.84,3.88-2.29,3.27-.16c.61-.03,1.85-.06,9.44-.06,6.47,0,14.76.03,18.92.04v-18.62c0-8.2,6.69-14.63,15.23-14.63,3.23,0,6.39.99,8.98,2.79h20.29c1.84-8.35,9.66-12.17,16.25-12.17.52,0,10.38.02,10.38.02,0,0,9.54-.02,10.01-.02,6.59,0,14.41,3.81,16.25,12.17h20.29c2.59-1.81,5.75-2.79,8.98-2.79,8.54,0,15.23,6.43,15.23,14.63v18.62c4.18-.01,12.4-.04,18.82-.04,7.59,0,8.83.03,9.46.07l3.25.16,3.88,2.29.9.84c9.14,8.48,10.77,23.22,10.79,32.47h5.38c1.96,0,3.82.29,5.55.87,1.73-.58,3.59-.87,5.54-.87h34.67c4.46,0,8.54,1.62,11.49,4.56,2.96,2.97,4.59,7.07,4.59,11.53v7.94c0,4.54-1.68,8.68-4.72,11.63-1.99,1.95-4.48,3.29-7.28,3.95v17.98c0,4.76-1.82,9.01-5.14,11.97-2.85,2.54-6.48,3.88-10.5,3.88-.55,0-1.11-.03-1.66-.08-3.46-.3-6.97-.59-10.49-.88-4.19-.33-7.84-2-10.57-4.82-.2-.2-.39-.42-.58-.63-.04.03-.08.07-.11.1-2.83,2.42-6.41,3.69-10.35,3.69-.43,0-.87-.02-1.34-.05-3.32-.22-6.69-.44-10.06-.66-2.81-.17-5.44-.97-7.69-2.3-2.09.95-4.38,1.43-6.84,1.43-.36,0-.73-.01-1.11-.03-3.3-.18-6.67-.35-10.04-.51-2.25-.11-4.36-.6-6.27-1.45-1.74.6-3.61.9-5.56.9-.11,0-.57,0-.79-.02-6.82-.28-13.74-.53-20.56-.73-6.38-.19-11.62-1.3-15.96-3.39-2.66,1.84-5.89,2.8-9.41,2.8h-.31c-9.19-.15-18.55-.22-27.8-.23-3.26,0-6.3-.83-8.85-2.4-3.8,1.61-8.19,2.46-13.07,2.52-6.93.08-13.86.2-20.61.35h-.44c-2.08,0-4.04-.32-5.85-.97-1.91.8-4,1.24-6.23,1.3-3.27.1-6.53.2-9.79.32-.21,0-.7.01-.7.01-2.6,0-5.1-.55-7.29-1.61-2.3,1.33-4.99,2.1-7.85,2.23-3.26.14-6.52.29-9.77.45-.35.02-.66.02-.96.02-1.73,0-3.39-.24-4.96-.72-1.79.75-3.74,1.19-5.8,1.31-9.59.53-19.28,1.15-28.8,1.83-.45.03-.92.05-1.36.05-3.96,0-7.55-1.29-10.38-3.72-1.33-1.14-2.43-2.49-3.28-3.99-.72,1.84-1.78,3.52-3.15,4.99-2.72,2.88-6.39,4.6-10.6,4.96-3.35.29-6.71.6-10.08.91-.58.05-1.16.08-1.72.08Z"/><path d="M199.23,4c5.9,0,12.91,3.43,14.37,10.95l.12.61.05.6h22.66c2.32-1.78,5.25-2.79,8.33-2.79,7.42,0,13.23,5.55,13.23,12.63v19.18c0,.49-.03.97-.09,1.45,2.62,0,13.09-.05,20.91-.05s8.78.03,9.36.06l2.76.14,3.27,1.93.75.69c9.18,8.51,10.34,23.92,10.13,33h7.4c2.18,0,4.02.4,5.55,1,1.53-.6,3.36-1,5.54-1h34.67c3.93,0,7.5,1.41,10.08,3.98,2.59,2.6,4.01,6.18,4.01,10.11v7.94c0,4-1.46,7.62-4.11,10.2-2.09,2.04-4.84,3.33-7.89,3.71v19.65c.01,4.18-1.58,7.9-4.47,10.47-2.47,2.21-5.65,3.38-9.17,3.38-.49,0-.99-.02-1.48-.07-3.47-.3-6.99-.59-10.51-.88-3.7-.29-6.91-1.75-9.29-4.21-.69-.71-1.29-1.49-1.8-2.33-.49.6-1.03,1.16-1.63,1.67-2.46,2.1-5.59,3.21-9.06,3.21-.38,0-.78-.01-1.19-.04-3.33-.22-6.7-.45-10.08-.66-2.9-.18-5.53-1.07-7.68-2.61-2.06,1.14-4.42,1.73-6.96,1.73-.32,0-.65,0-.99-.03-3.32-.18-6.69-.35-10.06-.51-2.29-.11-4.41-.66-6.28-1.63-1.73.71-3.63,1.08-5.65,1.08-.08,0-.51,0-.71-.01-6.77-.28-13.69-.53-20.58-.73-6.62-.2-11.96-1.43-16.23-3.74-.04.03-.08.06-.11.09-2.44,2-5.59,3.06-9.09,3.06h-.29c-9.21-.15-18.57-.22-27.83-.23-3.28,0-6.26-.92-8.66-2.67-3.77,1.8-8.23,2.74-13.28,2.79-6.95.08-13.89.2-20.63.35h-.42c-2.11,0-4.1-.39-5.88-1.14-1.86.9-3.96,1.4-6.23,1.47-3.27.1-6.54.2-9.8.32-.19,0-.63.01-.63.01-2.72,0-5.24-.66-7.38-1.93-2.21,1.54-4.89,2.41-7.85,2.54-3.26.14-6.52.29-9.78.46-.31.01-.59.02-.86.02-1.79,0-3.5-.29-5.07-.86-1.75.84-3.7,1.33-5.8,1.45-9.59.54-19.29,1.15-28.83,1.83-.41.03-.82.04-1.21.04-3.47,0-6.61-1.12-9.07-3.24-2.91-2.5-4.55-6.13-4.63-10.23-.16.01-.71.05-.82.05v1.5c0,3.83-1.3,7.23-3.74,9.83-2.38,2.52-5.6,4.02-9.32,4.34-3.36.29-6.72.6-10.09.91-.51.05-1.03.07-1.53.07-3.56,0-6.76-1.2-9.24-3.46-2.83-2.56-4.39-6.27-4.39-10.42v-42.54c0-3.93,1.41-7.51,3.98-10.08,2.59-2.58,6.17-4,10.1-4h29.28c2.21,0,4.07.42,5.61,1.03,1.54-.61,3.4-1.03,5.61-1.03h14.31c-.21-9.08.95-24.49,10.13-33l.75-.69,3.27-1.93,2.78-.14c.56-.03,1.8-.06,9.34-.06,7.91,0,18.54.04,21.01.05-.06-.48-.09-.97-.09-1.46v-19.18c0-7.08,5.81-12.63,13.23-12.63,3.08,0,6.01,1.01,8.33,2.79h22.66s.05-.6.05-.6l.12-.61c1.45-7.53,8.47-10.96,14.37-10.96.52,0,10.37.02,10.37.02,0,0,9.55-.02,10.02-.02M199.23,0c-.47,0-10.03.02-10.03.02.02,0-9.85-.02-10.37-.02-6.95,0-15.13,3.82-17.78,12.17h-18.16c-2.82-1.81-6.17-2.79-9.59-2.79-9.66,0-17.23,7.3-17.23,16.63v16.62c-4.42-.01-11.32-.03-16.92-.03-7.65,0-8.88.03-9.55.07l-2.77.14-.99.05-.85.5-3.27,1.93-.37.22-.31.29-.75.69c-5.09,4.72-11.01,14.04-11.41,31.93h-10.31c-1.96,0-3.84.27-5.61.8-1.77-.53-3.65-.8-5.61-.8h-29.28c-5,0-9.59,1.84-12.93,5.17-3.32,3.33-5.15,7.92-5.15,12.91v42.54c0,5.3,2.03,10.05,5.7,13.39,3.23,2.94,7.36,4.5,11.93,4.5.62,0,1.26-.03,1.9-.09,3.36-.31,6.71-.61,10.06-.91,4.71-.41,8.82-2.34,11.88-5.58.75-.79,1.41-1.64,1.98-2.53.52.59,1.09,1.15,1.7,1.68,3.2,2.75,7.24,4.2,11.68,4.2.5,0,1.01-.02,1.51-.06,9.5-.68,19.18-1.3,28.76-1.83,2.04-.12,3.99-.52,5.8-1.2,1.55.4,3.18.61,4.85.61.33,0,.68,0,1.05-.03,3.26-.16,6.51-.31,9.77-.45,2.82-.12,5.49-.81,7.85-2,2.22.91,4.67,1.39,7.21,1.39,0,0,.53,0,.77-.01,3.26-.11,6.51-.22,9.78-.32,2.2-.07,4.28-.46,6.22-1.18,1.82.57,3.75.85,5.77.85h.06s.42,0,.42,0c6.78-.16,13.71-.27,20.62-.35,4.75-.05,9.08-.83,12.89-2.3,2.67,1.43,5.74,2.18,9,2.18,9.24,0,18.58.08,27.76.23h.29s.03,0,.03,0h.03c3.53,0,6.8-.87,9.58-2.53,4.38,1.91,9.56,2.93,15.73,3.11,6.82.2,13.73.45,20.53.73.25,0,.74.02.83.02,1.94,0,3.78-.26,5.51-.77,1.95.77,4.05,1.21,6.28,1.32,3.36.16,6.73.33,10.04.51.39.02.8.04,1.2.04,2.38,0,4.63-.41,6.71-1.21,2.31,1.2,4.93,1.91,7.69,2.08,3.36.21,6.73.43,10.05.66.47.03.97.05,1.46.05,3.81,0,7.33-1.07,10.28-3.11,2.97,2.77,6.82,4.42,11.18,4.77,3.51.28,7.02.58,10.48.88.6.05,1.22.08,1.83.08,4.52,0,8.61-1.52,11.83-4.39,3.75-3.34,5.82-8.12,5.82-13.46v-16.46c2.52-.83,4.79-2.19,6.68-4.03,3.42-3.33,5.32-7.97,5.32-13.06v-7.94c0-4.99-1.84-9.58-5.17-12.93-3.34-3.33-7.92-5.15-12.91-5.15h-34.67c-1.94,0-3.79.26-5.55.78-1.75-.52-3.61-.78-5.55-.78h-3.4c-.4-17.89-6.32-27.21-11.41-31.93l-.75-.69-.31-.29-.37-.22-3.27-1.93-.85-.5-.99-.05-2.76-.14c-.67-.04-1.92-.07-9.56-.07-5.57,0-12.42.02-16.82.03v-16.62c0-9.33-7.57-16.63-17.23-16.63-3.42,0-6.77.98-9.59,2.79h-18.16c-1.15-3.62-3.44-6.64-6.69-8.83-3.2-2.15-7.13-3.33-11.08-3.33h0Z" fill="silver"/><path d="M199.23,4c5.9,0,12.91,3.43,14.37,10.95l.12.61.05.6h22.66c2.32-1.78,5.25-2.79,8.33-2.79,7.42,0,13.23,5.55,13.23,12.63v19.18c0,.49-.03.97-.09,1.45,2.62,0,13.09-.05,20.91-.05s8.78.03,9.36.06l2.76.14,3.27,1.93.75.69c9.18,8.51,10.34,23.92,10.13,33h7.4c2.18,0,4.02.4,5.55,1,1.53-.6,3.36-1,5.54-1h34.67c3.93,0,7.5,1.41,10.08,3.98,2.59,2.6,4.01,6.18,4.01,10.11v7.94c0,4-1.46,7.62-4.11,10.2-2.09,2.04-4.84,3.33-7.89,3.71v19.65c.01,4.18-1.58,7.9-4.47,10.47-2.47,2.21-5.65,3.38-9.17,3.38-.49,0-.99-.02-1.48-.07-3.47-.3-6.99-.59-10.51-.88-3.7-.29-6.91-1.75-9.29-4.21-.69-.71-1.29-1.49-1.8-2.33-.49.6-1.03,1.16-1.63,1.67-2.46,2.1-5.59,3.21-9.06,3.21-.38,0-.78-.01-1.19-.04-3.33-.22-6.7-.45-10.08-.66-2.9-.18-5.53-1.07-7.68-2.61-2.06,1.14-4.42,1.73-6.96,1.73-.32,0-.65,0-.99-.03-3.32-.18-6.69-.35-10.06-.51-2.29-.11-4.41-.66-6.28-1.63-1.73.71-3.63,1.08-5.65,1.08-.08,0-.51,0-.71-.01-6.77-.28-13.69-.53-20.58-.73-6.62-.2-11.96-1.43-16.23-3.74-.04.03-.08.06-.11.09-2.44,2-5.59,3.06-9.09,3.06h-.29c-9.21-.15-18.57-.22-27.83-.23-3.28,0-6.26-.92-8.66-2.67-3.77,1.8-8.23,2.74-13.28,2.79-6.95.08-13.89.2-20.63.35h-.42c-2.11,0-4.1-.39-5.88-1.14-1.86.9-3.96,1.4-6.23,1.47-3.27.1-6.54.2-9.8.32-.19,0-.63.01-.63.01-2.72,0-5.24-.66-7.38-1.93-2.21,1.54-4.89,2.41-7.85,2.54-3.26.14-6.52.29-9.78.46-.31.01-.59.02-.86.02-1.79,0-3.5-.29-5.07-.86-1.75.84-3.7,1.33-5.8,1.45-9.59.54-19.29,1.15-28.83,1.83-.41.03-.82.04-1.21.04-3.47,0-6.61-1.12-9.07-3.24-2.91-2.5-4.55-6.13-4.63-10.23-.16.01-.71.05-.82.05v1.5c0,3.83-1.3,7.23-3.74,9.83-2.38,2.52-5.6,4.02-9.32,4.34-3.36.29-6.72.6-10.09.91-.51.05-1.03.07-1.53.07-3.56,0-6.76-1.2-9.24-3.46-2.83-2.56-4.39-6.27-4.39-10.42v-42.54c0-3.93,1.41-7.51,3.98-10.08,2.59-2.58,6.17-4,10.1-4h29.28c2.21,0,4.07.42,5.61,1.03,1.54-.61,3.4-1.03,5.61-1.03h14.31c-.21-9.08.95-24.49,10.13-33l.75-.69,3.27-1.93,2.78-.14c.56-.03,1.8-.06,9.34-.06,7.91,0,18.54.04,21.01.05-.06-.48-.09-.97-.09-1.46v-19.18c0-7.08,5.81-12.63,13.23-12.63,3.08,0,6.01,1.01,8.33,2.79h22.66s.05-.6.05-.6l.12-.61c1.45-7.53,8.47-10.96,14.37-10.96.52,0,10.37.02,10.37.02,0,0,9.55-.02,10.02-.02M199.23,0c-.47,0-10.03.02-10.03.02.02,0-9.85-.02-10.37-.02-6.95,0-15.13,3.82-17.78,12.17h-18.16c-2.82-1.81-6.17-2.79-9.59-2.79-9.66,0-17.23,7.3-17.23,16.63v16.62c-4.42-.01-11.32-.03-16.92-.03-7.65,0-8.88.03-9.55.07l-2.77.14-.99.05-.85.5-3.27,1.93-.37.22-.31.29-.75.69c-5.09,4.72-11.01,14.04-11.41,31.93h-10.31c-1.96,0-3.84.27-5.61.8-1.77-.53-3.65-.8-5.61-.8h-29.28c-5,0-9.59,1.84-12.93,5.17-3.32,3.33-5.15,7.92-5.15,12.91v42.54c0,5.3,2.03,10.05,5.7,13.39,3.23,2.94,7.36,4.5,11.93,4.5.62,0,1.26-.03,1.9-.09,3.36-.31,6.71-.61,10.06-.91,4.71-.41,8.82-2.34,11.88-5.58.75-.79,1.41-1.64,1.98-2.53.52.59,1.09,1.15,1.7,1.68,3.2,2.75,7.24,4.2,11.68,4.2.5,0,1.01-.02,1.51-.06,9.5-.68,19.18-1.3,28.76-1.83,2.04-.12,3.99-.52,5.8-1.2,1.55.4,3.18.61,4.85.61.33,0,.68,0,1.05-.03,3.26-.16,6.51-.31,9.77-.45,2.82-.12,5.49-.81,7.85-2,2.22.91,4.67,1.39,7.21,1.39,0,0,.53,0,.77-.01,3.26-.11,6.51-.22,9.78-.32,2.2-.07,4.28-.46,6.22-1.18,1.82.57,3.75.85,5.77.85h.06s.42,0,.42,0c6.78-.16,13.71-.27,20.62-.35,4.75-.05,9.08-.83,12.89-2.3,2.67,1.43,5.74,2.18,9,2.18,9.24,0,18.58.08,27.76.23h.29s.03,0,.03,0h.03c3.53,0,6.8-.87,9.58-2.53,4.38,1.91,9.56,2.93,15.73,3.11,6.82.2,13.73.45,20.53.73.25,0,.74.02.83.02,1.94,0,3.78-.26,5.51-.77,1.95.77,4.05,1.21,6.28,1.32,3.36.16,6.73.33,10.04.51.39.02.8.04,1.2.04,2.38,0,4.63-.41,6.71-1.21,2.31,1.2,4.93,1.91,7.69,2.08,3.36.21,6.73.43,10.05.66.47.03.97.05,1.46.05,3.81,0,7.33-1.07,10.28-3.11,2.97,2.77,6.82,4.42,11.18,4.77,3.51.28,7.02.58,10.48.88.6.05,1.22.08,1.83.08,4.52,0,8.61-1.52,11.83-4.39,3.75-3.34,5.82-8.12,5.82-13.46v-16.46c2.52-.83,4.79-2.19,6.68-4.03,3.42-3.33,5.32-7.97,5.32-13.06v-7.94c0-4.99-1.84-9.58-5.17-12.93-3.34-3.33-7.92-5.15-12.91-5.15h-34.67c-1.94,0-3.79.26-5.55.78-1.75-.52-3.61-.78-5.55-.78h-3.4c-.4-17.89-6.32-27.21-11.41-31.93l-.75-.69-.31-.29-.37-.22-3.27-1.93-.85-.5-.99-.05-2.76-.14c-.67-.04-1.92-.07-9.56-.07-5.57,0-12.42.02-16.82.03v-16.62c0-9.33-7.57-16.63-17.23-16.63-3.42,0-6.77.98-9.59,2.79h-18.16c-1.15-3.62-3.44-6.64-6.69-8.83-3.2-2.15-7.13-3.33-11.08-3.33h0Z" fill="silver"/><path d="M197.22,25.65c6.12,2.48,7.79,8.52,7.79,8.52,0,0,13.49-.15,19.79,3.72h16.2v5.67c-1.68,2.39-3.87,7.04-4.13,7.6l-2.91,6.24,5.59-4.02c1.17-.84,7.04-5.07,8.03-6.12.07-.07.14-.14.15-.15l.3-.35.06-.14c.27-.45.42-.95.42-1.45v-19.18c0-1.77-1.65-3.15-3.75-3.15-1.96,0-3.5,1.2-3.71,2.79,0,0-40.02,0-43.83,0Z" fill="#5200d8"/><path d="M180.85,25.65c-6.12,2.48-7.79,8.52-7.79,8.52,0,0-13.49-.15-19.79,3.72h-16.2s0,5.67,0,5.67c1.68,2.39,3.87,7.04,4.13,7.6l2.91,6.24-5.59-4.02c-1.17-.84-7.04-5.07-8.03-6.12-.07-.07-.14-.14-.15-.15l-.3-.35-.06-.14c-.27-.45-.42-.95-.42-1.45v-19.18c0-1.77,1.65-3.15,3.75-3.15,1.96,0,3.5,1.2,3.71,2.79,0,0,40.02,0,43.83,0Z" fill="#5200d8"/><path d="M242.55,73.18l-1.03-.24v-.1c.08-.61.73-5.95.74-7.21v-.17c.04-3.42-1.8-4.71-8.56-6.03-4.28-.83-11.62-1.9-17.02-2.63,4.14-.83,8.06-2.71,10.69-5.21,2.68-2.79,3.49-5.48,2.43-7.97-2.53-5.93-16.4-8.25-27.34-9.16l-.66-2.11c-1.3-4.16-4.32-6.93-8.97-8.25.02-.9.02-1.79.01-2.73h6.32c.38,0,.76-.03,1.14-.09.1-.01.2-.03.35-.07.25-.05.49-.11.73-.19.11-.04.22-.08.33-.12.23-.09.44-.2.66-.32.08-.05.17-.09.24-.14.3-.2.54-.4.72-.59l.2-.21.03-.06c.14-.17.26-.36.37-.56.05-.09.09-.19.13-.27.1-.22.17-.44.21-.65.02-.11.04-.22.06-.35.02-.23.02-.46,0-.68l-.02-.21-.02-.11c-.29-1.51-1.79-3.27-5.06-3.27-.52,0-5.36,0-10.2.02-4.84-.01-9.68-.02-10.2-.02-3.27,0-4.77,1.76-5.06,3.27l-.02.11-.02.21c-.02.22-.02.45,0,.68.02.13.03.24.06.35.04.21.12.42.21.65.03.09.08.18.13.27.11.21.23.39.37.56l.03.06.2.21c.18.19.43.4.72.59.07.05.16.1.24.14.23.13.43.23.66.32.11.04.22.08.33.12.24.08.48.14.73.19.15.03.25.05.35.07.38.06.76.09,1.14.09h6.32c0,.94,0,1.83.01,2.73-4.65,1.32-7.67,4.09-8.97,8.25l-.66,2.11c-10.94.91-24.81,3.23-27.34,9.16-1.07,2.5-.25,5.18,2.43,7.97,2.63,2.5,6.55,4.38,10.69,5.21-5.4.73-12.73,1.8-17.02,2.63-6.76,1.31-8.6,2.61-8.56,6.03v.17c.01,1.26.65,6.61.73,7.21v.1s-1.02.24-1.02.24l-5.81.95.37,1.83s.56,2.39,2.31,2.39h.09l4.83-.49,7.17-.24,8.63,2.1,8.59,1.93,11.83,4.19,14.87.02s0,0,0,0h.64s.64,0,.64,0c0,0,0,0,0,0l14.87-.02,11.83-4.19,8.59-1.93,8.63-2.1,7.17.24,4.83.49h.09c1.75,0,2.3-2.36,2.31-2.39l.37-1.83-5.81-.95ZM169.42,67.57l-22.32,2.92-6.21,1.44c1.16-1.78,2.32-3.32,2.84-3.73,2.06-.38,19.5-2.79,24.95-2.88l.95-.02c-.14.73-.21,1.49-.22,2.26ZM173.69,54.99c-1.67.27-3.35.67-6.07,1.03l-3.91-2.33c-5.34-3.24-6.22-5.01-6.35-5.62-.02-.11-.03-.19,0-.27l.09-.11c1.69-2.17,8.58-3,12.28-3.45.7-.08,1.34-.16,1.89-.24.69-.08,1.38-.17,2.07-.25v11.23ZM185.27,33.45c.8-1.36,1.25-2.12,1.99-2.51.01,0,.02-.01.03-.02.13-.07.28-.12.43-.17.02,0,.04-.01.06-.02.16-.04.34-.07.54-.1.01,0,.02,0,.03,0,.21-.02.44-.03.69-.03.25,0,.48.01.69.03.01,0,.02,0,.03,0,.2.02.37.05.54.1.02,0,.04.01.06.02.16.04.3.1.43.17.01,0,.02.01.03.02.74.39,1.19,1.15,1.99,2.51l.29.5c-1.97-.06-3.42-.07-4.05-.07,0,0,0,0,0,0h-.01s0,0,0,0c-.63,0-2.08,0-4.05.07l.29-.5ZM182.71,55.07v-8.03c.11-1.21-.43-2.99-2.24-3.83.25,0,.49-.01.74-.01,1.49,0,2.33.2,2.91.69.15.14.33.46.47.88l.23.69c.28,1.5.31,3.8.35,6.8l.05,3.13-2.52-.31ZM195.36,47.04v8.03s-2.52.31-2.52.31l.05-3.13c.04-3,.07-5.29.35-6.8l.23-.69c.14-.43.32-.75.47-.88.58-.49,1.42-.69,2.91-.69.25,0,.5,0,.74.01-1.8.84-2.34,2.62-2.24,3.83ZM204.39,54.99v-11.23c.69.08,1.38.16,2.07.25.55.08,1.19.15,1.89.24,3.7.45,10.59,1.27,12.28,3.45l.09.11c.02.08.01.17,0,.27-.13.61-1.01,2.38-6.35,5.62l-3.91,2.33c-2.72-.36-4.4-.76-6.07-1.03ZM230.97,70.49l-22.32-2.92c-.01-.77-.08-1.53-.22-2.26l.95.02c5.45.09,22.9,2.5,24.95,2.88.52.41,1.68,1.95,2.84,3.73l-6.21-1.44Z" fill="#5200d8"/><path d="M288.5,56.37l-.38-.23-.44-.02c-2.15-.11-30.17,0-30.37,0-11.8,0-11.38,8.78-11.38,8.78l3.49-2.14c.58-.26,1.11-.39,1.56-.39s1.14.12,1.79,1.11c.02.04.04.09.07.14,2.82,4.3,5.9,23.14,5.9,23.14,0,0,3.49-1.7.68-21.49h4.52c1.16,2.55,3.69,15.56,3.69,15.56,0,0,1.75-4.73.38-15.56h3.78c2.68,2.29,4.86,15.04,4.86,15.04,0,0,1.12-5.83-.41-15.04h4.57c2.29,3.15,4.88,15.72,4.88,15.72,0,0,1.59-5.2-.5-15.72h1.69c3.97,1.97,8.31,18.93,8.31,18.93,0,0,2.94-18.9-6.69-27.83Z" fill="#5200d8"/><path d="M89.48,56.37l.38-.23.44-.02c2.15-.11,30.17,0,30.37,0,11.8,0,11.38,8.78,11.38,8.78l-3.49-2.14c-.58-.26-1.11-.39-1.56-.39s-1.14.12-1.79,1.11c-.02.04-.04.09-.07.14-2.82,4.3-5.9,23.14-5.9,23.14,0,0-3.49-1.7-.68-21.49h-4.52c-1.16,2.55-3.69,15.56-3.69,15.56,0,0-1.75-4.73-.38-15.56h-3.78c-2.68,2.29-4.86,15.04-4.86,15.04,0,0-1.12-5.83.41-15.04h-4.57c-2.29,3.15-4.88,15.72-4.88,15.72,0,0-1.59-5.2.5-15.72h-1.69c-3.97,1.97-8.31,18.93-8.31,18.93,0,0-2.94-18.9,6.69-27.83Z" fill="#5200d8"/><path d="M203.81,28.61c.11.12.23.25.34.39.09.1.18.21.27.32.12.15.25.33.38.5.09.12.18.23.26.36.14.21.27.43.41.66.07.12.14.23.21.36.2.36.38.75.55,1.17h34.57v-4.92h-38.25s.55.41,1.25,1.17Z" fill="#fff"/><path d="M233.35,61.2c-7.38-1.43-22.94-3.42-23.48-3.42s-4.73-.61-4.73-.61c0,0,2.78,1.41,4.28,6.35,5.67.09,24.15,2.63,25.5,2.96,1.35.33,4.82,6.14,4.82,6.14,0,0,.7-5.82.71-7.01.01-1.84.28-2.98-7.1-4.42Z" fill="#fff"/><path d="M238.5,51.93s6.85-4.92,7.82-5.95c.03-.03.06-.06.09-.1.03-.04.05-.06.05-.06,0,0,.01-.02.02-.03.13-.18.21-.39.21-.6v-19.18c0-.75-.87-1.35-1.95-1.35s-1.95.6-1.95,1.35v18.15c-1.63,2.05-4.3,7.77-4.3,7.77Z" fill="#fff"/><path d="M222.05,46.58s.02-.02.05-.03h0c1.31,1.91-.15,4.64-6.8,8.68,3.7-.57,7.99-2.25,10.76-4.88,12.96-13.53-31.14-14.8-38.12-14.65-6.72.09-42.62.96-37.59,12.21,2.84,4.16,6.95,6.41,12.04,7.07-2.16-1.87-9.31-5.88-5.86-9.08h0l.03.05c1.81-1.1,3.86-1.75,5.91-2.27,4.13-1.02,8.37-1.46,12.59-1.81,2.12-.17,4.24-.28,6.36-.36,2.32-.34,5.15.91,5.2,3.54,0,0,.03,0,.06,0h0c.06,1.66.46,7.46.44,9.02l3.94-.02c.08-4.79.03-7.9.64-9.85l.06.02c.21-.64.53-1.25,1.02-1.7,1.59-1.33,3.86-1.11,5.81-1.07,2.71.15,5.41.47,8.11.79,3.99.55,12.86,1.16,15.35,4.36Z" fill="#fff"/><path d="M240.8,36.09v-2.4h-23.99s6.87,1.24,8.55,2.4h15.44Z" fill="#fff"/><path d="M174.2,28.61c-.11.12-.23.25-.34.39-.09.1-.18.21-.27.32-.12.15-.25.33-.38.5-.09.12-.18.23-.26.36-.14.21-.27.43-.41.66-.07.12-.14.23-.21.36-.2.36-.38.75-.55,1.17h-10.57s-24,0-24,0v-4.92h38.25s-.55.41-1.25,1.17Z" fill="#fff"/><path d="M139.51,51.93s-6.85-4.92-7.82-5.95c-.03-.03-.06-.06-.09-.1-.03-.04-.05-.06-.05-.06,0,0-.01-.02-.02-.03-.13-.18-.21-.39-.21-.6v-19.18c0-.75.87-1.35,1.95-1.35s1.95.6,1.95,1.35v18.15c1.63,2.05,4.3,7.77,4.3,7.77Z" fill="#fff"/><path d="M137.21,36.09v-2.4h23.99s-6.87,1.24-8.55,2.4h-15.44Z" fill="#fff"/><path d="M175.45,44.89v8.84c2.4-.73,5.43-.56,5.43-.56v-6.23s.24-1.86-1.8-2.31c-2.04-.46-3.63.26-3.63.26Z" fill="#d5d5d5"/><path d="M202.59,53.73v-8.84s-1.59-.71-3.63-.26c-2.04.46-1.8,2.31-1.8,2.31v6.23s3.03-.17,5.43.56Z" fill="#d5d5d5"/><path d="M209.16,69.45l-.54,4.14,16.91,1.37,15.71,1.12,4.43.46c.11.01.51-.78.54-.94l-4.02-.66-11.55-2.68-21.49-2.81Z" fill="#d5d5d5"/><polygon points="215.9 79.9 224.57 77.95 229.43 76.84 225.91 76.69 207.45 77.65 206.54 82.92 215.9 79.9" fill="#d5d5d5"/><path d="M252.42,69.18c-.11-.38-.43-.67-.83-.74-.49-.09-.89.38-.69.83,1.41,3.22,1.7,4.83,2.62,9.64.36-3.82-.18-6.64-1.09-9.73Z" fill="#5200d8"/><path d="M175.52,17.74c.07.36.27.7.59.99.04.04.08.07.12.11.35.28.82.51,1.41.64.07.02.15.03.23.05.31.06.64.1,1.02.1,1.79,0,5.31,0,8.13,0,0,1.69-.03,3.21.01,4.73.02.8-.2,1.21-1.3,1.52-4.08,1.15-6.64,3.5-7.76,7.06,1.06-.13,4.82-.36,5.71-.36,1.35-2.28,2.2-3.77,5.34-3.77s4,1.45,5.34,3.73c.1,0,.25,0,.43,0,.06,0,.12,0,.19,0,.13,0,.27.01.42.02.08,0,.17,0,.26.01.16,0,.32.02.49.03.09,0,.19.01.28.02,1.38.08,3.01.19,3.66.27-1.12-3.57-3.68-5.91-7.76-7.06-1.1-.31-1.33-.73-1.3-1.52.04-1.52.01-3.05.01-4.73,1.57,0,3.36,0,4.94,0,.35,0,.69,0,1.02,0,.17,0,.34,0,.5,0h.04c.26,0,.51,0,.75,0,.32,0,.62,0,.88,0,.32,0,.61-.03.88-.07.09-.01.16-.03.25-.05.18-.04.35-.08.51-.13.08-.03.16-.05.23-.08.15-.06.29-.13.41-.2.06-.03.12-.06.17-.1.17-.11.32-.23.44-.36,0,0,0,0,0,0,.12-.13.22-.27.3-.42.02-.05.04-.09.06-.14.05-.1.08-.21.1-.31.01-.05.02-.11.03-.16.01-.11.01-.21,0-.32,0-.05,0-.09-.01-.14-.18-.95-1.26-1.81-3.29-1.81s-18.35.04-20.44.04c-1.14,0-1.98.27-2.53.67,0,0,0,0,0,0,0,0,0,0,0,0-.18.13-.32.29-.44.45-.03.04-.06.08-.08.12-.21.33-.29.69-.25,1.04,0,.04.01.09.02.13Z" fill="#d5d5d5"/><path d="M197.22,57.17l-15.9.04c-5.32,0-9.64,4.85-9.64,10.58s3.6,16.28,3.6,16.28l27.99-.04s3.6-10.54,3.6-16.28-4.32-10.58-9.64-10.58Z" fill="#fff"/><path d="M287.58,57.92c-4.88-.25-9.57-.18-14.4,0h-13.28c-.42.02-.92,0-1.45,0,0,0,0,0,0,0h0c-.37,0-.74,0-1.12,0-3.11.03-6.55.34-8.64,3.2,3.14-1.41,4.85.17,5.68,1.51.03.06.05.11.08.18,2.65,5.2,3.32,9.86,4.63,18.57.82-6.58-.35-13.29-1.75-17.9h7.55c1.04,1.76,2.73,12.84,2.73,12.84.5-2.25-.5-10.46-1.11-12.84h6.43c1.31,2.36,2.69,8.09,3.2,11.42.66-3.33-1.19-9.4-1.85-11.42h7.09c1.67,2.28,3.86,12.14,3.86,12.14.08-4.58-1.22-10.38-2.03-12.14h4.4c3.22,2.56,7.23,15.25,7.23,15.25.15-4.33-2.26-17.86-7.25-20.8Z" fill="#fff"/><path d="M144.52,61.2c7.38-1.43,22.94-3.42,23.48-3.42s4.73-.61,4.73-.61c0,0-2.78,1.41-4.28,6.35-5.67.09-24.15,2.63-25.5,2.96-1.35.33-4.82,6.14-4.82,6.14,0,0-.7-5.82-.71-7.01-.01-1.84-.28-2.98,7.1-4.42Z" fill="#fff"/><path d="M168.71,69.45l.54,4.14-16.91,1.37-15.71,1.12-4.43.46c-.11.01-.51-.78-.54-.94l4.02-.66,11.55-2.68,21.49-2.81Z" fill="#d5d5d5"/><polygon points="161.97 79.9 153.3 77.95 148.43 76.84 151.95 76.69 170.41 77.65 171.33 82.92 161.97 79.9" fill="#d5d5d5"/><path d="M125.45,69.18c.11-.38.43-.67.83-.74.49-.09.89.38.69.83-1.41,3.22-1.7,4.83-2.62,9.64-.36-3.82.18-6.64,1.09-9.73Z" fill="#5200d8"/><path d="M120.55,57.92c-.38,0-.76,0-1.13,0h0c-.53,0-1.03.02-1.45,0h-13.28c-4.84-.18-9.52-.25-14.4,0-4.99,2.95-7.4,16.47-7.25,20.8,0,0,4.02-12.69,7.23-15.25h4.4c-.81,1.76-2.11,7.56-2.03,12.14,0,0,2.19-9.86,3.86-12.14h7.09c-.66,2.02-2.5,8.09-1.85,11.42.52-3.33,1.89-9.06,3.2-11.42h6.43c-.61,2.38-1.61,10.59-1.11,12.84,0,0,1.69-11.08,2.73-12.84h7.55c-1.4,4.61-2.57,11.32-1.75,17.9,1.31-8.71,1.98-13.37,4.63-18.57.03-.06.05-.12.08-.18.83-1.34,2.54-2.92,5.68-1.51-2.09-2.86-5.54-3.17-8.64-3.2Z" fill="#fff"/><path d="M47.37,91.9h-29.28c-1.44,0-2.58.41-3.39,1.22-.8.81-1.21,1.95-1.21,3.39v42.54c0,1.49.44,2.64,1.29,3.41.72.66,1.69.99,2.86.99.21,0,.42,0,.65-.03,3.38-.32,6.76-.62,10.14-.92,1.39-.12,2.48-.59,3.24-1.39.77-.82,1.17-1.94,1.17-3.34v-10.45c3.1-.18,6.2-.35,9.3-.52,1.4-.08,2.5-.51,3.27-1.28.8-.81,1.21-1.92,1.21-3.32v-7.47c0-1.44-.42-2.56-1.28-3.35-.77-.7-1.82-1.06-3.13-1.06h-.25c-3.03.1-6.07.21-9.1.31v-2.12c4.85-.11,9.7-.21,14.54-.31,1.41-.03,2.52-.43,3.31-1.19.83-.79,1.25-1.91,1.25-3.32v-7.33c.01-1.42-.41-2.54-1.26-3.33-.8-.75-1.92-1.13-3.34-1.13Z" fill="#5200d8"/><path d="M89.49,123.57c-.75-.63-1.76-.95-3.01-.95-.11,0-.22,0-.33,0-1.32.05-2.65.11-3.97.17l.05-26.53c0-1.75-.7-2.75-1.3-3.29-.79-.71-1.9-1.07-3.3-1.07h-19.04c-1.41,0-2.53.38-3.33,1.12-.85.78-1.27,1.9-1.28,3.32v7.38c-.01,1.43.42,2.55,1.27,3.32.78.71,1.86,1.07,3.21,1.07l3.9-.07-.02,15.68c-1.74.09-3.49.18-5.23.27-1.39.07-2.49.5-3.26,1.25-.81.8-1.23,1.91-1.23,3.31v7.39c-.01,1.81.72,2.82,1.32,3.34.73.63,1.7.95,2.89.95h0c.17,0,.35,0,.54-.02,9.59-.69,19.33-1.31,28.97-1.84,1.37-.08,2.45-.48,3.22-1.2.58-.54,1.26-1.55,1.27-3.26v-7.03c.01-1.77-.72-2.76-1.34-3.29Z" fill="#5200d8"/><path d="M137.01,92.9c-.8-.67-1.86-1-3.25-1h-9.85c-1.39,0-2.46.33-3.26,1.01-.61.52-1.34,1.51-1.35,3.24v6.66c-3.08-2.99-6.02-5.87-8.92-8.73-.79-.79-1.63-1.36-2.51-1.69-.85-.33-1.84-.49-2.94-.49h-6.83c-1.39,0-2.49.35-3.28,1.04-.6.53-1.32,1.52-1.33,3.27l-.07,37.33c0,1.78.74,2.77,1.37,3.29.74.61,1.73.92,2.95.92.13,0,.26,0,.4,0,3.28-.16,6.56-.31,9.84-.46,1.36-.06,2.44-.44,3.21-1.14.59-.53,1.29-1.53,1.3-3.24l.02-13.22c2.19,2.24,4.45,4.52,6.74,6.82v5.97c-.01,1.76.74,2.75,1.37,3.26.75.61,1.76.92,3.01.92,0,0,.19,0,.29,0,3.28-.12,6.56-.22,9.84-.32,1.38-.04,2.43-.39,3.21-1.07.61-.53,1.33-1.51,1.33-3.23l.05-35.89c0-1.73-.73-2.71-1.35-3.24Z" fill="#5200d8"/><path d="M179.15,109.65c-2.18-1.51-5.02-2.47-8.45-2.87h0c1.76,0,3.52,0,5.29-.01,1.38,0,2.44-.32,3.23-.98.62-.52,1.37-1.5,1.37-3.22v-6.47c0-1.72-.74-2.7-1.37-3.22-.79-.66-1.85-.98-3.23-.98h-18.38c-4.7,0-8.48.98-11.26,2.9-2.99,2.08-4.58,5.2-4.58,9.03v5.79c-.01,3.85,1.25,6.68,3.74,8.42,2.16,1.51,5,2.46,8.43,2.83.39.04.77.08,1.16.12-2.93.04-5.86.08-8.79.13-1.38.02-2.44.36-3.22,1.04-.61.52-1.34,1.51-1.34,3.22v6.45c0,1.75.74,2.73,1.37,3.24.77.63,1.77.93,3.08.93h.2c6.82-.16,13.8-.28,20.74-.36,4.64-.05,8.41-1.05,11.2-2.95,3.02-2.07,4.62-5.17,4.62-8.96v-5.71c0-3.81-1.27-6.62-3.79-8.36Z" fill="#5200d8"/><path d="M220.42,121.84c-.79-.67-1.85-1-3.23-1.02-1.39-.02-2.77-.03-4.16-.04v-13.86s4.14.02,4.14.02c1.37,0,2.43-.32,3.21-.97.62-.52,1.37-1.5,1.37-3.23v-6.62c0-1.72-.75-2.7-1.37-3.23-.8-.66-1.85-.98-3.24-.98h-27.97c-1.38,0-2.44.32-3.23.98-.62.52-1.37,1.49-1.37,3.22v6.58c0,1.73.75,2.71,1.37,3.22.79.66,1.85.98,3.24.98h4.26s0,13.79,0,13.79c-1.42,0-2.85,0-4.27,0-1.38,0-2.43.32-3.22.97-.63.52-1.37,1.5-1.37,3.22v6.47c0,1.73.75,2.71,1.37,3.22.79.66,1.85.98,3.24.98,9.3,0,18.71.08,27.96.23h.14c1.32,0,2.34-.31,3.11-.94.63-.51,1.39-1.49,1.38-3.23v-6.51c0-1.72-.74-2.7-1.36-3.22Z" fill="#5200d8"/><path d="M267.01,112.14c-.79-.7-1.85-1.05-3.24-1.08-3.4-.07-6.79-.13-10.18-.18h-.15c-1.31,0-2.36.32-3.13.97-.62.52-1.36,1.51-1.36,3.25v6.42c-1.35-.03-2.71-.07-4.07-.1-.52-.01-.74-.1-.78-.1,0,0,0,0,0,0-.01-.04-.05-.17-.05-.45l-.02-13.25c0-.16.02-.23.02-.23s0,0,0,0c.04-.03.42-.27,1.72-.27h0c4.55.04,9.1.08,13.74.13,1.34,0,2.41-.33,3.19-.99.62-.52,1.35-1.51,1.35-3.26v-6.83c-.01-1.73-.74-2.72-1.35-3.25-.8-.69-1.87-1.02-3.26-1.02h-16.41c-5.99,0-10.39,1.03-13.45,3.15-3.27,2.27-4.93,5.73-4.93,10.3l.02,17.14c0,4.55,1.66,8.04,4.92,10.36,3.04,2.17,7.43,3.31,13.43,3.49,6.83.2,13.78.45,20.67.74.12,0,.34,0,.34,0,1.24,0,2.24-.31,2.98-.92.63-.52,1.38-1.5,1.37-3.27l-.03-17.51c0-1.72-.72-2.72-1.32-3.25Z" fill="#5200d8"/><path d="M315.79,93c-.8-.73-1.92-1.1-3.32-1.1h-10.18c-1.4,0-2.51.36-3.3,1.08-.59.53-1.3,1.54-1.29,3.29l.02,10.53c-2.16-.05-4.32-.09-6.48-.13l-.02-10.44c0-1.74-.72-2.74-1.32-3.28-.79-.7-1.9-1.06-3.29-1.06h-10.18c-1.38,0-2.49.35-3.28,1.04-.61.53-1.33,1.52-1.32,3.26l.06,37.04c0,1.71.7,2.71,1.29,3.24.77.7,1.85,1.09,3.21,1.16,3.39.16,6.78.34,10.17.52.15,0,.29.01.43.01,1.21,0,2.19-.31,2.93-.93.62-.52,1.36-1.51,1.36-3.29l-.02-10.6c2.16.08,4.32.16,6.48.24l.02,10.97c0,1.72.68,2.73,1.25,3.27.76.74,1.85,1.15,3.22,1.24,3.39.21,6.77.43,10.16.66.18.01.35.02.52.02,1.19,0,2.17-.32,2.9-.94.61-.52,1.34-1.53,1.34-3.33l-.06-39.18c0-1.76-.7-2.77-1.29-3.31Z" fill="#5200d8"/><path d="M361.62,93.11c-.81-.8-1.95-1.21-3.39-1.21h-34.67c-1.41,0-2.53.38-3.33,1.12-.84.79-1.27,1.9-1.27,3.32v7.39c.01,1.41.44,2.53,1.27,3.31.79.75,1.9,1.15,3.31,1.17,2.49.05,4.97.1,7.46.15l.03,28.42c0,1.39.4,2.51,1.19,3.31.76.79,1.85,1.24,3.23,1.35,3.54.29,7.07.58,10.61.89.22.02.42.03.62.03,1.18,0,2.14-.33,2.87-.97.87-.77,1.31-1.91,1.31-3.39l-.02-29.19c2.45.06,7.54.18,7.54.18,1.37,0,2.45-.39,3.23-1.15.82-.8,1.24-1.94,1.24-3.4v-7.94c0-1.44-.41-2.58-1.22-3.39Z" fill="#5200d8"/><path d="M47.37,93.14h-29.28c-.83,0-1.43.19-1.81.56-.37.37-.56.98-.56,1.81v42.54c0,.83.19,1.42.56,1.75.37.34.97.47,1.8.39,3.38-.32,6.77-.62,10.16-.92.83-.07,1.43-.31,1.8-.7.37-.39.56-.99.56-1.8,0-4.19,0-8.38,0-12.57,3.8-.22,7.61-.44,11.41-.64.83-.04,1.43-.25,1.8-.63.37-.37.56-.95.56-1.74,0-2.49,0-4.98,0-7.46,0-.79-.19-1.35-.56-1.69-.37-.34-.97-.5-1.8-.47-3.81.12-7.61.25-11.42.39,0-2.21,0-4.42,0-6.63,5.58-.13,11.16-.25,16.74-.36.83-.02,1.43-.2,1.81-.56.37-.36.56-.92.56-1.71,0-2.44,0-4.89,0-7.33,0-.78-.19-1.34-.56-1.69-.37-.35-.97-.52-1.8-.52Z" fill="#fff"/><path d="M86.24,123.86c-2.1.09-4.2.17-6.3.27.02-9.62.03-19.25.05-28.87,0-.74-.18-1.28-.56-1.62-.37-.33-.97-.5-1.8-.5h-19.04c-.83,0-1.43.17-1.81.52-.37.35-.56.91-.56,1.68,0,2.46,0,4.92-.01,7.38,0,.77.18,1.33.56,1.67.37.34.97.5,1.8.48,2.01-.04,4.03-.08,6.04-.11-.01,6.7-.02,13.39-.03,20.09-2.45.12-4.9.25-7.35.37-.83.04-1.43.25-1.81.61-.37.37-.56.94-.56,1.71,0,2.46,0,4.93-.01,7.39,0,.77.18,1.32.56,1.64.37.32.97.45,1.8.39,9.67-.69,19.33-1.31,29.01-1.85.83-.05,1.43-.24,1.81-.59.37-.35.56-.89.56-1.63,0-2.34,0-4.69.01-7.03,0-.74-.18-1.26-.55-1.58-.37-.31-.97-.46-1.8-.42Z" fill="#fff"/><path d="M133.77,93.14h-9.85c-.83,0-1.43.16-1.81.48-.37.32-.56.83-.56,1.54,0,3.98-.01,7.96-.02,11.94-4.24-4.09-8.48-8.23-12.72-12.42-.57-.57-1.15-.96-1.74-1.19-.59-.23-1.3-.34-2.13-.34h-6.83c-.83,0-1.43.16-1.81.49-.37.33-.56.86-.56,1.58-.02,12.44-.04,24.88-.07,37.33,0,.73.18,1.25.56,1.56.37.31.97.44,1.8.4,3.28-.16,6.57-.31,9.85-.46.83-.04,1.43-.22,1.81-.56.37-.34.56-.86.56-1.58.01-6.23.02-12.47.03-18.7,3.74,3.83,7.47,7.62,11.21,11.38,0,2.3,0,4.6-.01,6.89,0,.71.18,1.22.56,1.52.37.3.97.44,1.81.41,3.28-.12,6.57-.22,9.85-.32.83-.02,1.43-.2,1.81-.52.37-.32.56-.84.56-1.54.02-11.96.03-23.93.05-35.89,0-.7-.18-1.21-.56-1.52-.37-.31-.97-.47-1.8-.47Z" fill="silver"/><path d="M177.88,110.49c-1.88-1.3-4.36-2.13-7.42-2.48-3.26-.35-6.52-.7-9.79-1.05-.57-.03-1.01-.21-1.31-.54-.31-.33-.46-.73-.46-1.2,0-.47.15-.87.46-1.18.31-.31.74-.47,1.31-.47,5.1-.02,10.2-.04,15.3-.04.83,0,1.43-.16,1.81-.47.37-.31.56-.81.56-1.5,0-2.16,0-4.32,0-6.47,0-.69-.19-1.19-.56-1.5-.37-.31-.97-.46-1.81-.46h-18.38c-4.25,0-7.57.83-9.98,2.5-2.41,1.67-3.62,4.07-3.62,7.2,0,1.93,0,3.86,0,5.79,0,3.09.92,5.28,2.78,6.58,1.86,1.3,4.32,2.11,7.39,2.44,3.28.35,6.57.7,9.85,1.05.57.03,1,.19,1.28.48.28.29.43.74.43,1.36,0,.44-.14.81-.43,1.12-.29.31-.71.47-1.28.48-5.89.06-11.78.14-17.67.23-.83.01-1.43.18-1.81.5-.37.32-.56.83-.56,1.53,0,2.15,0,4.3,0,6.45,0,.7.18,1.2.56,1.5.37.3.97.44,1.81.43,6.92-.16,13.84-.28,20.77-.36,4.21-.05,7.53-.9,9.96-2.56,2.43-1.66,3.65-4.03,3.65-7.11,0-1.9,0-3.81,0-5.71,0-3.05-.94-5.22-2.82-6.52Z" fill="silver"/><path d="M218.97,122.55c-.37-.31-.98-.48-1.81-.49-2.12-.02-4.25-.05-6.37-.07,0-6.11,0-12.22-.01-18.33,2.12,0,4.25.02,6.37.02.83,0,1.43-.15,1.81-.46.37-.31.56-.81.56-1.5,0-2.21,0-4.41,0-6.62,0-.69-.19-1.19-.56-1.51-.37-.31-.97-.47-1.81-.47h-27.97c-.83,0-1.43.15-1.81.46-.37.31-.56.81-.56,1.49,0,2.19,0,4.38,0,6.58,0,.69.19,1.19.56,1.49.37.31.97.46,1.81.46,2.17,0,4.33,0,6.5,0,0,6.09,0,12.18,0,18.27-2.17,0-4.34-.01-6.51-.01-.83,0-1.44.15-1.81.46-.37.31-.56.81-.56,1.5,0,2.16,0,4.31,0,6.47,0,.69.19,1.19.56,1.49.37.31.97.46,1.81.46,9.33,0,18.67.08,28,.23.83.01,1.43-.13,1.81-.44.37-.3.56-.8.56-1.5,0-2.17,0-4.34,0-6.51,0-.69-.19-1.2-.56-1.51Z" fill="silver"/><path d="M265.53,112.82c-.37-.33-.98-.5-1.81-.52-3.39-.07-6.79-.13-10.18-.18-.83-.01-1.43.13-1.81.44-.37.31-.56.82-.56,1.53,0,2.91,0,5.81.01,8.72-2.12-.05-4.25-.11-6.37-.15-1.01-.02-1.76-.26-2.27-.72-.5-.45-.76-1.14-.76-2.07,0-4.42-.01-8.83-.02-13.25,0-.92.33-1.61.98-2.07.66-.46,1.66-.68,3.02-.67,4.55.04,9.11.08,13.66.13.83,0,1.43-.14,1.8-.46.37-.31.56-.83.56-1.55,0-2.28,0-4.55-.01-6.83,0-.71-.19-1.23-.56-1.55-.37-.32-.98-.48-1.81-.48h-16.41c-5.47,0-9.53.92-12.18,2.75-2.65,1.83-3.97,4.65-3.96,8.45,0,5.71.01,11.42.02,17.14,0,3.81,1.33,6.65,3.98,8.54,2.65,1.89,6.72,2.91,12.19,3.08,6.9.21,13.8.45,20.69.74.83.03,1.43-.1,1.81-.41.37-.3.56-.82.56-1.53,0-5.84-.02-11.67-.03-17.51,0-.72-.19-1.24-.56-1.57Z" fill="silver"/><path d="M314.28,93.65c-.37-.34-.98-.51-1.81-.51h-10.18c-.83,0-1.43.17-1.8.5-.37.34-.56.88-.56,1.62,0,4.28.01,8.55.02,12.83-3.65-.08-7.31-.15-10.96-.22,0-4.21-.01-8.42-.02-12.63,0-.74-.19-1.27-.56-1.6-.37-.33-.98-.49-1.81-.49h-10.18c-.83,0-1.43.16-1.8.49-.37.32-.56.85-.56,1.57.02,12.35.04,24.69.06,37.04,0,.72.19,1.26.56,1.6.37.34.97.53,1.81.57,3.39.16,6.79.34,10.18.52.83.04,1.43-.09,1.8-.4.37-.31.56-.83.56-1.57,0-4.31-.02-8.62-.02-12.92,3.65.13,7.31.27,10.96.41,0,4.37.01,8.75.02,13.12,0,.75.19,1.3.56,1.66.37.36.97.56,1.81.61,3.39.21,6.78.43,10.17.66.83.06,1.43-.07,1.8-.39.37-.32.56-.86.56-1.62-.02-13.06-.04-26.12-.06-39.17,0-.77-.19-1.32-.56-1.66Z" fill="silver"/><path d="M360.03,93.69c-.37-.37-.97-.56-1.81-.56h-34.67c-.83,0-1.43.17-1.8.52-.37.35-.56.91-.56,1.68,0,2.46,0,4.93.01,7.39,0,.77.19,1.34.56,1.69.37.35.97.54,1.81.56,3.22.06,6.43.13,9.65.2.01,10.2.02,20.41.03,30.61,0,.79.19,1.38.56,1.76.37.38.97.61,1.8.67,3.54.29,7.08.58,10.62.89.83.07,1.43-.06,1.8-.39.37-.33.56-.9.56-1.72,0-10.5-.01-20.99-.02-31.49,3.22.08,6.43.15,9.65.23.83.02,1.43-.15,1.8-.51.37-.36.56-.96.56-1.79v-7.94c0-.83-.19-1.43-.56-1.81Z" fill="silver"/><path d="M199.23,4c5.9,0,12.91,3.43,14.37,10.95l.12.61.05.6h22.66c2.32-1.78,5.25-2.79,8.33-2.79,7.42,0,13.23,5.55,13.23,12.63v19.18c0,.49-.03.97-.09,1.45,2.62,0,13.09-.05,20.91-.05s8.78.03,9.36.06l2.76.14,3.27,1.93.75.69c9.18,8.51,10.34,23.92,10.13,33h7.4c2.18,0,4.02.4,5.55,1,1.53-.6,3.36-1,5.54-1h34.67c3.93,0,7.5,1.41,10.08,3.98,2.59,2.6,4.01,6.18,4.01,10.11v7.94c0,4-1.46,7.62-4.11,10.2-2.09,2.04-4.84,3.33-7.89,3.71v19.65c.01,4.18-1.58,7.9-4.47,10.47-2.47,2.21-5.65,3.38-9.17,3.38-.49,0-.99-.02-1.48-.07-3.47-.3-6.99-.59-10.51-.88-3.7-.29-6.91-1.75-9.29-4.21-.69-.71-1.29-1.49-1.8-2.33-.49.6-1.03,1.16-1.63,1.67-2.46,2.1-5.59,3.21-9.06,3.21-.38,0-.78-.01-1.19-.04-3.33-.22-6.7-.45-10.08-.66-2.9-.18-5.53-1.07-7.68-2.61-2.06,1.14-4.42,1.73-6.96,1.73-.32,0-.65,0-.99-.03-3.32-.18-6.69-.35-10.06-.51-2.29-.11-4.41-.66-6.28-1.63-1.73.71-3.63,1.08-5.65,1.08-.08,0-.51,0-.71-.01-6.77-.28-13.69-.53-20.58-.73-6.62-.2-11.96-1.43-16.23-3.74-.04.03-.08.06-.11.09-2.44,2-5.59,3.06-9.09,3.06h-.29c-9.21-.15-18.57-.22-27.83-.23-3.28,0-6.26-.92-8.66-2.67-3.77,1.8-8.23,2.74-13.28,2.79-6.95.08-13.89.2-20.63.35h-.42c-2.11,0-4.1-.39-5.88-1.14-1.86.9-3.96,1.4-6.23,1.47-3.27.1-6.54.2-9.8.32-.19,0-.63.01-.63.01-2.72,0-5.24-.66-7.38-1.93-2.21,1.54-4.89,2.41-7.85,2.54-3.26.14-6.52.29-9.78.46-.31.01-.59.02-.86.02-1.79,0-3.5-.29-5.07-.86-1.75.84-3.7,1.33-5.8,1.45-9.59.54-19.29,1.15-28.83,1.83-.41.03-.82.04-1.21.04-3.47,0-6.61-1.12-9.07-3.24-2.91-2.5-4.55-6.13-4.63-10.23-.16.01-.71.05-.82.05v1.5c0,3.83-1.3,7.23-3.74,9.83-2.38,2.52-5.6,4.02-9.32,4.34-3.36.29-6.72.6-10.09.91-.51.05-1.03.07-1.53.07-3.56,0-6.76-1.2-9.24-3.46-2.83-2.56-4.39-6.27-4.39-10.42v-42.54c0-3.93,1.41-7.51,3.98-10.08,2.59-2.58,6.17-4,10.1-4h29.28c2.21,0,4.07.42,5.61,1.03,1.54-.61,3.4-1.03,5.61-1.03h14.31c-.21-9.08.95-24.49,10.13-33l.75-.69,3.27-1.93,2.78-.14c.56-.03,1.8-.06,9.34-.06,7.91,0,18.54.04,21.01.05-.06-.48-.09-.97-.09-1.46v-19.18c0-7.08,5.81-12.63,13.23-12.63,3.08,0,6.01,1.01,8.33,2.79h22.66s.05-.6.05-.6l.12-.61c1.45-7.53,8.47-10.96,14.37-10.96.52,0,10.37.02,10.37.02,0,0,9.55-.02,10.02-.02M199.23,0c-.47,0-10.03.02-10.03.02.02,0-9.85-.02-10.37-.02-6.95,0-15.13,3.82-17.78,12.17h-18.16c-2.82-1.81-6.17-2.79-9.59-2.79-9.66,0-17.23,7.3-17.23,16.63v16.62c-4.42-.01-11.32-.03-16.92-.03-7.65,0-8.88.03-9.55.07l-2.77.14-.99.05-.85.5-3.27,1.93-.37.22-.31.29-.75.69c-5.09,4.72-11.01,14.04-11.41,31.93h-10.31c-1.96,0-3.84.27-5.61.8-1.77-.53-3.65-.8-5.61-.8h-29.28c-5,0-9.59,1.84-12.93,5.17-3.32,3.33-5.15,7.92-5.15,12.91v42.54c0,5.3,2.03,10.05,5.7,13.39,3.23,2.94,7.36,4.5,11.93,4.5.62,0,1.26-.03,1.9-.09,3.36-.31,6.71-.61,10.06-.91,4.71-.41,8.82-2.34,11.88-5.58.75-.79,1.41-1.64,1.98-2.53.52.59,1.09,1.15,1.7,1.68,3.2,2.75,7.24,4.2,11.68,4.2.5,0,1.01-.02,1.51-.06,9.5-.68,19.18-1.3,28.76-1.83,2.04-.12,3.99-.52,5.8-1.2,1.55.4,3.18.61,4.85.61.33,0,.68,0,1.05-.03,3.26-.16,6.51-.31,9.77-.45,2.82-.12,5.49-.81,7.85-2,2.22.91,4.67,1.39,7.21,1.39,0,0,.53,0,.77-.01,3.26-.11,6.51-.22,9.78-.32,2.2-.07,4.28-.46,6.22-1.18,1.82.57,3.75.85,5.77.85h.06s.42,0,.42,0c6.78-.16,13.71-.27,20.62-.35,4.75-.05,9.08-.83,12.89-2.3,2.67,1.43,5.74,2.18,9,2.18,9.24,0,18.58.08,27.76.23h.29s.03,0,.03,0h.03c3.53,0,6.8-.87,9.58-2.53,4.38,1.91,9.56,2.93,15.73,3.11,6.82.2,13.73.45,20.53.73.25,0,.74.02.83.02,1.94,0,3.78-.26,5.51-.77,1.95.77,4.05,1.21,6.28,1.32,3.36.16,6.73.33,10.04.51.39.02.8.04,1.2.04,2.38,0,4.63-.41,6.71-1.21,2.31,1.2,4.93,1.91,7.69,2.08,3.36.21,6.73.43,10.05.66.47.03.97.05,1.46.05,3.81,0,7.33-1.07,10.28-3.11,2.97,2.77,6.82,4.42,11.18,4.77,3.51.28,7.02.58,10.48.88.6.05,1.22.08,1.83.08,4.52,0,8.61-1.52,11.83-4.39,3.75-3.34,5.82-8.12,5.82-13.46v-16.46c2.52-.83,4.79-2.19,6.68-4.03,3.42-3.33,5.32-7.97,5.32-13.06v-7.94c0-4.99-1.84-9.58-5.17-12.93-3.34-3.33-7.92-5.15-12.91-5.15h-34.67c-1.94,0-3.79.26-5.55.78-1.75-.52-3.61-.78-5.55-.78h-3.4c-.4-17.89-6.32-27.21-11.41-31.93l-.75-.69-.31-.29-.37-.22-3.27-1.93-.85-.5-.99-.05-2.76-.14c-.67-.04-1.92-.07-9.56-.07-5.57,0-12.42.02-16.82.03v-16.62c0-9.33-7.57-16.63-17.23-16.63-3.42,0-6.77.98-9.59,2.79h-18.16c-1.15-3.62-3.44-6.64-6.69-8.83-3.2-2.15-7.13-3.33-11.08-3.33h0Z" fill="silver"/></svg>