<svg id="a" xmlns="http://www.w3.org/2000/svg" viewBox="0 0 787.94 309.2"><path d="M562.04,99.86h46.3c8.98,0,16.27,7.29,16.27,16.27v33.83h-78.84v-33.83c0-8.98,7.29-16.27,16.27-16.27Z" fill="#ababab" stroke-width="0"/><path d="M198.21,99.86h46.3c8.98,0,16.27,7.29,16.27,16.27v33.83h-78.84v-33.83c0-8.98,7.29-16.27,16.27-16.27Z" fill="#ababab" stroke-width="0"/><path d="M301.37,21.96h.1c2.36,0,4.27,1.91,4.27,4.27v54.94h-8.65V26.24c0-2.36,1.91-4.27,4.27-4.27Z" fill="#f1f1f1" stroke-width="0"/><path d="M403.1,97.18h-19.99c-13.39,0-24.24,10.43-24.24,22.78s9.05,30,9.05,30h35.19v-52.78Z" fill="#ababab" stroke-width="0"/><path d="M366.96,42.28h-50v-14.83h55.93s-5.93,5.05-5.93,14.83Z" fill="#ababab" stroke-width="0"/><path d="M310.55,150.96h-32.94c-2.8,0-5.06-2.13-5.06-4.76s2.27-4.76,5.06-4.76h32.94c9.57,0,26.47-9.43,32.17-13.06,2.31-1.47,5.46-.91,7.03,1.27,1.57,2.17.97,5.13-1.34,6.61-2.36,1.51-23.47,14.71-37.86,14.71Z" fill="#f1f1f1" stroke-width="0"/><path d="M301.28,132.65h-23.67c-2.8,0-5.06-2.13-5.06-4.76s2.27-4.76,5.06-4.76h23.67c7.43,0,12.39-4.33,12.44-4.37,2.01-1.83,5.21-1.78,7.16.11,1.94,1.89,1.89,4.9-.11,6.73-.32.29-7.88,7.05-19.48,7.05Z" fill="#f1f1f1" stroke-width="0"/><path d="M277.62,114.37c-2.49,0-4.67-1.75-5.02-4.13-.11-.73-.91-7.31,3.93-12.45,3.45-3.66,8.59-5.48,15.38-5.36,1.16.02,7.68-.04,14.58-.09,8.75-.07,18.66-.15,24.27-.15,12.02,0,17.57,3.59,23.08,7.93,2.14,1.69,2.43,4.69.63,6.7-1.79,2.01-4.99,2.28-7.13.6-4.52-3.56-7.9-5.72-16.59-5.72-5.57,0-15.46.08-24.19.15-8.39.07-13.6.11-14.83.09-2.48-.04-5.84.3-7.6,2.12-1.85,1.92-1.52,4.91-1.52,4.94.38,2.6-1.56,4.98-4.32,5.33-.23.03-.46.05-.69.05Z" fill="#ababab" stroke-width="0"/><path d="M301.42,84.59c-2.79,0-5.06-2.13-5.06-4.76V26.37c0-2.63,2.27-4.76,5.06-4.76s5.06,2.13,5.06,4.76v53.46c0,2.63-2.27,4.76-5.06,4.76Z" fill="#ababab" stroke-width="0"/><path d="M342.74,89.05c-2.82,1.96-15.1-4.82-17.5-11.97-8.01-23.89,44.99-30.06,77.85-30.06v44.14c-2.45-.25-4.16-2.3-4.18-4.76-.05-5.68-.05-11.37-.52-17.02-.43-5.15-4.53-9.16-10-9.21-7.24-.08-14.55.26-21.71,1.2-7.22.95-41.1,5.98-28.17,19.82,3.22,3.44,7.06,5.92,4.24,7.88Z" fill="#ababab" stroke-width="0"/><path d="M403.1,31.52c-7.1,0-7.93,3.35-10.6,8.65-1.78,0-9.23.53-11.34.83,2.22-8.28,7.3-13.72,15.4-16.39,2.19-.72,2.63-1.69,2.59-3.53-.08-3.54-.02-7.07-.02-10.99-5.59,0-12.57,0-16.12,0-8.8,0-9.2-9.98-.17-9.98,4.14,0,13.52,0,20.28,0v31.42Z" fill="#f1f1f1" stroke-width="0"/><path d="M386.95,86.64s-14.06.04-15.81,2.62v-20.52s8.18-1.66,12.24-.59c4.05,1.06,3.57,5.37,3.57,5.37v13.13Z" fill="#f1f1f1" stroke-width="0"/><path d="M500.45,21.87h8.65v54.94c0,2.36-1.91,4.27-4.27,4.27h-.1c-2.36,0-4.27-1.91-4.27-4.27V21.87h0Z" transform="translate(1009.54 102.95) rotate(180)" fill="#f1f1f1" stroke-width="0"/><path d="M403.1,97.09h19.99c13.39,0,24.24,10.43,24.24,22.78,0,12.35-9.05,30-9.05,30h-35.19v-52.78Z" fill="#ababab" stroke-width="0"/><path d="M439.23,42.19c3.2,0,50,0,50,0v-14.83s-55.93,0-55.93,0c0,0,5.93,5.05,5.93,14.83Z" fill="#ababab" stroke-width="0"/><path d="M495.64,150.86h32.94c2.8,0,5.06-2.13,5.06-4.76s-2.27-4.76-5.06-4.76h-32.94c-9.57,0-26.47-9.43-32.17-13.06-2.31-1.47-5.46-.91-7.03,1.27-1.57,2.17-.97,5.13,1.34,6.61,2.36,1.51,23.47,14.71,37.86,14.71Z" fill="#f1f1f1" stroke-width="0"/><path d="M504.91,132.56h23.67c2.8,0,5.06-2.13,5.06-4.76s-2.27-4.76-5.06-4.76h-23.67c-7.43,0-12.39-4.33-12.44-4.37-2.01-1.83-5.21-1.78-7.16.11-1.94,1.89-1.89,4.9.11,6.73.32.29,7.88,7.05,19.48,7.05Z" fill="#f1f1f1" stroke-width="0"/><path d="M528.57,114.27c2.49,0,4.67-1.75,5.02-4.13.11-.73.91-7.31-3.93-12.45-3.45-3.66-8.59-5.48-15.38-5.36-1.16.02-7.68-.04-14.58-.09-8.75-.07-18.66-.15-24.27-.15-12.02,0-17.57,3.59-23.08,7.93-2.14,1.69-2.43,4.69-.63,6.7,1.79,2.01,4.99,2.28,7.13.6,4.52-3.56,7.9-5.72,16.59-5.72,5.57,0,15.46.08,24.19.15,8.39.07,13.6.11,14.83.09,2.48-.04,5.84.3,7.6,2.12,1.85,1.92,1.52,4.91,1.52,4.94-.38,2.6,1.56,4.98,4.32,5.33.23.03.46.05.69.05Z" fill="#ababab" stroke-width="0"/><line x1="504.77" y1="26.27" x2="504.77" y2="79.74" fill="#ababab" stroke-width="0"/><path d="M504.77,84.49c-2.8,0-5.06-2.13-5.06-4.76V26.27c0-2.63,2.27-4.76,5.06-4.76s5.06,2.13,5.06,4.76v53.46c0,2.63-2.27,4.76-5.06,4.76Z" fill="#ababab" stroke-width="0"/><path d="M463.45,88.95c2.82,1.96,15.1-4.82,17.5-11.97,8.01-23.89-44.99-30.06-77.85-30.06,0,12.68,0,30.22,0,44.14,2.45-.25,4.16-2.3,4.18-4.76.05-5.68.05-11.37.52-17.02.43-5.15,4.53-9.16,10-9.21,7.24-.08,14.55.26,21.71,1.2,7.22.95,41.1,5.98,28.17,19.82-3.22,3.44-7.06,5.92-4.24,7.88Z" fill="#ababab" stroke-width="0"/><path d="M403.1,31.42c7.1,0,7.93,3.35,10.6,8.65,1.78,0,9.23.53,11.34.83-2.22-8.28-7.3-13.72-15.4-16.39-2.19-.72-2.63-1.69-2.59-3.53.08-3.54.02-7.07.02-10.99,5.59,0,12.57,0,16.12,0,8.8,0,9.2-9.98.17-9.98-4.14,0-13.52,0-20.28,0,0,8.94,0,20.45,0,31.42Z" fill="#f1f1f1" stroke-width="0"/><path d="M419.24,86.54s14.06.04,15.81,2.62c0-5.64,0-20.52,0-20.52,0,0-8.18-1.66-12.24-.59s-3.57,5.37-3.57,5.37v13.13Z" fill="#f1f1f1" stroke-width="0"/><path d="M28.59,307.05c-7.74.68-15.47,1.38-23.2,2.1-1.9.18-3.27-.12-4.12-.89-.85-.77-1.27-2.11-1.27-4.01v-97.2c0-1.9.42-3.28,1.28-4.13.85-.85,2.22-1.27,4.13-1.27,22.3,0,44.6,0,66.9,0,1.9,0,3.27.4,4.12,1.2.85.8,1.27,2.09,1.27,3.87,0,5.59-.01,11.17-.02,16.76,0,1.78-.43,3.08-1.28,3.9-.85.82-2.23,1.24-4.13,1.28-12.75.26-25.49.54-38.24.83,0,5.05,0,10.1,0,15.16,8.69-.31,17.39-.6,26.08-.89,1.9-.06,3.27.3,4.12,1.08.85.78,1.27,2.07,1.27,3.87,0,5.69-.01,11.37-.02,17.06,0,1.8-.43,3.13-1.28,3.98-.85.85-2.23,1.33-4.12,1.43-8.69.47-17.38.96-26.07,1.47,0,9.57-.01,19.14-.02,28.71,0,1.85-.43,3.22-1.28,4.12-.85.9-2.22,1.43-4.12,1.6Z" fill="#ababab" stroke-width="0"/><path d="M161.08,297.56c-22.1,1.23-44.19,2.64-66.27,4.22-1.9.14-3.27-.16-4.12-.89-.85-.73-1.27-1.98-1.27-3.75,0-5.63.02-11.26.02-16.89,0-1.77.43-3.07,1.28-3.91.85-.84,2.22-1.3,4.12-1.4,5.6-.29,11.19-.58,16.79-.86.02-15.3.05-30.6.07-45.9-4.6.08-9.2.17-13.8.26-1.9.04-3.28-.33-4.12-1.1-.85-.77-1.27-2.04-1.27-3.81,0-5.62.02-11.24.02-16.85,0-1.76.43-3.04,1.28-3.83.85-.79,2.23-1.18,4.13-1.18,14.5,0,29,0,43.5,0,1.9,0,3.27.38,4.12,1.14.85.76,1.27,1.99,1.27,3.69-.04,21.99-.08,43.98-.11,65.96,4.8-.21,9.6-.41,14.4-.61,1.9-.08,3.27.25,4.12.96.85.72,1.27,1.92,1.27,3.6,0,5.36-.02,10.71-.03,16.07,0,1.68-.43,2.92-1.28,3.72-.85.8-2.23,1.25-4.13,1.36Z" fill="#ababab" stroke-width="0"/><path d="M210.59,295.09c-7.5.33-15.01.68-22.51,1.05-1.9.09-3.28-.21-4.12-.91-.85-.7-1.27-1.89-1.27-3.56.05-28.43.1-56.85.15-85.28,0-1.67.43-2.87,1.28-3.62.85-.74,2.23-1.12,4.13-1.12,5.2,0,10.4,0,15.6,0,1.9,0,3.52.26,4.87.78,1.35.52,2.67,1.43,3.97,2.72,9.68,9.58,19.37,19.03,29.06,28.38.01-9.09.03-18.18.04-27.27,0-1.62.43-2.8,1.28-3.52.85-.72,2.23-1.09,4.13-1.09,7.5,0,15,0,22.5,0,1.9,0,3.27.36,4.12,1.08.85.72,1.27,1.88,1.27,3.48-.04,27.33-.07,54.67-.11,82,0,1.6-.43,2.78-1.28,3.52-.85.74-2.23,1.14-4.13,1.2-7.51.22-15.01.47-22.52.73-1.9.07-3.28-.24-4.13-.94-.85-.69-1.27-1.85-1.27-3.48,0-5.25.02-10.5.02-15.75-8.54-8.59-17.08-17.25-25.61-26.01-.02,14.24-.05,28.48-.07,42.72,0,1.64-.43,2.84-1.28,3.61-.85.77-2.23,1.2-4.13,1.28Z" fill="#f1f1f1" stroke-width="0"/><path d="M345.85,291.35c-15.82.18-31.63.45-47.45.81-1.9.04-3.28-.28-4.13-.97-.85-.69-1.27-1.84-1.27-3.43,0-4.91.01-9.82.02-14.73,0-1.59.43-2.76,1.28-3.48.85-.73,2.23-1.11,4.13-1.14,13.46-.23,26.92-.41,40.38-.54,1.3-.01,2.28-.37,2.93-1.09.65-.71.98-1.57.98-2.56,0-1.41-.32-2.45-.97-3.11-.65-.66-1.63-1.02-2.93-1.1-7.5-.81-15.01-1.61-22.51-2.4-7-.75-12.63-2.6-16.88-5.56-4.25-2.96-6.37-7.97-6.36-15.02,0-4.41.01-8.81.02-13.22,0-7.13,2.76-12.62,8.27-16.44,5.5-3.82,13.1-5.72,22.81-5.72,14,0,28,0,42,0,1.9,0,3.27.35,4.12,1.06.85.7,1.27,1.84,1.27,3.42,0,4.93,0,9.86,0,14.79,0,1.58-.43,2.72-1.28,3.42-.85.71-2.23,1.06-4.13,1.06-11.65.02-23.31.05-34.96.1-1.3,0-2.3.36-3,1.07-.7.71-1.05,1.61-1.05,2.69,0,1.08.35,2,1.05,2.74.7.75,1.7,1.16,3,1.23,7.45.79,14.9,1.59,22.36,2.39,7,.81,12.65,2.7,16.96,5.67,4.3,2.97,6.45,7.94,6.45,14.9,0,4.35,0,8.7,0,13.05,0,7.04-2.78,12.45-8.34,16.25-5.56,3.8-13.14,5.75-22.75,5.86Z" fill="#f1f1f1" stroke-width="0"/><path d="M396.3,291.07c-1.9,0-3.28-.35-4.13-1.06-.85-.7-1.28-1.84-1.28-3.41,0-4.93,0-9.85,0-14.78,0-1.57.42-2.71,1.28-3.42.85-.7,2.23-1.06,4.13-1.05,4.95,0,9.91.01,14.86.03,0-13.92,0-27.83,0-41.75-4.95,0-9.9,0-14.86,0-1.9,0-3.28-.35-4.13-1.06-.85-.7-1.27-1.84-1.27-3.42,0-5.01,0-10.02,0-15.03,0-1.57.42-2.71,1.27-3.42.85-.7,2.22-1.06,4.12-1.06,21.3,0,42.6,0,63.9,0,1.9,0,3.27.36,4.13,1.06.85.71,1.28,1.86,1.28,3.44,0,5.04,0,10.09.01,15.13,0,1.59-.42,2.73-1.27,3.43-.85.71-2.23,1.05-4.13,1.04-4.85-.02-9.7-.04-14.55-.06l.03,41.88c4.85.04,9.71.09,14.56.15,1.9.02,3.28.39,4.13,1.11.85.72,1.28,1.87,1.28,3.46,0,4.96,0,9.92.01,14.88,0,1.58-.42,2.72-1.27,3.42-.85.69-2.23,1.02-4.13.99-21.32-.34-42.65-.51-63.97-.52Z" fill="#f1f1f1" stroke-width="0"/><path d="M566.7,294.64c-15.76-.65-31.52-1.21-47.28-1.68-12.51-.38-21.8-2.71-27.85-7.03-6.06-4.32-9.09-10.81-9.1-19.51-.01-13.05-.03-26.1-.04-39.15,0-8.7,3.01-15.13,9.06-19.31,6.04-4.18,15.32-6.29,27.82-6.29,12.5,0,25,0,37.5,0,1.9,0,3.27.37,4.13,1.1.85.73,1.28,1.91,1.28,3.55,0,5.2.02,10.4.03,15.6,0,1.63-.42,2.81-1.27,3.53-.85.72-2.22,1.07-4.12,1.05-10.4-.11-20.8-.21-31.2-.29-3.1-.03-5.4.49-6.9,1.53-1.5,1.05-2.25,2.62-2.24,4.73.01,10.09.03,20.19.04,30.28,0,2.11.58,3.69,1.73,4.72,1.15,1.04,2.88,1.58,5.18,1.64,4.85.11,9.71.23,14.56.35-.01-6.64-.02-13.27-.03-19.91,0-1.62.42-2.78,1.27-3.49.85-.71,2.22-1.05,4.12-1.02,7.75.13,15.5.27,23.26.42,1.9.04,3.28.43,4.13,1.18.85.75,1.28,1.95,1.28,3.59.02,13.33.05,26.67.07,40,0,1.64-.42,2.81-1.27,3.51-.85.7-2.23,1.01-4.13.93Z" fill="#f1f1f1" stroke-width="0"/><path d="M619.06,297.13c-7.75-.42-15.5-.81-23.25-1.19-1.9-.09-3.28-.53-4.13-1.31-.85-.78-1.28-2-1.28-3.65-.05-28.21-.1-56.42-.15-84.63,0-1.65.42-2.85,1.27-3.59.85-.74,2.22-1.11,4.12-1.11,7.75,0,15.5,0,23.25,0,1.9,0,3.28.38,4.13,1.13.85.75,1.28,1.98,1.28,3.66.02,9.62.03,19.24.05,28.86,8.35.16,16.7.33,25.05.51-.02-9.77-.03-19.54-.05-29.3,0-1.71.42-2.95,1.27-3.71.85-.76,2.22-1.15,4.12-1.15,7.75,0,15.5,0,23.25,0,1.9,0,3.28.39,4.13,1.17.85.78,1.28,2.05,1.28,3.8.04,29.83.09,59.67.13,89.5,0,1.75-.42,2.99-1.27,3.71-.85.72-2.22,1.02-4.12.89-7.75-.53-15.49-1.03-23.24-1.52-1.9-.12-3.28-.59-4.13-1.4-.85-.82-1.28-2.08-1.28-3.79-.02-9.99-.03-19.99-.05-29.98-8.35-.33-16.7-.64-25.05-.93.02,9.84.03,19.69.05,29.53,0,1.69-.42,2.88-1.27,3.59-.85.71-2.22,1.01-4.12.91Z" fill="#f1f1f1" stroke-width="0"/><path d="M755.16,306.68c-8.09-.7-16.17-1.38-24.26-2.03-1.9-.15-3.27-.67-4.12-1.54-.85-.87-1.28-2.21-1.28-4.02-.02-23.32-.05-46.63-.07-69.95-7.35-.16-14.7-.31-22.04-.45-1.9-.04-3.28-.46-4.13-1.27-.85-.81-1.28-2.09-1.28-3.86,0-5.63-.02-11.26-.02-16.89,0-1.77.42-3.05,1.27-3.84.85-.79,2.22-1.19,4.12-1.19,26.4,0,52.8,0,79.2,0,1.9,0,3.27.43,4.12,1.27.85.85,1.28,2.23,1.28,4.13v18.15c0,1.9-.43,3.27-1.27,4.09-.85.83-2.23,1.22-4.12,1.17-7.35-.18-14.69-.36-22.04-.53.01,23.98.02,47.96.04,71.95,0,1.86-.42,3.16-1.27,3.92-.85.76-2.22,1.05-4.12.88Z" fill="#f1f1f1" stroke-width="0"/></svg>